<?xml version="1.0" encoding="utf-8"?>
<!-- Generator: Adobe Illustrator 16.0.0, SVG Export Plug-In . SVG Version: 6.00 Build 0)  -->
<!DOCTYPE svg PUBLIC "-//W3C//DTD SVG 1.1//EN" "http://www.w3.org/Graphics/SVG/1.1/DTD/svg11.dtd">
<svg version="1.1" id="Layer_1" xmlns="http://www.w3.org/2000/svg" xmlns:xlink="http://www.w3.org/1999/xlink" x="0px" y="0px"
	 width="381.871px" height="492px" viewBox="0 0 381.871 492" enable-background="new 0 0 381.871 492" xml:space="preserve">
<path fill="#FFFFFF" d="M153.738,430.129h-46.129c-3.313,0-6,2.688-6,6c0,3.316,2.688,6,6,6h46.129c3.316,0,6-2.684,6-6
	C159.738,432.816,157.055,430.129,153.738,430.129z"/>
<path fill="#FFFFFF" d="M230.184,180.965c0-10.684-8.105-19.625-18.738-20.672c-10.629-1.043-20.32,6.152-22.395,16.633
	c-2.078,10.48,4.141,20.824,14.367,23.91v14.035c-2.18-0.555-4.41-0.898-6.652-1.027c-6.133-12.109-18.543-19.742-32.113-19.758
	h-11.574v-7.992c-0.004-5.895-4.781-10.668-10.676-10.676h-20.688v-7.715c0-3.313-2.688-6-6-6c-3.316,0-6,2.688-6,6v7.715H89.414
	c-5.895,0.008-10.668,4.781-10.676,10.676v7.992h-11.57c-19.871,0.023-35.977,16.129-36,36v59.215c0.023,19.871,16.129,35.977,36,36
	h97.484c19.875-0.023,35.98-16.129,36-36v-4.984c14.113-2.402,25.402-13.047,28.625-26.992c3.227-13.945-2.238-28.469-13.859-36.824
	v-19.664C224.176,198.18,230.168,190.113,230.184,180.965z M90.742,187.418h50.336v6.668H90.742V187.418z M188.652,289.301
	c-0.016,13.246-10.75,23.984-24,24H67.168c-13.246-0.016-23.984-10.754-24-24v-59.215c0.016-13.246,10.754-23.984,24-24h97.484
	c13.25,0.016,23.984,10.754,24,24V289.301z M200.652,272.059v-45.508c10.332,2.723,17.527,12.066,17.527,22.75
	s-7.195,20.027-17.527,22.754V272.059z M200.652,180.969c0.004-4.84,3.926-8.762,8.766-8.762s8.766,3.922,8.766,8.762
	s-3.926,8.766-8.766,8.766c-4.84-0.008-8.762-3.93-8.766-8.77V180.969z"/>
<path fill="#FFFFFF" d="M73.871,229.273h-0.699c-8.281,0.012-14.992,6.723-15,15v8.145c0,3.313,2.688,6,6,6h18.699
	c3.316,0,6-2.688,6-6v-8.145C88.863,235.996,82.152,229.285,73.871,229.273z M76.871,246.418h-6.699v-2.145c0-1.656,1.344-3,3-3
	h0.699c1.656,0,3,1.344,3,3V246.418z"/>
<path fill="#FFFFFF" d="M158.652,229.273h-0.703c-8.277,0.012-14.988,6.723-15,15v8.145c0,3.313,2.688,6,6,6h18.703
	c3.313,0,6-2.688,6-6v-8.145C173.641,235.996,166.93,229.285,158.652,229.273z M161.652,246.418h-6.703v-2.145c0-1.656,1.344-3,3-3
	h0.703c1.656,0,3,1.344,3,3V246.418z"/>
<path fill="#FFFFFF" d="M134.613,271.734H97.211c-3.313,0-6,2.688-6,6v0.703c0.016,13.246,10.754,23.984,24,24h1.402
	c13.246-0.016,23.984-10.754,24-24v-0.703C140.613,274.422,137.926,271.734,134.613,271.734z M116.613,290.438h-1.402
	c-4.57-0.004-8.742-2.602-10.766-6.703h22.934C125.359,287.836,121.184,290.434,116.613,290.438z"/>
<path fill="#FFFFFF" d="M344.336,44.047h-47.031c-3.313,0-6,2.684-6,6c0,3.313,2.688,6,6,6h47.031c3.313,0,6-2.688,6-6
	C350.336,46.73,347.648,44.047,344.336,44.047z"/>
<path fill="#FFFFFF" d="M212.859,56.047h58.793c3.313,0,6-2.688,6-6c0-3.316-2.688-6-6-6h-58.793c-3.313,0-6,2.684-6,6
	C206.859,53.359,209.547,56.047,212.859,56.047z"/>
<path fill="#FFFFFF" d="M344.336,70.77h-94.063c-3.313,0-6,2.684-6,6c0,3.313,2.688,6,6,6h94.063c3.313,0,6-2.688,6-6
	C350.336,73.453,347.648,70.77,344.336,70.77z"/>
<path fill="#FFFFFF" d="M212.859,82.77h11.758c3.316,0,6-2.688,6-6c0-3.316-2.684-6-6-6h-11.758c-3.313,0-6,2.684-6,6
	C206.859,80.082,209.547,82.77,212.859,82.77z"/>
<path fill="#FFFFFF" d="M344.336,97.488h-51.309c-3.313,0-6,2.688-6,6c0,3.316,2.688,6,6,6h51.309c3.313,0,6-2.684,6-6
	C350.336,100.176,347.648,97.488,344.336,97.488z"/>
<path fill="#FFFFFF" d="M267.375,97.488h-54.516c-3.313,0-6,2.688-6,6c0,3.316,2.688,6,6,6h54.516c3.316,0,6-2.684,6-6
	C273.375,100.176,270.691,97.488,267.375,97.488z"/>
<path fill="#FFFFFF" d="M354.492,0H202.707c-15.113,0.016-27.363,12.266-27.379,27.379v3.789H55.871
	C25.027,31.203,0.035,56.195,0,87.039v349.09C0.035,466.973,25.027,491.965,55.871,492H205.48
	c30.84-0.035,55.836-25.027,55.871-55.871V198.07c1.832-1.266,3.59-2.637,5.262-4.109c8.613-7.609,18.621-21.352,18.414-44.027
	h69.465c7.262,0.008,14.23-2.875,19.363-8.012c5.137-5.137,8.02-12.102,8.016-19.363v-95.18C381.852,12.266,369.605,0.016,354.492,0
	z M55.871,43.168h119.457V89.77H12v-2.73C12.027,62.82,31.652,43.195,55.871,43.168z M205.48,480H55.871
	C31.652,479.973,12.027,460.348,12,436.129v-43.867h237.352v43.867C249.324,460.348,229.699,479.973,205.48,480z M249.352,380.262
	H12V101.766h163.328v20.793c0.02,15.113,12.266,27.359,27.379,27.375h18.438c6.652,0,11.477,2.031,14.746,6.207
	c8.5,10.852,5.234,34,3.262,41.992c-0.516,2.066,0.102,4.246,1.621,5.734s3.711,2.063,5.766,1.508
	c0.129-0.035,1.164-0.324,2.813-0.949V380.262z M369.871,122.559c0.004,4.082-1.613,7.996-4.5,10.883
	c-2.883,2.883-6.801,4.504-10.879,4.496h-72.102c-2.559-0.012-5.008,1.035-6.773,2.891c-1.797,1.891-2.754,4.43-2.645,7.035
	c0.996,23.469-10.785,35.535-19.781,41.293c-0.137,0.051-0.27,0.109-0.402,0.172c1.313-11.617,1.41-29.254-7.434-40.563
	c-5.617-7.188-13.762-10.828-24.207-10.828h-18.441c-8.488-0.012-15.367-6.891-15.379-15.379v-95.18
	c0.012-8.488,6.891-15.367,15.379-15.379h151.785c8.488,0.012,15.367,6.891,15.379,15.379V122.559z"/>
</svg>
