<?xml version="1.0" encoding="utf-8"?>
<!-- Generator: Adobe Illustrator 16.0.0, SVG Export Plug-In . SVG Version: 6.00 Build 0)  -->
<!DOCTYPE svg PUBLIC "-//W3C//DTD SVG 1.1//EN" "http://www.w3.org/Graphics/SVG/1.1/DTD/svg11.dtd">
<svg version="1.1" id="Layer_1" xmlns="http://www.w3.org/2000/svg" xmlns:xlink="http://www.w3.org/1999/xlink" x="0px" y="0px"
	 width="512px" height="512px" viewBox="0 0 512 512" enable-background="new 0 0 512 512" xml:space="preserve">
<path fill="#FFFFFF" d="M475.074,0H36.926C16.531,0,0,16.531,0,36.926v438.148C0,495.469,16.531,512,36.926,512H273.5V314H207v-77.5
	h66.5v-57.035c0-66.141,40.379-102.141,99.379-102.141c28.258,0,52.543,2.105,59.621,3.047V149.5h-40.684
	c-32.102,0-38.316,15.254-38.316,37.641V236.5h76.75l-10,77.5H353.5v198h121.574C495.469,512,512,495.469,512,475.074V36.926
	C512,16.531,495.469,0,475.074,0z"/>
</svg>
