<?xml version="1.0" encoding="utf-8"?>
<!-- Generator: Adobe Illustrator 16.0.0, SVG Export Plug-In . SVG Version: 6.00 Build 0)  -->
<!DOCTYPE svg PUBLIC "-//W3C//DTD SVG 1.1//EN" "http://www.w3.org/Graphics/SVG/1.1/DTD/svg11.dtd">
<svg version="1.1" id="Layer_1" xmlns="http://www.w3.org/2000/svg" xmlns:xlink="http://www.w3.org/1999/xlink" x="0px" y="0px"
	 width="512px" height="512px" viewBox="0 0 512 512" enable-background="new 0 0 512 512" xml:space="preserve">
<g transform="translate(1 1)">
	<g>
		<path fill="#FFFFFF" d="M468.333-1H41.667C17.773-1-1,17.773-1,41.667v426.667C-1,492.227,17.773,511,41.667,511h196.267h102.4
			h128C492.227,511,511,492.227,511,468.333V41.667C511,17.773,492.227-1,468.333-1z M255,493.934V323.268h-68.267V255H255v-59.733
			c0-48.64,37.547-89.6,85.333-93.867h76.8v68.267h-68.267c-14.507,0-25.601,11.093-25.601,25.6V255H408.6v68.268h-85.333v170.666
			H255L255,493.934z M493.933,468.333c0,14.507-11.093,25.601-25.6,25.601h-128V340.333h85.333v-102.4h-85.333v-42.667
			c0-5.12,3.413-8.533,8.533-8.533H434.2v-102.4h-94.72c-57.174,5.12-101.547,53.76-101.547,110.933v42.667h-68.267v102.4h68.267
			v153.601H41.667c-14.507,0-25.6-11.094-25.6-25.601V41.667c0-14.507,11.093-25.6,25.6-25.6h426.667
			c14.507,0,25.6,11.093,25.6,25.6L493.933,468.333L493.933,468.333z"/>
	</g>
</g>
</svg>
