<?xml version="1.0" encoding="utf-8"?>
<!-- Generator: Adobe Illustrator 16.0.0, SVG Export Plug-In . SVG Version: 6.00 Build 0)  -->
<!DOCTYPE svg PUBLIC "-//W3C//DTD SVG 1.1//EN" "http://www.w3.org/Graphics/SVG/1.1/DTD/svg11.dtd">
<svg version="1.1" id="Layer_1" xmlns="http://www.w3.org/2000/svg" xmlns:xlink="http://www.w3.org/1999/xlink" x="0px" y="0px"
	 width="512px" height="428.794px" viewBox="0 0 512 428.794" enable-background="new 0 0 512 428.794" xml:space="preserve">
<polygon fill="#942580" points="2.002,2.007 25.727,2.007 25.727,156.867 64.772,156.867 64.772,182.68 2.002,182.68 "/>
<rect x="96.696" y="2.007" fill="#942580" width="23.725" height="180.672"/>
<polygon fill="#942580" points="195.059,149.378 213.175,2.002 234.959,2.002 211.662,182.674 176.293,182.674 152.996,2.002 
	176.933,2.002 "/>
<path fill="#942580" d="M37.38,428.795c-23.298,0-35.378-16.258-35.378-45.428V289.43c0-29.166,12.081-45.427,35.378-45.427
	c23.288,0,35.369,16.261,35.369,45.427v17.541H50.314v-19.354c0-13.158-4.745-17.801-12.294-17.801
	c-7.538,0-12.294,4.643-12.294,17.801v97.549c0,13.168,4.756,17.557,12.294,17.557c7.55,0,12.294-4.389,12.294-17.557v-25.803
	h22.435v24.004C72.749,412.537,60.668,428.795,37.38,428.795"/>
<polygon fill="#942580" points="132.502,426.721 108.778,426.721 108.778,246.07 132.502,246.07 132.502,323.498 159.468,323.498 
	159.468,246.07 183.629,246.07 183.629,426.721 159.468,426.721 159.468,349.299 132.502,349.299 "/>
<path fill="#942580" d="M356.845,428.795c-23.299,0-35.379-16.258-35.379-45.428V289.43c0-29.166,12.08-45.427,35.379-45.427
	c23.287,0,35.367,16.261,35.367,45.427v17.541h-22.434v-19.354c0-13.158-4.746-17.801-12.294-17.801
	c-7.55,0-12.306,4.643-12.306,17.801v97.549c0,13.168,4.756,17.557,12.306,17.557c7.548,0,12.294-4.389,12.294-17.557v-25.803
	h22.434v24.004C392.212,412.537,380.132,428.795,356.845,428.795"/>
<polygon fill="#942580" points="459.302,354.721 451.966,371.23 451.966,426.721 428.241,426.721 428.241,246.07 451.966,246.07 
	451.966,324.787 483.025,246.07 506.751,246.07 473.749,326.586 506.751,426.721 482.375,426.721 "/>
<rect x="264.252" y="2.271" fill="#942580" width="64.093" height="25.426"/>
<rect x="262.311" y="78.063" fill="#942580" width="55.793" height="25.421"/>
<rect x="264.252" y="156.989" fill="#942580" width="64.093" height="25.432"/>
<rect x="218.448" y="246.32" fill="#942580" width="64.093" height="25.43"/>
<rect x="218.448" y="322.117" fill="#942580" width="55.792" height="25.43"/>
<rect x="218.448" y="401.057" fill="#942580" width="64.093" height="25.422"/>
</svg>
