<?xml version="1.0" encoding="utf-8"?>
<!-- Generator: Adobe Illustrator 16.0.0, SVG Export Plug-In . SVG Version: 6.00 Build 0)  -->
<!DOCTYPE svg PUBLIC "-//W3C//DTD SVG 1.1//EN" "http://www.w3.org/Graphics/SVG/1.1/DTD/svg11.dtd">
<svg version="1.1" id="Layer_1" xmlns="http://www.w3.org/2000/svg" xmlns:xlink="http://www.w3.org/1999/xlink" x="0px" y="0px"
	 width="2759.521px" height="259.715px" viewBox="0 0 2759.521 259.715" enable-background="new 0 0 2759.521 259.715"
	 xml:space="preserve">
<g>
	<path fill="#2937E8" d="M33.593,183.998v64.004c0,18.285-28.622,17.887-28.622,0.396V19.424c0-8.35,6.758-13.914,14.708-13.914
		h86.264c68.772,0,100.972,45.715,100.972,91.432c0,47.703-32.598,87.057-102.165,87.057L33.593,183.998L33.593,183.998z
		 M33.593,158.158h71.157c52.871,0,74.735-31.006,73.94-61.217c-0.397-32.598-26.237-65.594-72.349-65.594H33.593V158.158z"/>
	<path fill="#2937E8" d="M691.101,15.447c0-16.695,30.212-17.49,30.212,0v228.182c0,19.875-27.43,21.863-35.776,7.949
		L536.861,52.418l3.179,54.857v140.329c0,19.479-30.211,19.875-30.211,0V19.82c0-19.877,22.261-23.057,32.199-8.348l153.049,204.727
		l-3.978-60.027L691.101,15.447L691.101,15.447z"/>
	<path fill="#2937E8" d="M1229.35,248.797c-19.081,8.744-40.548,14.311-59.63,14.311c-67.976,0-129.196-55.652-129.196-134.363
		c0-65.195,46.513-116.873,107.73-126.412c46.511-6.361,87.059,5.168,118.463,38.16c11.926,13.516-9.541,29.816-20.672,17.889
		c-27.031-28.621-58.436-32.994-93.418-29.018c-48.896,7.553-83.48,42.137-83.48,99.779c0,60.422,46.512,106.535,101.369,106.535
		c14.709,0,31.009-3.975,46.112-11.526c12.325-6.358,24.25-15.899,32.598-26.633c9.145-13.519,33.395,1.19,23.059,15.899
		C1261.55,228.521,1246.442,240.447,1229.35,248.797"/>
	<path fill="#2937E8" d="M1679.75,44.74l-108.533,210.018c-7.154,14.709-33.393,4.373-26.235-11.527L1665.033,6.701
		c2.386-5.166,7.949-7.553,13.119-7.553c5.167,0,9.938,2.387,12.721,7.553l119.655,235.336
		c10.336,17.094-19.082,27.033-26.637,11.529l-31.007-61.617L1679.75,44.74z"/>
	<path fill="#2937E8" d="M335.003,46.643L228.834,256.631c-7.111,14.738-33.347,4.402-26.192-11.498L322.695,8.604
		c2.385-5.168,7.948-7.553,13.118-7.553c5.168,0,9.938,2.385,12.722,7.553L468.19,243.939
		c10.335,17.094-19.082,27.033-26.637,11.527l-44.973-89.945L335.003,46.643z"/>
	<path fill="#2937E8" d="M903.715,47.594L797.546,257.582c-7.11,14.738-33.347,4.402-26.192-11.498L891.407,9.555
		c2.386-5.168,7.951-7.553,13.118-7.553c5.169,0,9.938,2.385,12.722,7.553l119.655,235.335
		c10.336,17.094-19.082,27.03-26.636,11.528l-44.974-89.946L903.715,47.594z"/>
	<path fill="#2937E8" d="M1506.745,0h-180.737c-6.291,0-11.391,5.102-11.391,11.391v3.797c0,6.291,5.1,11.391,11.391,11.391h180.737
		c6.291,0,11.391-5.1,11.391-11.391v-3.797C1518.136,5.102,1513.036,0,1506.745,0"/>
	<path fill="#2937E8" d="M1506.745,117.707h-180.737c-6.291,0-11.391,5.1-11.391,11.391v3.796c0,6.291,5.1,11.392,11.391,11.392
		h180.737c6.291,0,11.391-5.101,11.391-11.392v-3.796C1518.136,122.807,1513.036,117.707,1506.745,117.707"/>
	<path fill="#2937E8" d="M1506.745,233.135h-180.737c-6.291,0-11.391,5.1-11.391,11.391v3.801c0,6.291,5.1,11.391,11.391,11.391
		h180.737c6.291,0,11.391-5.1,11.391-11.391v-3.801C1518.136,238.234,1513.036,233.135,1506.745,233.135"/>
	<path fill="#2937E8" d="M2404.799,208.398L2508.482,7.769c6.834-14.053,31.897-4.18,25.063,11.012l-114.688,225.957
		c-2.278,4.938-7.596,7.217-12.532,7.217c-4.938,0-9.493-2.279-12.153-7.217L2279.864,19.92
		c-9.873-16.33,18.229-25.824,25.444-11.014l29.621,58.863L2404.799,208.398z"/>
	<path fill="#2937E8" d="M2216.64,1.002h-3.627c-6.011,0-10.882,6.543-10.882,14.617v231.938c0,8.076,4.871,14.617,10.882,14.617
		h3.627c6.011,0,10.882-6.541,10.882-14.617V15.619C2227.521,7.545,2222.65,1.002,2216.64,1.002"/>
	<path fill="#2937E8" d="M1970.329,4.871h-3.629c-6.009,0-10.884,6.193-10.884,13.83v219.436c0,7.637,4.875,13.83,10.884,13.83
		h3.629c6.009,0,10.881-6.193,10.881-13.83V18.701C1981.211,11.064,1976.338,4.871,1970.329,4.871"/>
	<path fill="#2937E8" d="M2142.256,232.91h-172.658c-6.014,0-10.885,4.875-10.885,10.883v3.627c0,6.012,4.871,10.883,10.885,10.883
		h172.658c6.01,0,10.881-4.871,10.881-10.883v-3.627C2153.137,237.785,2148.266,232.91,2142.256,232.91"/>
	<path fill="#2937E8" d="M2759.521,229.041h-172.662c-6.011,0-10.882,4.871-10.882,10.881v3.627c0,6.01,4.871,10.881,10.882,10.881
		h172.662c6.008,0,0.873-5.964,0.873-11.974v-3.627C2760.395,232.818,2765.528,229.041,2759.521,229.041"/>
	<path fill="#2937E8" d="M2759.521,113.783h-172.662c-6.011,0-10.882,4.873-10.882,10.881v3.627c0,6.01,4.871,10.883,10.882,10.883
		h172.662c6.008,0,0.871-5.966,0.871-11.976v-3.627C2760.393,117.563,2765.528,113.783,2759.521,113.783"/>
	<path fill="#2937E8" d="M2759.52,1.002h-172.66c-6.012,0-10.883,4.871-10.883,10.881v3.625c0,6.012,4.871,10.887,10.883,10.887
		h172.66c6.01,0,0.873-5.968,0.873-11.98V10.79C2760.393,4.78,2765.528,1.002,2759.52,1.002"/>
</g>
</svg>
