<?xml version="1.0" encoding="utf-8"?>
<!-- Generator: Adobe Illustrator 16.0.0, SVG Export Plug-In . SVG Version: 6.00 Build 0)  -->
<!DOCTYPE svg PUBLIC "-//W3C//DTD SVG 1.1//EN" "http://www.w3.org/Graphics/SVG/1.1/DTD/svg11.dtd">
<svg version="1.1" id="Capa_1" xmlns="http://www.w3.org/2000/svg" xmlns:xlink="http://www.w3.org/1999/xlink" x="0px" y="0px"
	 width="250px" height="250px" viewBox="0 0 250 250" enable-background="new 0 0 250 250" xml:space="preserve">
<g>
	<g>
		<path fill="#FFFFFF" d="M144.734,64.518c-0.591-2.903-1.87-5.512-3.543-7.825l34.94-33.76c1.624,0.788,3.396,1.279,5.266,1.279
			c6.692,0,12.106-5.413,12.106-12.106S188.14,0,181.447,0c-6.693,0-12.107,5.414-12.107,12.106c0,1.821,0.443,3.543,1.182,5.069
			L135.236,51.23c-3.002-1.772-6.496-2.904-10.236-2.904c-2.707,0-5.266,0.542-7.579,1.526L83.514,17.126
			c0.738-1.575,1.181-3.248,1.181-5.069C84.695,5.414,79.232,0,72.588,0c-6.693,0-12.106,5.414-12.106,12.106
			s5.413,12.106,12.106,12.106c1.919,0,3.691-0.492,5.266-1.279l32.726,31.594c-2.657,2.707-4.527,6.152-5.315,9.99H0V241.93h16.142
			V250h8.071v-8.07h201.624V250h8.072v-8.07H250V64.518H144.734z M181.447,8.071c2.215,0,4.035,1.821,4.035,4.036
			c0,2.214-1.82,4.035-4.035,4.035s-4.035-1.821-4.035-4.035C177.412,9.892,179.232,8.071,181.447,8.071z M72.588,16.142
			c-2.214,0-4.035-1.821-4.035-4.035c0-2.215,1.821-4.036,4.035-4.036c2.215,0,4.036,1.821,4.036,4.036
			C76.624,14.321,74.803,16.142,72.588,16.142z M125,56.447c5.266,0,9.695,3.396,11.368,8.071h-22.687
			C115.305,59.843,119.734,56.447,125,56.447z M241.93,233.858H8.071V72.588H241.93V233.858z"/>
	</g>
</g>
<g>
	<g>
		<path fill="#FFFFFF" d="M173.376,88.681H44.34c-11.122,0-20.177,9.055-20.177,20.177v88.681
			c0.049,11.172,9.055,20.178,20.177,20.178h129.036c11.122,0,20.177-9.055,20.177-20.178v-88.681
			C193.553,97.736,184.498,88.681,173.376,88.681z M185.482,197.539c0,6.693-5.414,12.106-12.106,12.106H44.34
			c-6.693,0-12.106-5.413-12.106-12.106v-88.681c0-6.693,5.413-12.106,12.106-12.106h129.036c6.692,0,12.106,5.414,12.106,12.106
			V197.539L185.482,197.539z"/>
	</g>
</g>
<g>
	<g>
		<path fill="#FFFFFF" d="M217.766,96.752c-8.907,0-16.142,7.234-16.142,16.142c0,8.908,7.234,16.142,16.142,16.142
			c8.908,0,16.142-7.234,16.142-16.142C233.907,103.986,226.674,96.752,217.766,96.752z M217.766,120.964
			c-4.43,0-8.07-3.592-8.07-8.071c0-4.429,3.592-8.071,8.07-8.071c4.43,0,8.07,3.593,8.07,8.071
			C225.836,117.323,222.244,120.964,217.766,120.964z"/>
	</g>
</g>
<g>
	<g>
		<path fill="#FFFFFF" d="M201.624,137.106v40.306h32.234v-40.306H201.624z M225.787,169.341h-16.142v-24.163h16.142V169.341z"/>
	</g>
</g>
<g>
	<g>
		<rect x="205.66" y="185.482" fill="#FFFFFF" width="8.07" height="8.07"/>
	</g>
</g>
<g>
	<g>
		<rect x="221.752" y="185.482" fill="#FFFFFF" width="8.07" height="8.07"/>
	</g>
</g>
<g>
	<g>
		<rect x="205.66" y="201.624" fill="#FFFFFF" width="8.07" height="8.071"/>
	</g>
</g>
<g>
	<g>
		<rect x="221.752" y="201.624" fill="#FFFFFF" width="8.07" height="8.071"/>
	</g>
</g>
</svg>
