<?xml version="1.0" encoding="utf-8"?>
<!-- Generator: Adobe Illustrator 16.0.0, SVG Export Plug-In . SVG Version: 6.00 Build 0)  -->
<!DOCTYPE svg PUBLIC "-//W3C//DTD SVG 1.1//EN" "http://www.w3.org/Graphics/SVG/1.1/DTD/svg11.dtd">
<svg version="1.1" id="Capa_1" xmlns="http://www.w3.org/2000/svg" xmlns:xlink="http://www.w3.org/1999/xlink" x="0px" y="0px"
	 width="250px" height="250px" viewBox="0 0 250 250" enable-background="new 0 0 250 250" xml:space="preserve">
<g>
	<g>
		<path fill="#FFFFFF" d="M220.633,44.516l-8.334-25c-0.721-2.185-3.078-3.371-5.264-2.649c-0.195,0.064-0.385,0.144-0.569,0.236
			l-24.999,12.5c-2.061,1.029-2.896,3.532-1.867,5.591c1.029,2.06,3.532,2.896,5.592,1.867l13.616-6.808
			C162.975,95.787,97.625,137.499,29.167,137.499v8.333c72.408,0,141.407-44.516,178.37-114.208l5.179,15.525
			c0.728,2.186,3.089,3.369,5.274,2.642C220.177,49.064,221.359,46.702,220.633,44.516z"/>
	</g>
</g>
<g>
	<g>
		<path fill="#FFFFFF" d="M245.832,0H4.167C1.867,0,0.001,1.866,0.001,4.167v187.499c0,2.302,1.866,4.167,4.167,4.167h73.524
			l-15,48.774c-0.677,2.2,0.558,4.532,2.758,5.208c2.2,0.677,4.532-0.559,5.208-2.758l8.063-26.225h92.558l8.07,26.225
			c0.677,2.199,3.008,3.435,5.208,2.758c2.2-0.676,3.435-3.008,2.759-5.208l-15.008-48.774h73.523c2.301,0,4.167-1.865,4.167-4.167
			V4.167C249.999,1.866,248.133,0,245.832,0z M81.284,212.498l5.129-16.666h77.175l5.129,16.666H81.284z M241.666,187.498H8.334
			V8.333h233.332V187.498z"/>
	</g>
</g>
<g>
	<g>
		<path fill="#FFFFFF" d="M50,154.166H33.334c-2.301,0-4.167,1.865-4.167,4.166v16.666c0,2.302,1.866,4.167,4.167,4.167H50
			c2.301,0,4.167-1.865,4.167-4.167v-16.666C54.167,156.031,52.302,154.166,50,154.166z M45.834,170.832h-8.333v-8.334h8.333
			V170.832z"/>
	</g>
</g>
<g>
	<g>
		<path fill="#FFFFFF" d="M91.667,145.832H75c-2.301,0-4.167,1.865-4.167,4.167v24.999c0,2.302,1.865,4.167,4.167,4.167h16.667
			c2.301,0,4.167-1.865,4.167-4.167v-24.999C95.833,147.697,93.968,145.832,91.667,145.832z M87.5,170.832h-8.333v-16.666H87.5
			V170.832z"/>
	</g>
</g>
<g>
	<g>
		<path fill="#FFFFFF" d="M133.334,129.166h-16.667c-2.301,0-4.167,1.865-4.167,4.166v41.666c0,2.302,1.866,4.167,4.167,4.167
			h16.667c2.301,0,4.166-1.865,4.166-4.167v-41.666C137.5,131.031,135.635,129.166,133.334,129.166z M129.166,170.832h-8.333
			v-33.333h8.333V170.832z"/>
	</g>
</g>
<g>
	<g>
		<path fill="#FFFFFF" d="M175,104.166h-16.667c-2.301,0-4.167,1.865-4.167,4.167v66.666c0,2.302,1.866,4.167,4.167,4.167H175
			c2.301,0,4.166-1.865,4.166-4.167v-66.666C179.166,106.031,177.301,104.166,175,104.166z M170.833,170.832H162.5v-58.333h8.333
			V170.832z"/>
	</g>
</g>
<g>
	<g>
		<path fill="#FFFFFF" d="M216.666,58.333H200c-2.302,0-4.167,1.865-4.167,4.167v112.499c0,2.302,1.865,4.167,4.167,4.167h16.666
			c2.301,0,4.166-1.865,4.166-4.167V62.5C220.832,60.198,218.967,58.333,216.666,58.333z M212.5,170.832h-8.334V66.666h8.334
			V170.832z"/>
	</g>
</g>
</svg>
