<?xml version="1.0" encoding="utf-8"?>
<!-- Generator: Adobe Illustrator 16.0.0, SVG Export Plug-In . SVG Version: 6.00 Build 0)  -->
<!DOCTYPE svg PUBLIC "-//W3C//DTD SVG 1.1//EN" "http://www.w3.org/Graphics/SVG/1.1/DTD/svg11.dtd">
<svg version="1.1" id="Capa_1" xmlns="http://www.w3.org/2000/svg" xmlns:xlink="http://www.w3.org/1999/xlink" x="0px" y="0px"
	 width="250px" height="250px" viewBox="0 0 250 250" enable-background="new 0 0 250 250" xml:space="preserve">
<g>
	<g>
		<g>
			<path fill="#FFFFFF" d="M198.209,32.755h-22.617V22.637c0-3.274-3.571-4.762-6.845-4.762h-17.558
				C147.023,5.971,136.607,0.02,124.703,0.02c-11.773-0.443-22.481,6.776-26.486,17.855h-17.26c-3.274,0-6.547,1.488-6.547,4.762
				v10.118H51.792C38.388,32.897,27.423,43.471,26.793,56.86v170.523c0,13.094,11.904,22.617,24.999,22.617h146.417
				c13.094,0,24.998-9.523,24.998-22.617V56.86C222.576,43.471,211.611,32.897,198.209,32.755z M86.313,29.779h16.368
				c2.857-0.348,5.152-2.522,5.655-5.356c1.762-7.675,8.496-13.185,16.368-13.392c7.799,0.236,14.432,5.763,16.07,13.392
				c0.533,2.932,2.98,5.134,5.951,5.356h16.963v23.808H86.313V29.779z M211.303,227.383c0,6.547-6.547,10.713-13.094,10.713H51.792
				c-6.547,0-13.095-4.166-13.095-10.713V56.86c0.607-6.815,6.253-12.077,13.095-12.201h22.617v15.177
				c0.314,3.334,3.202,5.829,6.547,5.655h87.791c3.406,0.186,6.385-2.274,6.845-5.655V44.659h22.617
				c6.841,0.125,12.487,5.386,13.095,12.201V227.383L211.303,227.383z"/>
			<path fill="#FFFFFF" d="M102.085,133.045c-2.232-2.354-5.938-2.486-8.333-0.297L74.706,150.9l-8.035-8.332
				c-2.232-2.354-5.938-2.486-8.333-0.298c-2.305,2.415-2.305,6.215,0,8.63l12.201,12.5c1.056,1.182,2.582,1.836,4.167,1.785
				c1.57-0.021,3.067-0.664,4.166-1.785l23.212-22.022c2.301-2.11,2.455-5.688,0.343-7.989
				C102.319,133.27,102.205,133.154,102.085,133.045z"/>
			<path fill="#FFFFFF" d="M187.495,145.842h-68.447c-3.287,0-5.952,2.664-5.952,5.951s2.665,5.952,5.952,5.952h68.447
				c3.288,0,5.952-2.665,5.952-5.952S190.783,145.842,187.495,145.842z"/>
			<path fill="#FFFFFF" d="M102.085,85.43c-2.232-2.353-5.938-2.486-8.333-0.297l-19.046,18.153l-8.035-8.333
				c-2.232-2.353-5.938-2.485-8.333-0.297c-2.305,2.415-2.305,6.215,0,8.63l12.201,12.499c1.056,1.183,2.582,1.837,4.167,1.786
				c1.57-0.022,3.067-0.664,4.166-1.786l23.212-22.021c2.301-2.111,2.455-5.688,0.343-7.989
				C102.319,85.653,102.205,85.539,102.085,85.43z"/>
			<path fill="#FFFFFF" d="M187.495,98.226h-68.447c-3.287,0-5.952,2.665-5.952,5.952c0,3.288,2.665,5.952,5.952,5.952h68.447
				c3.288,0,5.952-2.665,5.952-5.952C193.447,100.891,190.783,98.226,187.495,98.226z"/>
			<path fill="#FFFFFF" d="M102.085,180.66c-2.232-2.354-5.938-2.485-8.333-0.298l-19.046,18.153l-8.035-8.333
				c-2.232-2.353-5.938-2.485-8.333-0.298c-2.305,2.416-2.305,6.216,0,8.631l12.201,12.499c1.056,1.183,2.582,1.837,4.167,1.786
				c1.57-0.022,3.067-0.664,4.166-1.786l23.212-22.022c2.301-2.11,2.455-5.688,0.343-7.988
				C102.319,180.885,102.205,180.77,102.085,180.66z"/>
			<path fill="#FFFFFF" d="M187.495,193.457h-68.447c-3.287,0-5.952,2.664-5.952,5.951c0,3.288,2.665,5.953,5.952,5.953h68.447
				c3.288,0,5.952-2.665,5.952-5.953C193.447,196.121,190.783,193.457,187.495,193.457z"/>
		</g>
	</g>
</g>
</svg>
