<?xml version="1.0" encoding="utf-8"?>
<!-- Generator: Adobe Illustrator 16.0.0, SVG Export Plug-In . SVG Version: 6.00 Build 0)  -->
<!DOCTYPE svg PUBLIC "-//W3C//DTD SVG 1.1//EN" "http://www.w3.org/Graphics/SVG/1.1/DTD/svg11.dtd">
<svg version="1.1" id="Layer_1" xmlns="http://www.w3.org/2000/svg" xmlns:xlink="http://www.w3.org/1999/xlink" x="0px" y="0px"
	 width="512px" height="512px" viewBox="0 0 512 512" enable-background="new 0 0 512 512" xml:space="preserve">
<path fill="#F9F9F9" d="M17.067,232.533v46.934c0,4.713-3.821,8.533-8.534,8.533C3.821,288,0,284.18,0,279.467v-46.934
	C0,227.821,3.821,224,8.533,224C13.246,224,17.067,227.821,17.067,232.533z M503.467,224c-4.713,0-8.533,3.821-8.533,8.533v46.934
	c0,4.713,3.82,8.533,8.533,8.533s8.533-3.82,8.533-8.533v-46.934C512,227.821,508.18,224,503.467,224z M279.467,494.934h-46.934
	c-4.712,0-8.533,3.82-8.533,8.533s3.821,8.533,8.533,8.533h46.934c4.713,0,8.533-3.82,8.533-8.533S284.18,494.934,279.467,494.934z
	 M232.533,17.067h46.934c4.713,0,8.533-3.821,8.533-8.534C288,3.821,284.18,0,279.467,0h-46.934C227.821,0,224,3.821,224,8.533
	C224,13.246,227.821,17.067,232.533,17.067z M183.136,156.065c4.712,0,8.533-3.821,8.533-8.533s-3.821-8.533-8.533-8.533
	c-32.457,0-58.861,26.404-58.861,58.861s26.404,58.861,58.861,58.861c50.148,0,77.047-58.89,44.969-96.84
	c-3.043-3.6-8.425-4.052-12.025-1.008c-3.599,3.042-4.05,8.426-1.008,12.024c22.739,26.901,3.712,68.756-31.935,68.756
	c-23.045,0-41.794-18.749-41.794-41.794C141.343,174.814,160.091,156.065,183.136,156.065z M326.064,161.905
	c11.619,0,21.07,9.452,21.07,21.071c0,4.712,3.821,8.533,8.533,8.533c4.713,0,8.533-3.821,8.533-8.533
	c0-21.029-17.107-38.138-38.137-38.138s-38.139,17.108-38.139,38.138s17.109,38.138,38.139,38.138c4.712,0,8.533-3.821,8.533-8.534
	c0-4.712-3.821-8.533-8.533-8.533c-11.62,0-21.071-9.452-21.071-21.071S314.444,161.905,326.064,161.905z M192.845,304.702
	c16.676,0,30.243,13.567,30.243,30.243s-13.567,30.243-30.243,30.243s-30.243-13.567-30.243-30.243S176.168,304.702,192.845,304.702
	z M192.845,321.769c-7.266,0-13.176,5.91-13.176,13.177c0,7.266,5.911,13.176,13.176,13.176s13.177-5.91,13.177-13.176
	C206.021,327.679,200.11,321.769,192.845,321.769z M263.256,321.13c0,32.456,26.404,58.86,58.86,58.86
	c32.457,0,58.861-26.404,58.861-58.86c0-4.713-3.821-8.534-8.534-8.534c-4.712,0-8.533,3.821-8.533,8.534
	c0,23.044-18.748,41.794-41.794,41.794s-41.794-18.749-41.794-41.794c0-35.186,40.983-54.471,68.097-32.48
	c3.661,2.969,9.034,2.407,12.004-1.252c2.968-3.661,2.407-9.034-1.253-12.003C320.989,244.427,263.256,271.56,263.256,321.13
	L263.256,321.13z M470.4,247.467h-21.532c-2.047-46.81-20.833-89.344-50.517-121.75l15.287-15.288c3.332-3.332,3.332-8.735,0-12.067
	c-3.332-3.332-8.735-3.333-12.068,0.001l-15.285,15.286c-32.406-29.683-74.942-48.47-121.752-50.516V41.6
	c0-4.712-3.82-8.533-8.533-8.533c-4.712,0-8.533,3.821-8.533,8.533v21.545c-29.217,1.296-57.92,9.199-83.5,23.096
	c-4.141,2.249-5.674,7.43-3.425,11.572c2.25,4.141,7.429,5.675,11.572,3.424C197.688,87.344,226.695,80,256,80
	c97.047,0,176,78.954,176,176c0,4.713,3.821,8.533,8.533,8.533H470.4c4.712,0,8.533-3.82,8.533-8.533
	C478.934,251.288,475.112,247.467,470.4,247.467z M70.456,103.643l33.187-33.187c3.333-3.333,3.333-8.736,0-12.068
	c-3.332-3.331-8.735-3.331-12.067,0L58.387,91.574c-3.333,3.333-3.333,8.736,0,12.068C61.721,106.975,67.122,106.974,70.456,103.643
	z M441.545,408.357l-33.188,33.188c-5.394,5.393-1.5,14.567,6.034,14.567c2.184,0,4.368-0.833,6.034-2.499l33.188-33.188
	c3.333-3.333,3.333-8.736,0-12.068C450.28,405.026,444.877,405.026,441.545,408.357L441.545,408.357z M70.456,408.357
	c-3.333-3.33-8.735-3.331-12.067,0c-3.333,3.332-3.333,8.735,0,12.068l33.188,33.188c3.333,3.332,8.735,3.331,12.067,0
	c3.333-3.333,3.333-8.735,0-12.068L70.456,408.357z M441.545,103.643c1.666,1.666,3.85,2.5,6.034,2.5
	c7.531,0,11.427-9.173,6.034-14.568l-33.188-33.187c-3.332-3.33-8.735-3.331-12.067,0c-3.333,3.333-3.333,8.735,0,12.068
	L441.545,103.643z M413.638,413.639c3.332-3.332,3.333-8.735,0-12.067l-15.186-15.185c18.533-20.184,32.529-44.073,41.145-70.503
	c1.462-4.481-0.987-9.298-5.468-10.759c-4.479-1.462-9.297,0.988-10.757,5.469C400.249,381.531,333.902,432,256,432
	c-97.046,0-176-78.953-176-176c0-47.011,18.307-91.208,51.549-124.45c3.332-3.333,3.333-8.735,0-12.068
	c-0.01-0.008-21.109-21.109-21.118-21.119c-3.333-3.333-8.735-3.333-12.068-0.001c-3.333,3.332-3.333,8.735,0,12.067l15.222,15.224
	c-30.805,33.587-48.489,76.283-50.458,121.814H41.6c-4.712,0-8.533,3.821-8.533,8.533c0,4.713,3.821,8.533,8.533,8.533h21.532
	c2.047,46.81,20.833,89.344,50.516,121.75l-15.286,15.288c-5.393,5.393-1.498,14.566,6.034,14.566c2.184,0,4.368-0.833,6.034-2.5
	l15.286-15.287c32.405,29.684,74.941,48.471,121.75,50.517V470.4c0,4.712,3.821,8.533,8.533,8.533c4.712,0,8.533-3.821,8.533-8.533
	v-21.523c46.727-2.015,89.001-20.483,121.827-50.449l15.209,15.21C404.902,416.971,410.304,416.971,413.638,413.639L413.638,413.639
	z"/>
</svg>
