<?xml version="1.0" encoding="utf-8"?>
<!-- Generator: Adobe Illustrator 16.0.0, SVG Export Plug-In . SVG Version: 6.00 Build 0)  -->
<!DOCTYPE svg PUBLIC "-//W3C//DTD SVG 1.1//EN" "http://www.w3.org/Graphics/SVG/1.1/DTD/svg11.dtd">
<svg version="1.1" id="Capa_1" xmlns="http://www.w3.org/2000/svg" xmlns:xlink="http://www.w3.org/1999/xlink" x="0px" y="0px"
	 width="250px" height="250px" viewBox="0 0 250 250" enable-background="new 0 0 250 250" xml:space="preserve">
<g>
	<g>
		<path fill="#FFFFFF" d="M233.329,4.167H16.671C7.479,4.167,0,11.646,0,20.837v137.496c0,2.3,1.867,4.167,4.167,4.167h241.667
			c2.3,0,4.167-1.867,4.167-4.167V20.837C250,11.646,242.521,4.167,233.329,4.167z M241.666,154.166H8.333V20.837
			c0-4.6,3.742-8.337,8.337-8.337h216.658c4.596,0,8.337,3.737,8.337,8.337V154.166z"/>
	</g>
</g>
<g>
	<g>
		<path fill="#FFFFFF" d="M245.834,154.166H4.167c-2.3,0-4.167,1.867-4.167,4.167v20.829c0,9.191,7.479,16.671,16.671,16.671
			h216.658c9.192,0,16.671-7.479,16.671-16.671v-20.829C250,156.033,248.133,154.166,245.834,154.166z M241.666,179.162
			c0,4.601-3.741,8.338-8.337,8.338H16.671c-4.596,0-8.337-3.737-8.337-8.338V162.5h233.333L241.666,179.162L241.666,179.162z"/>
	</g>
</g>
<g>
	<g>
		<path fill="#FFFFFF" d="M137.5,170.834h-25c-2.3,0-4.167,1.866-4.167,4.166s1.867,4.166,4.167,4.166h25
			c2.3,0,4.166-1.866,4.166-4.166S139.8,170.834,137.5,170.834z"/>
	</g>
</g>
<g>
	<g>
		<path fill="#FFFFFF" d="M229.166,20.833H20.833c-2.3,0-4.167,1.867-4.167,4.167v133.334c0,2.299,1.867,4.166,4.167,4.166h208.333
			c2.3,0,4.167-1.867,4.167-4.166V25C233.334,22.7,231.467,20.833,229.166,20.833z M225,154.166H25v-125h200V154.166L225,154.166z"
			/>
	</g>
</g>
<g>
	<g>
		<path fill="#FFFFFF" d="M179.166,220.834H70.833c-6.892,0-12.5,5.607-12.5,12.5c0,6.891,5.608,12.5,12.5,12.5h108.333
			c6.892,0,12.5-5.609,12.5-12.5C191.667,226.441,186.059,220.834,179.166,220.834z M179.166,237.5H70.833
			c-2.3,0-4.167-1.871-4.167-4.166c0-2.297,1.867-4.167,4.167-4.167h108.333c2.3,0,4.167,1.87,4.167,4.167
			C183.334,235.629,181.467,237.5,179.166,237.5z"/>
	</g>
</g>
<g>
	<g>
		<path fill="#FFFFFF" d="M170.834,220.834c-13.826,0-20.834-9.813-20.834-29.167c0-2.3-1.867-4.167-4.166-4.167h-41.667
			c-2.3,0-4.167,1.867-4.167,4.167c0,19.354-7.008,29.167-20.833,29.167c-2.3,0-4.167,1.866-4.167,4.166s1.867,4.166,4.167,4.166
			h91.667c2.299,0,4.166-1.866,4.166-4.166S173.133,220.834,170.834,220.834z M99.462,220.834c5.129-5.684,8.15-14.146,8.758-25
			h33.563c0.604,10.854,3.625,19.316,8.758,25H99.462z"/>
	</g>
</g>
<g>
	<g>
		<path fill="#FFFFFF" d="M199.1,126.934l-10.058-10.059l5.596-5.596c1.038-1.038,1.454-2.546,1.096-3.967s-1.438-2.546-2.842-2.971
			l-41.667-12.5c-1.471-0.442-3.058-0.038-4.141,1.046c-1.088,1.083-1.488,2.675-1.047,4.142l12.5,41.666
			c0.422,1.408,1.551,2.488,2.971,2.846c1.417,0.351,2.93-0.059,3.967-1.096l5.893-5.896l10.058,10.063
			c0.779,0.783,1.842,1.221,2.946,1.221c1.104,0,2.166-0.438,2.945-1.221l11.783-11.788
			C200.729,131.195,200.729,128.563,199.1,126.934z M184.371,135.775l-9.158-9.163c-1.063-1.063-2.455-1.592-3.846-1.592
			c-1.396,0-2.788,0.533-3.846,1.587l-3.009,3.009l-8.271-27.571l27.57,8.271l-3.225,3.225c-0.889,0.892-1.375,2.075-1.375,3.333
			c0,1.263,0.491,2.454,1.383,3.337l9.666,9.667L184.371,135.775z"/>
	</g>
</g>
<g>
	<g>
		<path fill="#FFFFFF" d="M175,37.5H58.333c-2.3,0-4.167,1.867-4.167,4.167V62.5c0,2.3,1.867,4.167,4.167,4.167H175
			c2.3,0,4.166-1.867,4.166-4.167V41.667C179.166,39.367,177.3,37.5,175,37.5z M170.834,58.333H62.5v-12.5h108.334V58.333z"/>
	</g>
</g>
<g>
	<g>
		<path fill="#FFFFFF" d="M108.333,83.333H75c-2.3,0-4.167,1.867-4.167,4.167v16.667c0,2.3,1.867,4.167,4.167,4.167h33.333
			c2.3,0,4.167-1.867,4.167-4.167V87.5C112.5,85.2,110.633,83.333,108.333,83.333z M104.167,100h-25v-8.333h25V100z"/>
	</g>
</g>
<g>
	<g>
		<path fill="#FFFFFF" d="M175,37.5H58.333c-2.3,0-4.167,1.867-4.167,4.167v79.167c0,2.3,1.867,4.167,4.167,4.167h99.192
			c1.32,0,2.559-0.621,3.342-1.679c0.787-1.058,1.029-2.425,0.65-3.688l-5.275-17.587l17.563,5.271
			c1.263,0.379,2.629,0.138,3.684-0.65c1.058-0.783,1.679-2.025,1.679-3.342V41.667C179.166,39.367,177.3,37.5,175,37.5z
			 M170.834,97.725l-19.613-5.883c-1.471-0.442-3.059-0.038-4.142,1.046c-1.087,1.087-1.487,2.675-1.046,4.146l5.892,19.633H62.5
			V45.833h108.334V97.725z"/>
	</g>
</g>
</svg>
