<svg id="Capa_1" enable-background="new 0 0 512 512" height="512" viewBox="0 0 512 512" width="512" xmlns="http://www.w3.org/2000/svg"><g><path d="m442.543 478.86h-373.086c-11.645 0-21.085-9.44-21.085-21.085v-115.287h415.257v115.287c-.001 11.645-9.441 21.085-21.086 21.085z" fill="#fae0bd"/><path d="m18.937 395.081v-297.141c0-29.472 23.891-53.363 53.363-53.363h367.4c29.471 0 53.363 23.891 53.363 53.363v267.881c0 29.472-23.891 53.363-53.363 53.363h-396.661c-13.311 0-24.102-10.792-24.102-24.103z" fill="#a0e7e7"/><path d="m156.086 329.409h-137.149v65.672c0 13.312 10.791 24.103 24.102 24.103h128.893c-12.939-19.237-18.519-56.554-15.846-77.58z" fill="#8ed2e2"/><path d="m7.5 79.448v248.276c0 9.812 7.954 17.765 17.765 17.765h265.758c9.812 0 17.765 7.954 17.765 17.765v49.601c0 9.812 7.954 17.765 17.766 17.765h131.638c25.575 0 46.308-20.733 46.308-46.308v-304.864c0-25.575-20.733-46.308-46.308-46.308h-404.384c-25.575 0-46.308 20.733-46.308 46.308z" fill="#fcf2d0"/><path d="m53.808 33.14c-25.575 0-46.308 20.733-46.308 46.308v248.275c0 9.811 7.954 17.765 17.765 17.765h178.608c-59.309-55.269-70.799-182.982-68.096-312.349h-81.969z" fill="#fae0bd"/><path d="m447.961 299.677h-383.922c-9.118 0-16.511-7.392-16.511-16.51v-193.488c0-9.118 7.392-16.511 16.511-16.511h383.922c9.119 0 16.511 7.392 16.511 16.511v193.488c0 9.118-7.392 16.51-16.511 16.51z" fill="#4e5660"/><path d="m135.432 73.168h-71.393c-9.118 0-16.511 7.392-16.511 16.511v193.488c0 9.118 7.392 16.51 16.511 16.51h107.486c-27.155-56.648-35.69-139.512-36.093-226.509z" fill="#3a4351"/><circle cx="413.545" cy="365.149" fill="#a0e7e7" r="27.567"/><path d="m297.613 266.728c-3.097 0-6.008-1.206-8.198-3.396l-42.14-42.14-23.327 23.326c-3.251 3.25-7.573 5.04-12.169 5.04h-26.103c-.59 0-1.145.23-1.562.646l-12.819 12.818c-2.188 2.189-5.1 3.396-8.197 3.396s-6.009-1.206-8.198-3.396l-37.415-37.415-18.911 18.911c-3.252 3.25-7.573 5.04-12.169 5.04h-38.877v-15h38.879c.582 0 1.151-.236 1.563-.647l21.32-21.32c2.188-2.189 5.1-3.396 8.197-3.396s6.008 1.206 8.198 3.396l37.416 37.415 10.408-10.408c3.249-3.25 7.571-5.04 12.169-5.04h26.103c.581 0 1.151-.236 1.563-.647l25.735-25.735c2.189-2.189 5.1-3.395 8.197-3.395s6.009 1.206 8.198 3.396l42.14 42.14 10.718-10.718c3.249-3.25 7.571-5.04 12.169-5.04h28.734v15h-28.735c-.59 0-1.145.23-1.561.646l-13.128 13.128c-2.189 2.189-5.101 3.395-8.198 3.395z" fill="#a0e7e7"/><path d="m341.734 73.168h15v226.509h-15z" fill="#fff"/><ellipse cx="406.853" cy="242.058" fill="#a0e7e7" rx="23.986" ry="23.986" transform="matrix(.16 -.987 .987 .16 102.75 604.885)"/><ellipse cx="406.853" cy="142.807" fill="#eda1ab" rx="23.986" ry="23.986" transform="matrix(.924 -.383 .383 .924 -23.68 166.567)"/><g><g fill="#eda1ab"><ellipse cx="118.825" cy="158.166" rx="29.355" ry="23.377"/><ellipse cx="277.938" cy="158.166" rx="29.355" ry="23.377"/></g><g fill="#fff"><path d="m135.933 143.163c-4.142 0-7.5-3.357-7.5-7.5v-12c0-4.143 3.358-7.5 7.5-7.5s7.5 3.357 7.5 7.5v12c0 4.143-3.358 7.5-7.5 7.5z"/><path d="m260.83 143.163c-4.142 0-7.5-3.357-7.5-7.5v-12c0-4.143 3.358-7.5 7.5-7.5s7.5 3.357 7.5 7.5v12c0 4.143-3.358 7.5-7.5 7.5z"/><path d="m198.381 150.307c-8.478 0-16.54-3.672-22.119-10.073-2.721-3.123-2.396-7.86.727-10.582 3.123-2.721 7.86-2.396 10.582.727 2.729 3.133 6.669 4.929 10.81 4.929s8.081-1.796 10.81-4.929c2.722-3.123 7.459-3.447 10.582-.727 3.123 2.722 3.448 7.459.727 10.582-5.579 6.401-13.641 10.073-22.119 10.073z"/></g></g><path d="m227.046 374.836h-20.738c-4.142 0-7.5 3.357-7.5 7.5s3.358 7.5 7.5 7.5h20.738c4.142 0 7.5-3.357 7.5-7.5s-3.358-7.5-7.5-7.5zm231.146-349.196h-15.513c-4.142 0-7.5 3.358-7.5 7.5 0 4.143 3.358 7.5 7.5 7.5h15.513c21.399 0 38.808 17.409 38.808 38.807v304.865c0 21.398-17.409 38.808-38.808 38.808h-131.637c-5.661 0-10.266-4.605-10.266-10.266v-49.601c0-13.932-11.334-25.266-25.265-25.266h-265.758c-5.661 0-10.266-4.605-10.266-10.265v-248.275c0-21.398 17.409-38.807 38.808-38.807h350.84c4.142 0 7.5-3.357 7.5-7.5 0-4.142-3.358-7.5-7.5-7.5h-350.84c-29.67 0-53.808 24.137-53.808 53.807v248.276c0 8.829 4.556 16.61 11.437 21.129v46.229c0 16.697 13.017 30.401 29.435 31.52v31.174c0 15.762 12.823 28.585 28.585 28.585h18.989c4.142 0 7.5-3.358 7.5-7.5 0-4.143-3.358-7.5-7.5-7.5h-18.99c-7.491 0-13.585-6.094-13.585-13.585v-31.092h249.554c4.519 6.881 12.3 11.436 21.129 11.436h129.574v19.655c0 7.491-6.094 13.585-13.585 13.585h-317.92c-4.142 0-7.5 3.357-7.5 7.5 0 4.142 3.358 7.5 7.5 7.5h317.92c15.762 0 28.585-12.823 28.585-28.585v-21.238c23.441-5.806 40.872-27.013 40.872-52.223v-304.866c0-29.67-24.138-53.807-53.808-53.807zm-156.903 386.044h-258.25c-9.154 0-16.602-7.448-16.602-16.603v-42.093h264.587c5.66 0 10.265 4.605 10.265 10.266zm-195.425-36.848h-20.738c-4.142 0-7.5 3.357-7.5 7.5s3.358 7.5 7.5 7.5h20.738c4.142 0 7.5-3.357 7.5-7.5s-3.358-7.5-7.5-7.5zm60.591 0h-20.738c-4.142 0-7.5 3.357-7.5 7.5s3.358 7.5 7.5 7.5h20.738c4.142 0 7.5-3.357 7.5-7.5s-3.358-7.5-7.5-7.5zm247.09-44.755c-19.336 0-35.067 15.731-35.067 35.067s15.731 35.067 35.067 35.067 35.067-15.731 35.067-35.067c0-19.335-15.731-35.067-35.067-35.067zm0 55.135c-11.065 0-20.067-9.002-20.067-20.067s9.002-20.067 20.067-20.067 20.067 9.002 20.067 20.067-9.002 20.067-20.067 20.067zm58.427-102.05v-193.487c0-13.239-10.771-24.011-24.011-24.011h-383.922c-13.24 0-24.011 10.771-24.011 24.011v193.487c0 13.239 10.771 24.011 24.011 24.011h383.922c13.24 0 24.011-10.772 24.011-24.011zm-15 0c0 4.969-4.042 9.011-9.011 9.011h-383.922c-4.969 0-9.011-4.042-9.011-9.011v-193.487c0-4.969 4.042-9.011 9.011-9.011h383.922c4.969 0 9.011 4.042 9.011 9.011zm-50.119-72.594c-17.362 0-31.486 14.125-31.486 31.486s14.125 31.486 31.486 31.486c17.362 0 31.486-14.125 31.486-31.486s-14.124-31.486-31.486-31.486zm0 47.973c-9.091 0-16.486-7.395-16.486-16.486s7.396-16.486 16.486-16.486 16.486 7.396 16.486 16.486-7.395 16.486-16.486 16.486zm0-147.225c-17.362 0-31.486 14.125-31.486 31.486s14.125 31.486 31.486 31.486c17.362 0 31.486-14.125 31.486-31.486s-14.124-31.486-31.486-31.486zm0 47.973c-9.091 0-16.486-7.395-16.486-16.486s7.396-16.486 16.486-16.486 16.486 7.396 16.486 16.486c0 9.091-7.395 16.486-16.486 16.486z"/></g></svg>