<?xml version="1.0"?>
<svg xmlns="http://www.w3.org/2000/svg" xmlns:xlink="http://www.w3.org/1999/xlink" version="1.1" id="Capa_1" x="0px" y="0px" viewBox="0 0 512 512" style="enable-background:new 0 0 512 512;" xml:space="preserve" width="512px" height="512px"><g><g>
	<g>
		<path d="M490.305,416.542H21.695c-4.79,0-8.678,3.888-8.678,8.678v78.102c0,4.79,3.888,8.678,8.678,8.678h468.61    c4.79,0,8.678-3.888,8.678-8.678V425.22C498.983,420.43,495.095,416.542,490.305,416.542z M481.627,494.644H30.373v-60.746    h451.254V494.644z" data-original="#000000" class="active-path" data-old_color="#000000" fill="#FFFFFF"/>
	</g>
</g><g>
	<g>
		<path d="M455.593,364.475H56.407c-4.79,0-8.678,3.888-8.678,8.678v52.068c0,4.79,3.888,8.678,8.678,8.678h399.186    c4.79,0,8.678-3.888,8.678-8.678v-52.068C464.271,368.362,460.383,364.475,455.593,364.475z M446.915,416.542H65.085v-34.712    h381.831V416.542z" data-original="#000000" class="active-path" data-old_color="#000000" fill="#FFFFFF"/>
	</g>
</g><g>
	<g>
		<path d="M256,0C165.085,0,91.119,73.967,91.119,164.881v208.271c0,4.79,3.888,8.678,8.678,8.678h312.407    c4.79,0,8.678-3.888,8.678-8.678V164.881C420.881,73.967,346.915,0,256,0z M403.525,364.475H108.475V164.881    c0-81.347,66.178-147.525,147.525-147.525s147.525,66.178,147.525,147.525V364.475z" data-original="#000000" class="active-path" data-old_color="#000000" fill="#FFFFFF"/>
	</g>
</g><g>
	<g>
		<path d="M308.068,303.729H169.22c-4.79,0-8.678,3.888-8.678,8.678s3.888,8.678,8.678,8.678h138.847    c4.79,0,8.678-3.888,8.678-8.678S312.858,303.729,308.068,303.729z" data-original="#000000" class="active-path" data-old_color="#000000" fill="#FFFFFF"/>
	</g>
</g><g>
	<g>
		<path d="M282.034,269.017H169.22c-4.79,0-8.678,3.888-8.678,8.678c0,4.79,3.888,8.678,8.678,8.678h112.814    c4.79,0,8.678-3.888,8.678-8.678C290.712,272.905,286.824,269.017,282.034,269.017z" data-original="#000000" class="active-path" data-old_color="#000000" fill="#FFFFFF"/>
	</g>
</g><g>
	<g>
		<path d="M334.102,234.305H169.22c-4.79,0-8.678,3.888-8.678,8.678c0,4.79,3.888,8.678,8.678,8.678h164.881    c4.79,0,8.678-3.888,8.678-8.678C342.78,238.193,338.892,234.305,334.102,234.305z" data-original="#000000" class="active-path" data-old_color="#000000" fill="#FFFFFF"/>
	</g>
</g><g>
	<g>
		<path d="M316.746,86.78H195.254c-4.79,0-8.678,3.888-8.678,8.678v112.814c0,4.79,3.888,8.678,8.678,8.678h121.492    c4.79,0,8.678-3.888,8.678-8.678V95.458C325.424,90.667,321.536,86.78,316.746,86.78z M308.068,199.593H203.932v-95.458h104.136    V199.593z" data-original="#000000" class="active-path" data-old_color="#000000" fill="#FFFFFF"/>
	</g>
</g><g>
	<g>
		<path d="M256,112.814c-19.139,0-34.712,15.573-34.712,34.712c0,19.139,15.573,34.712,34.712,34.712s34.712-15.573,34.712-34.712    C290.712,128.386,275.139,112.814,256,112.814z M256,164.881c-9.572,0-17.356-7.784-17.356-17.356    c0-9.572,7.784-17.356,17.356-17.356c9.572,0,17.356,7.784,17.356,17.356C273.356,157.097,265.572,164.881,256,164.881z" data-original="#000000" class="active-path" data-old_color="#000000" fill="#FFFFFF"/>
	</g>
</g><g>
	<g>
		<path d="M264.678,164.881h-17.356c-23.925,0-43.39,19.465-43.39,43.39c0,4.79,3.888,8.678,8.678,8.678h86.78    c4.79,0,8.678-3.888,8.678-8.678C308.068,184.346,288.603,164.881,264.678,164.881z M222.776,199.593    c3.58-10.101,13.234-17.356,24.546-17.356h17.356c11.312,0,20.966,7.255,24.546,17.356H222.776z" data-original="#000000" class="active-path" data-old_color="#000000" fill="#FFFFFF"/>
	</g>
</g></g> </svg>
