<?xml version="1.0" encoding="utf-8"?>
<!-- Generator: Adobe Illustrator 16.0.0, SVG Export Plug-In . SVG Version: 6.00 Build 0)  -->
<!DOCTYPE svg PUBLIC "-//W3C//DTD SVG 1.1//EN" "http://www.w3.org/Graphics/SVG/1.1/DTD/svg11.dtd">
<svg version="1.1" id="Layer_1" xmlns="http://www.w3.org/2000/svg" xmlns:xlink="http://www.w3.org/1999/xlink" x="0px" y="0px"
	 width="121.923px" height="121.54px" viewBox="0 0 121.923 121.54" enable-background="new 0 0 121.923 121.54"
	 xml:space="preserve">
<path fill="#8ED3F4" d="M60.961,0c33.668,0,60.961,27.293,60.961,60.961s-27.293,60.961-60.961,60.961
	C27.294,121.922,0,94.629,0,60.961S27.294,0,60.961,0"/>
<g>
	<defs>
		<path id="SVGID_1_" d="M0,60.961c0,33.668,27.294,60.961,60.961,60.961c33.668,0,60.962-27.293,60.962-60.961S94.629,0,60.961,0
			C27.294,0,0,27.293,0,60.961"/>
	</defs>
	<clipPath id="SVGID_2_">
		<use xlink:href="#SVGID_1_"  overflow="visible"/>
	</clipPath>
	<path clip-path="url(#SVGID_2_)" fill="#F79979" d="M12.076,97.389c0,0,20.449-14.146,34.51-13.084
		c14.062,1.063,19.258-0.063,19.258-0.063h3.176l3.625,0.549c0,0,22.799,7.219,29.151,23.389
		C101.796,108.184,52.704,148.131,12.076,97.389"/>
	<path clip-path="url(#SVGID_2_)" fill="#FCC8AB" d="M41.07,61.314c0,0-5.334-4.405-4.451-7.128c0,0,0.279-2.698,3.064-2.791
		l3.744-8.344l3.605-6.969l3.124-2.404l7.45,1.442l10.895-1.442l5.606-0.481l1.684,1.844l1.255,4.029l1.148,2.797
		c0,0,0.324,13.193,1.483,15l-3.808,11.018l-6.569,6.648l-13.617-3.444L41.748,61.078L41.07,61.314z"/>
	<path clip-path="url(#SVGID_2_)" fill="#A03722" d="M76.928,38.55c0,0,1.711,8.749,1.459,11.271c0,0,2.503-0.6-0.433-12.359
		C76.058,29.854,76.636,37.246,76.928,38.55"/>
	<path clip-path="url(#SVGID_2_)" fill="#A03722" d="M41.115,54.599c0,0-1.392-7.366,3.752-10.422c0,0,1.993-2.044,1.65-5.197
		c0,0,5.483-1.303,11.582,0c0,0,18.065,6.161,21.039-3.908c0,0,2.056-7.264-5.756-11.033c0,0,3.206-6.229-4.482-5.465
		c-0.764,0.076-1.489,0.364-2.098,0.831c-0.976,0.752-2.796,1.892-4.866,1.892v-2.469c0,0-2.262,3.014-12.13,3.702
		c0,0-12.062,0.684-12.062,13.433C37.747,35.963,39.276,55.281,41.115,54.599"/>
	<path clip-path="url(#SVGID_2_)" fill="#FCC8AB" d="M47.986,73.75l-1.375,10.549c0,0-2.193,8.031,13.411,7.576
		c0,0,11.236,0.545,12.647-7.089l-0.269-6.097l-11.7-6.064L47.986,73.75z"/>
	<path clip-path="url(#SVGID_2_)" fill="#E87240" d="M49.357,74.533c0,0,1.577,2.439,2.19,2.749
		c0.549,0.276,8.322,5.49,15.646,5.824c0,0,3.715-0.664,5.185-4.408c1.471-3.744-5.185-4.578-5.185-4.578l-10.205-2.703
		L49.357,74.533z"/>
	<path clip-path="url(#SVGID_2_)" fill="#A03722" d="M73.27,78.13c0,0,9.463-10.705,6.41-21.266
		c-0.079-0.271-0.394-0.24-0.588-0.037c-1.138,1.191-2.78,5.441-6.006,2.76c-0.735-0.611-1.668-0.933-2.624-0.936
		c-3.786-0.008-12.625,0.628-14.008,6.614c0,0-2.4,1.241-6.054-1.094c0,0-13.117-10.861-8.239,1.261c0,0,1.45,5.98,5.802,8.323
		C47.961,73.758,65.268,84.023,73.27,78.13"/>
</g>
<path fill="none" stroke="#47CACC" stroke-width="6.681" stroke-linecap="round" stroke-miterlimit="10" d="M60.963,4.007
	L60.963,4.007c31.467,0,56.976,25.509,56.976,56.976c0,31.466-25.509,56.976-56.976,56.976c-31.468,0-56.977-25.51-56.977-56.976
	C3.986,29.517,29.495,4.007,60.963,4.007z"/>
</svg>
