<?xml version="1.0" encoding="utf-8"?>
<!-- Generator: Adobe Illustrator 16.0.0, SVG Export Plug-In . SVG Version: 6.00 Build 0)  -->
<!DOCTYPE svg PUBLIC "-//W3C//DTD SVG 1.1//EN" "http://www.w3.org/Graphics/SVG/1.1/DTD/svg11.dtd">
<svg version="1.1" id="Layer_1" xmlns="http://www.w3.org/2000/svg" xmlns:xlink="http://www.w3.org/1999/xlink" x="0px" y="0px"
	 width="88.07px" height="88.217px" viewBox="0 0 88.07 88.217" enable-background="new 0 0 88.07 88.217" xml:space="preserve">
<path fill="#FFDAAA" d="M87.174,87.247v-2.484l-8.906-8.231c-0.861-1.727-2.387-8.716-10.728-8.716h-7.589
	c-3.105,0-5.777,2.191-6.387,5.236l-0.199,0.989h-2.489l-4.979-4.98c-2.75-2.75-7.21-2.75-9.96,0l12.45,12.451l22.412,2.489
	l3.511,3.246H87.174z"/>
<path fill="#FFDAAA" d="M0.897,0.97v3.215l9.259,8.556c0.862,1.728,2.387,8.717,10.727,8.717h7.59c3.104,0,5.777-2.191,6.386-5.236
	l0.198-0.989h2.49l4.98,4.98c2.75,2.75,7.209,2.75,9.959,0L40.037,7.761L17.626,5.271L12.971,0.97H0.897z"/>
<path fill="#FFFFFF" d="M40.288,52.919l18.417-17.653c1.543-1.494,1.582-3.957,0.087-5.5s-3.957-1.582-5.5-0.087L35.236,47.416
	l-4.679,0.201l-3.073,2.977l6.172,3.306l3.21,6.667l3.073-2.977L40.288,52.919z"/>
<polygon fill="#FFFFFF" points="47.984,34.821 41.839,40.777 39.195,38.593 28.262,29.56 31.057,26.853 44.637,33.246 "/>
<polygon fill="#FFFFFF" points="60.829,57.58 58.037,60.287 49.368,49.094 47.252,46.362 53.396,40.409 54.872,43.817 "/>
<path fill="#EDC494" d="M44.583,17.288c-1.395-1.395-5.579-5.578-5.579-5.578l-14.747-0.3c-1.487-0.03-2.745,1.095-2.88,2.576
	l10.152,0.923l-0.124,0.621c-0.28,1.398-1.508,2.404-2.933,2.404h-7.59c-4.499,0-5.912-2.642-7.072-5.585
	c-0.174-0.44-0.324-0.821-0.504-1.182l-0.288-0.576L0.896,4.185l9.259,8.557c0.862,1.727,2.387,8.715,10.727,8.715h7.59
	c3.105,0,5.778-2.19,6.386-5.235l0.198-0.989h0.017h0.001h2.472l4.981,4.979c2.75,2.751,7.21,2.751,9.96,0
	C52.486,20.212,48.035,20.74,44.583,17.288"/>
<path fill="#EDC494" d="M79.414,87.09l-6.681-5.905l-22.409-2.49L38.916,67.287c-1.09,0.322-2.119,0.913-2.98,1.773l12.451,12.451
	l22.41,2.489l3.512,3.246h12.865v-0.158L79.414,87.09L79.414,87.09z"/>
<polygon fill="#E0E0E0" points="47.984,34.821 41.839,40.777 39.195,38.593 44.637,33.246 "/>
<polygon fill="#E0E0E0" points="54.873,43.817 49.369,49.094 47.252,46.362 53.397,40.409 "/>
<path d="M41.219,58.188l0.348-4.667l5.486-5.258l10.842,13.998l4.509-4.368l-7.446-17.206l4.667-4.474
	c2.063-1.999,2.115-5.304,0.116-7.366c-1.999-2.064-5.305-2.116-7.374-0.11l-4.603,4.521L30.792,25.27l-4.508,4.369l13.669,11.293
	l-5.28,5.187l-4.675,0.201l-4.732,4.585l7.387,3.956l3.818,7.929L41.219,58.188z M59.254,57.267l-1.078,1.045l-9.205-11.886
	l3.953-3.789L59.254,57.267z M30.241,29.481l1.078-1.045l14.436,6.795l-3.908,3.839L30.241,29.481z M29.702,50.284l1.413-1.37
	l4.685-0.201l18.41-18.086c1.019-0.985,2.647-0.96,3.634,0.058c0.985,1.018,0.961,2.647-0.053,3.628L39.009,52.315L38.66,56.99
	l-1.398,1.355l-2.603-5.407L29.702,50.284z"/>
<path d="M9.305,14.126c1.021,2.589,3.41,8.651,11.578,8.651h7.589c3.696,0,6.909-2.613,7.666-6.226h0.861l4.594,4.595
	c1.58,1.579,3.68,2.448,5.915,2.448c2.233,0,4.334-0.869,5.912-2.448l0.934-0.935L40.643,6.5l-22.44-2.493L13.867,0l-1.792,1.939
	l4.973,4.597L39.43,9.022l11.082,11.081c-2.207,1.359-5.142,1.084-7.051-0.825l-5.366-5.367h-2.979L21.48,12.672l-0.239,2.63
	l12.211,1.11c-0.644,2.184-2.669,3.725-4.98,3.725h-7.59c-6.369,0-8.159-4.54-9.12-6.979c-0.155-0.393-0.289-0.732-0.425-1.006
	l-0.108-0.216L1.793,3.215L0,5.154l9.065,8.378C9.135,13.694,9.216,13.899,9.305,14.126"/>
<path d="M79.357,75.74c-0.068-0.162-0.15-0.367-0.24-0.594c-1.02-2.589-3.41-8.651-11.576-8.651H59.95
	c-3.696,0-6.907,2.613-7.666,6.226h-0.86l-4.594-4.594c-1.58-1.58-3.681-2.449-5.914-2.449c-2.234,0-4.334,0.869-5.914,2.449
	l-0.934,0.934L47.78,82.772l22.44,2.493l3.193,2.951l1.791-1.94l-3.83-3.54L48.992,80.25l-11.08-11.081
	c2.205-1.359,5.14-1.084,7.05,0.826l5.368,5.366h2.978l13.635,1.239l0.239-2.63l-12.211-1.11c0.644-2.183,2.67-3.724,4.979-3.724
	h7.591c6.368,0,8.158,4.54,9.119,6.979c0.155,0.393,0.289,0.731,0.426,1.006l0.107,0.216l9.084,8.396l1.793-1.939L79.357,75.74z"/>
<rect x="65.77" y="19.48" transform="matrix(0.6961 0.7179 -0.7179 0.6961 35.3211 -41.8451)" width="2.642" height="2.641"/>
<rect x="61.977" y="23.158" transform="matrix(0.6961 0.7179 -0.7179 0.6961 36.8088 -38.0044)" width="2.642" height="2.641"/>
<rect x="69.559" y="15.802" transform="matrix(0.6963 0.7177 -0.7177 0.6963 33.8158 -45.6739)" width="2.641" height="2.642"/>
<rect x="80.935" y="4.768" transform="matrix(0.6959 0.7181 -0.7181 0.6959 29.3835 -57.2175)" width="2.641" height="2.64"/>
<rect x="84.727" y="1.088" transform="matrix(0.6965 0.7176 -0.7176 0.6965 27.8449 -61.0137)" width="2.642" height="2.642"/>
<rect x="73.351" y="12.124" transform="matrix(0.6959 0.7181 -0.7181 0.6959 32.3602 -49.5344)" width="2.641" height="2.64"/>
<rect x="77.143" y="8.446" transform="matrix(0.6961 0.7179 -0.7179 0.6961 30.8549 -53.3638)" width="2.642" height="2.64"/>
<rect x="1.427" y="83.244" transform="matrix(-0.6961 -0.7179 0.7179 -0.6961 -56.0498 145.4043)" width="2.642" height="2.641"/>
<rect x="20.386" y="64.857" transform="matrix(-0.6961 -0.7179 0.7179 -0.6961 -10.6933 127.8283)" width="2.642" height="2.641"/>
<rect x="24.179" y="61.179" transform="matrix(-0.6965 -0.7176 0.7176 -0.6965 -1.5894 124.3267)" width="2.64" height="2.641"/>
<rect x="27.969" y="57.502" transform="matrix(-0.6961 -0.7179 0.7179 -0.6961 7.4487 120.7974)" width="2.642" height="2.641"/>
<rect x="16.594" y="68.532" transform="matrix(-0.6961 -0.7179 0.7179 -0.6961 -19.7639 131.3405)" width="2.642" height="2.641"/>
<rect x="9.01" y="75.889" transform="matrix(-0.6961 -0.7179 0.7179 -0.6961 -37.9086 138.3731)" width="2.642" height="2.641"/>
<rect x="12.801" y="72.21" transform="matrix(-0.6961 -0.7179 0.7179 -0.6961 -28.8375 134.8552)" width="2.642" height="2.641"/>
<rect x="5.219" y="79.566" transform="matrix(-0.6961 -0.7179 0.7179 -0.6961 -46.9783 141.8876)" width="2.642" height="2.641"/>
</svg>
