<?xml version="1.0" encoding="utf-8"?>
<!-- Generator: Adobe Illustrator 16.0.0, SVG Export Plug-In . SVG Version: 6.00 Build 0)  -->
<!DOCTYPE svg PUBLIC "-//W3C//DTD SVG 1.1//EN" "http://www.w3.org/Graphics/SVG/1.1/DTD/svg11.dtd">
<svg version="1.1" id="Layer_1" xmlns="http://www.w3.org/2000/svg" xmlns:xlink="http://www.w3.org/1999/xlink" x="0px" y="0px"
	 width="87.554px" height="85.625px" viewBox="0 0 87.554 85.625" enable-background="new 0 0 87.554 85.625" xml:space="preserve">
<g>
	<defs>
		<rect id="SVGID_1_" width="87.554" height="85.625"/>
	</defs>
	<clipPath id="SVGID_2_">
		<use xlink:href="#SVGID_1_"  overflow="visible"/>
	</clipPath>
	<g clip-path="url(#SVGID_2_)">
		<defs>
			<rect id="SVGID_3_" width="87.554" height="85.625"/>
		</defs>
		<clipPath id="SVGID_4_">
			<use xlink:href="#SVGID_3_"  overflow="visible"/>
		</clipPath>
		<path clip-path="url(#SVGID_4_)" fill="#03373D" d="M86.335,72.885c1.533,2.436,1.629,5.405,0.233,7.923
			c-1.382,2.532-3.941,4.037-6.815,4.037H21.813c-1.327,0.493-2.736,0.78-4.228,0.78c-6.637,0-12.029-5.378-12.029-11.988V28.943
			H2.737C1.231,28.943,0,27.726,0,26.206v-7.827c0-1.506,1.232-2.737,2.737-2.737h29.695c1.506,0,2.738,1.231,2.738,2.737v7.827
			c0,1.52-1.232,2.737-2.738,2.737h-2.818v21.443l8.676-12.932V13.562h-3.681c-0.384,0-0.74-0.082-1.068-0.219
			c-0.985-0.411-1.67-1.396-1.67-2.519V2.737C31.871,1.231,33.089,0,34.608,0h31.638c1.519,0,2.737,1.231,2.737,2.737v8.087
			c0,1.506-1.219,2.737-2.737,2.737h-3.681v23.894L86.294,72.83C86.308,72.844,86.323,72.871,86.335,72.885 M81.779,78.167
			c0.191-0.356,0.574-1.287-0.055-2.327L69.765,58.022H31.092l-1.478,2.19v13.424c0,2.08-0.534,4.023-1.465,5.734h51.605
			C80.986,79.371,81.574,78.536,81.779,78.167 M66.097,52.549l-8.554-12.74c-0.301-0.451-0.452-0.984-0.452-1.532V10.824
			c0-1.519,1.219-2.736,2.737-2.736h3.683V5.474H37.346v2.614h3.681c1.519,0,2.737,1.218,2.737,2.736v27.452
			c0,0.548-0.151,1.081-0.452,1.532l-8.553,12.74H66.097z M29.696,23.47v-2.354H5.474v2.354h2.819c1.505,0,2.737,1.231,2.737,2.736
			v13.22h13.11v-13.22c0-1.505,1.231-2.736,2.737-2.736H29.696z M24.14,73.637V44.899H11.03v28.737c0,3.586,2.942,6.515,6.555,6.515
			C21.198,80.151,24.14,77.223,24.14,73.637"/>
		<path clip-path="url(#SVGID_4_)" fill="#CCCCCC" d="M81.724,75.84c0.63,1.04,0.247,1.971,0.055,2.327
			c-0.205,0.369-0.794,1.204-2.025,1.204H28.149c0.93-1.711,1.464-3.654,1.464-5.734V60.213l1.478-2.19h38.673L81.724,75.84z"/>
		<path clip-path="url(#SVGID_4_)" fill="#FFFFFF" d="M37.345,5.474H63.51v2.614H59.83c-1.52,0-2.737,1.218-2.737,2.736v27.452
			c0,0.547,0.149,1.081,0.45,1.532l8.554,12.74H34.759l8.552-12.74c0.302-0.451,0.452-0.985,0.452-1.532V10.824
			c0-1.519-1.218-2.736-2.737-2.736h-3.681V5.474z"/>
		<path clip-path="url(#SVGID_4_)" fill="#EF472E" d="M24.14,44.899v28.737c0,3.586-2.942,6.515-6.555,6.515
			c-3.613,0-6.555-2.929-6.555-6.515V44.899H24.14z"/>
		<path clip-path="url(#SVGID_4_)" fill="#FFFFFF" d="M5.474,21.115h24.222v2.354h-2.819c-1.506,0-2.737,1.232-2.737,2.737v13.22
			H11.03v-13.22c0-1.505-1.232-2.737-2.737-2.737H5.474V21.115z"/>
	</g>
</g>
</svg>
