<?xml version="1.0" encoding="utf-8"?>
<!-- Generator: Adobe Illustrator 16.0.0, SVG Export Plug-In . SVG Version: 6.00 Build 0)  -->
<!DOCTYPE svg PUBLIC "-//W3C//DTD SVG 1.1//EN" "http://www.w3.org/Graphics/SVG/1.1/DTD/svg11.dtd">
<svg version="1.1" id="Layer_1" xmlns="http://www.w3.org/2000/svg" xmlns:xlink="http://www.w3.org/1999/xlink" x="0px" y="0px"
	 width="91.97px" height="127.554px" viewBox="0 0 91.97 127.554" enable-background="new 0 0 91.97 127.554" xml:space="preserve">
<g>
	<defs>
		<rect id="SVGID_1_" y="-2.696" width="91.97" height="130.25"/>
	</defs>
	<clipPath id="SVGID_2_">
		<use xlink:href="#SVGID_1_"  overflow="visible"/>
	</clipPath>
	<g clip-path="url(#SVGID_2_)" enable-background="new    ">
		<g>
			<defs>
				<rect id="SVGID_3_" x="-4.844" y="-5" width="101.659" height="137.55"/>
			</defs>
			<clipPath id="SVGID_4_">
				<use xlink:href="#SVGID_3_"  overflow="visible"/>
			</clipPath>
			<g clip-path="url(#SVGID_4_)">
				<defs>
					<rect id="SVGID_5_" x="9.236" y="17.773" width="73.499" height="11.366"/>
				</defs>
				<clipPath id="SVGID_6_">
					<use xlink:href="#SVGID_5_"  overflow="visible"/>
				</clipPath>
				<rect x="4.236" y="12.773" clip-path="url(#SVGID_6_)" fill="#FFFFFF" width="83.499" height="21.366"/>
			</g>
			<g clip-path="url(#SVGID_4_)">
				<defs>
					<path id="SVGID_7_" d="M11.942,20.469h68.087v5.974H11.942V20.469z M9.236,15.077c-1.494,0-2.705,1.207-2.705,2.696v11.366
						c0,1.488,1.211,2.696,2.705,2.696h73.499c1.493,0,2.706-1.208,2.706-2.696V17.773c0-1.489-1.213-2.696-2.706-2.696H9.236z"/>
				</defs>
				<clipPath id="SVGID_8_">
					<use xlink:href="#SVGID_7_"  overflow="visible"/>
				</clipPath>
				<rect x="1.53" y="10.077" clip-path="url(#SVGID_8_)" fill="#2E2E31" width="88.911" height="26.758"/>
			</g>
			<g clip-path="url(#SVGID_4_)">
				<defs>
					<path id="SVGID_9_" d="M73.751,0c3.586,0,6.494,2.897,6.494,6.471v4.833c0,3.573-2.908,6.47-6.494,6.47h-0.035V29.14h9.019
						V17.774h0.036c3.586,0,6.494-2.896,6.494-6.47V6.471C89.265,2.897,86.357,0,82.771,0H73.751z"/>
				</defs>
				<clipPath id="SVGID_10_">
					<use xlink:href="#SVGID_9_"  overflow="visible"/>
				</clipPath>
				<g opacity="0.15" clip-path="url(#SVGID_10_)">
					<g>
						<defs>
							<rect id="SVGID_11_" x="68.714" y="-5" width="25.551" height="39.14"/>
						</defs>
						<clipPath id="SVGID_12_">
							<use xlink:href="#SVGID_11_"  overflow="visible"/>
						</clipPath>
						<rect x="68.714" y="-5" clip-path="url(#SVGID_12_)" fill="#060707" width="25.551" height="39.14"/>
					</g>
				</g>
			</g>
			<g clip-path="url(#SVGID_4_)">
				<defs>
					<path id="SVGID_13_" d="M9.356,29.139c-3.586,0-6.494,2.898-6.494,6.47v82.78c0,3.573,2.908,6.469,6.494,6.469h73.26
						c3.585,0,6.493-2.896,6.493-6.469v-82.78c0-3.572-2.908-6.47-6.493-6.47H9.356z"/>
				</defs>
				<clipPath id="SVGID_14_">
					<use xlink:href="#SVGID_13_"  overflow="visible"/>
				</clipPath>
				<rect x="-2.138" y="24.139" clip-path="url(#SVGID_14_)" fill="#FFFFFF" width="96.248" height="105.72"/>
			</g>
			<g clip-path="url(#SVGID_4_)">
				<defs>
					<path id="SVGID_15_" d="M5.568,118.388V35.61c0-2.084,1.699-3.775,3.788-3.775h73.259c2.09,0,3.789,1.69,3.789,3.775v82.778
						c0,2.081-1.699,3.774-3.789,3.774H9.356C7.267,122.163,5.568,120.469,5.568,118.388 M9.356,26.443
						c-5.073,0-9.2,4.113-9.2,9.167v82.778c0,5.054,4.127,9.166,9.2,9.166h73.259c5.072,0,9.2-4.112,9.2-9.166V35.61
						c0-5.054-4.128-9.167-9.2-9.167H9.356z"/>
				</defs>
				<clipPath id="SVGID_16_">
					<use xlink:href="#SVGID_15_"  overflow="visible"/>
				</clipPath>
				<rect x="-4.844" y="21.444" clip-path="url(#SVGID_16_)" fill="#2E2E31" width="101.659" height="111.11"/>
			</g>
			<g clip-path="url(#SVGID_4_)">
				<defs>
					<rect id="SVGID_17_" x="16.106" y="46.523" width="58.593" height="59.706"/>
				</defs>
				<clipPath id="SVGID_18_">
					<use xlink:href="#SVGID_17_"  overflow="visible"/>
				</clipPath>
				<rect x="11.106" y="41.523" clip-path="url(#SVGID_18_)" fill="#62B5E5" width="68.593" height="69.706"/>
			</g>
			<g clip-path="url(#SVGID_4_)">
				<defs>
					<path id="SVGID_19_" d="M18.811,49.219h53.18v54.314h-53.18V49.219z M16.106,43.827c-1.494,0-2.707,1.208-2.707,2.696v59.706
						c0,1.488,1.213,2.696,2.707,2.696h58.591c1.494,0,2.705-1.208,2.705-2.696V46.523c0-1.488-1.211-2.696-2.705-2.696H16.106z"/>
				</defs>
				<clipPath id="SVGID_20_">
					<use xlink:href="#SVGID_19_"  overflow="visible"/>
				</clipPath>
				<rect x="8.399" y="38.826" clip-path="url(#SVGID_20_)" fill="#2E2E31" width="74.003" height="75.099"/>
			</g>
			<g clip-path="url(#SVGID_4_)">
				<defs>
					<path id="SVGID_21_" d="M42.695,56.763v16.235c0,1.49,1.213,2.697,2.706,2.697c1.494,0,2.706-1.207,2.706-2.697V56.763
						c0-1.488-1.212-2.696-2.706-2.696C43.908,54.067,42.695,55.275,42.695,56.763"/>
				</defs>
				<clipPath id="SVGID_22_">
					<use xlink:href="#SVGID_21_"  overflow="visible"/>
				</clipPath>
				<rect x="37.695" y="49.067" clip-path="url(#SVGID_22_)" fill="#2E2E31" width="15.412" height="31.629"/>
			</g>
			<g clip-path="url(#SVGID_4_)">
				<defs>
					<path id="SVGID_23_" d="M37.254,62.186c-1.494,0-2.706,1.208-2.706,2.696c0,1.489,1.212,2.696,2.706,2.696H53.55
						c1.494,0,2.705-1.207,2.705-2.696c0-1.488-1.211-2.696-2.705-2.696H37.254z"/>
				</defs>
				<clipPath id="SVGID_24_">
					<use xlink:href="#SVGID_23_"  overflow="visible"/>
				</clipPath>
				<rect x="29.547" y="57.186" clip-path="url(#SVGID_24_)" fill="#2E2E31" width="31.708" height="15.393"/>
			</g>
			<g clip-path="url(#SVGID_4_)">
				<defs>
					<path id="SVGID_25_" d="M27.384,83.411h35.594H27.384z"/>
				</defs>
				<clipPath id="SVGID_26_">
					<use xlink:href="#SVGID_25_"  overflow="visible"/>
				</clipPath>
				<rect x="22.385" y="78.409" clip-path="url(#SVGID_26_)" fill="#62B5E5" width="45.593" height="10"/>
			</g>
			<g clip-path="url(#SVGID_4_)">
				<defs>
					<path id="SVGID_27_" d="M27.385,80.713c-1.495,0-2.705,1.208-2.705,2.697c0,1.486,1.21,2.695,2.705,2.695h35.594
						c1.494,0,2.706-1.209,2.706-2.695c0-1.489-1.212-2.697-2.706-2.697H27.385z"/>
				</defs>
				<clipPath id="SVGID_28_">
					<use xlink:href="#SVGID_27_"  overflow="visible"/>
				</clipPath>
				<rect x="19.68" y="75.713" clip-path="url(#SVGID_28_)" fill="#2E2E31" width="51.005" height="15.393"/>
			</g>
			<g clip-path="url(#SVGID_4_)">
				<defs>
					<path id="SVGID_29_" d="M32.647,92.661h25.071H32.647z"/>
				</defs>
				<clipPath id="SVGID_30_">
					<use xlink:href="#SVGID_29_"  overflow="visible"/>
				</clipPath>
				<rect x="27.647" y="87.661" clip-path="url(#SVGID_30_)" fill="#62B5E5" width="35.071" height="10"/>
			</g>
			<g clip-path="url(#SVGID_4_)">
				<defs>
					<path id="SVGID_31_" d="M32.648,89.965c-1.496,0-2.707,1.208-2.707,2.697c0,1.486,1.211,2.694,2.707,2.694h25.068
						c1.494,0,2.707-1.208,2.707-2.694c0-1.489-1.213-2.697-2.707-2.697H32.648z"/>
				</defs>
				<clipPath id="SVGID_32_">
					<use xlink:href="#SVGID_31_"  overflow="visible"/>
				</clipPath>
				<rect x="24.941" y="84.965" clip-path="url(#SVGID_32_)" fill="#2E2E31" width="40.48" height="15.392"/>
			</g>
			<g clip-path="url(#SVGID_4_)">
				<defs>
					<path id="SVGID_33_" d="M73.716,29.138c0,0,14.826,95.72-64.36,95.72h73.26c3.585,0,6.493-2.896,6.493-6.47V35.609
						c0-3.573-2.908-6.471-6.493-6.471H73.716z"/>
				</defs>
				<clipPath id="SVGID_34_">
					<use xlink:href="#SVGID_33_"  overflow="visible"/>
				</clipPath>
				<g opacity="0.15" clip-path="url(#SVGID_34_)">
					<g>
						<defs>
							<rect id="SVGID_35_" x="4.356" y="24.14" width="89.753" height="105.72"/>
						</defs>
						<clipPath id="SVGID_36_">
							<use xlink:href="#SVGID_35_"  overflow="visible"/>
						</clipPath>
						<rect x="4.356" y="24.138" clip-path="url(#SVGID_36_)" fill="#060707" width="89.753" height="105.721"/>
					</g>
				</g>
			</g>
		</g>
	</g>
</g>
</svg>
