<?xml version="1.0" encoding="utf-8"?>
<!-- Generator: Adobe Illustrator 16.0.0, SVG Export Plug-In . SVG Version: 6.00 Build 0)  -->
<!DOCTYPE svg PUBLIC "-//W3C//DTD SVG 1.1//EN" "http://www.w3.org/Graphics/SVG/1.1/DTD/svg11.dtd">
<svg version="1.1" id="Layer_1" xmlns="http://www.w3.org/2000/svg" xmlns:xlink="http://www.w3.org/1999/xlink" x="0px" y="0px"
	 width="96.04px" height="96.04px" viewBox="0 0 96.04 96.04" enable-background="new 0 0 96.04 96.04" xml:space="preserve">
<g>
	<defs>
		<rect id="SVGID_1_" width="96.04" height="96.04"/>
	</defs>
	<clipPath id="SVGID_2_">
		<use xlink:href="#SVGID_1_"  overflow="visible"/>
	</clipPath>
	<g clip-path="url(#SVGID_2_)">
		<defs>
			<rect id="SVGID_3_" width="96.04" height="96.04"/>
		</defs>
		<clipPath id="SVGID_4_">
			<use xlink:href="#SVGID_3_"  overflow="visible"/>
		</clipPath>
		<path clip-path="url(#SVGID_4_)" fill="#03373D" d="M82.76,40.498c3.9,4.697,0.75,11.284,0.375,12.035
			c-0.525,1.035-1.592,1.636-2.687,1.636c-0.45,0-0.916-0.106-1.351-0.33c-1.471-0.751-2.07-2.552-1.32-4.022
			c0.6-1.2,1.484-4.142,0.375-5.492c-3.061-3.691-2.371-8.613-1.471-10.939c0.6-1.545,2.326-2.325,3.887-1.726
			c1.529,0.601,2.311,2.326,1.727,3.857C82.249,35.621,81.213,38.622,82.76,40.498"/>
		<path clip-path="url(#SVGID_4_)" fill="#03373D" d="M48.02-0.004c26.486,0,48.019,21.535,48.019,48.021
			c0,26.485-21.533,48.021-48.019,48.021S0,74.502,0,48.017C0,21.531,21.534-0.004,48.02-0.004 M90.037,48.017
			c0-23.17-18.848-42.018-42.017-42.018c-6.453,0-12.561,1.455-18.023,4.067c-4.967,2.371-9.409,5.688-13.07,9.709
			C10.144,27.248,6.002,37.151,6.002,48.017c0,23.169,18.848,42.017,42.018,42.017C71.189,90.033,90.037,71.186,90.037,48.017"/>
		<path clip-path="url(#SVGID_4_)" fill="#03373D" d="M73.365,57.32c0.689,1.516,0.03,3.286-1.484,3.977l-2.297,1.065
			c0.194,0.946,0.299,1.921,0.299,2.926c0,2.581-0.689,5.013-1.875,7.099l2.387,1.53c1.38,0.9,1.785,2.761,0.885,4.156
			c-0.57,0.886-1.529,1.366-2.521,1.366c-0.555,0-1.125-0.15-1.621-0.465l-3.211-2.071c-2.235,1.591-4.967,2.536-7.907,2.536
			c-1.906,0-3.737-0.391-5.388-1.11l-2.025,2.085c-0.6,0.602-1.381,0.9-2.161,0.9c-0.75,0-1.501-0.27-2.086-0.84
			c-1.185-1.155-1.215-3.062-0.06-4.248l1.44-1.484c-0.419-0.48-0.825-0.975-1.185-1.516l-4.457,1.006
			c-0.225,0.06-0.435,0.074-0.66,0.074c-1.366,0-2.611-0.945-2.926-2.34c-0.36-1.606,0.645-3.212,2.266-3.587l3.586-0.811
			c-0.12-0.75-0.195-1.501-0.195-2.281c0-2.761,0.796-5.342,2.131-7.519l-2.371-2.056c-1.26-1.079-1.396-2.971-0.315-4.231
			c1.081-1.26,2.971-1.396,4.231-0.315l2.627,2.267c2.176-1.457,4.772-2.312,7.548-2.312c1.86,0,3.631,0.392,5.252,1.065
			l1.846-2.715c0.945-1.366,2.806-1.711,4.171-0.781c1.381,0.931,1.727,2.807,0.797,4.172l-1.922,2.806
			c0.346,0.376,0.676,0.78,0.99,1.201l2.236-1.021C70.904,55.159,72.674,55.819,73.365,57.32 M63.881,65.288
			c0-4.502-3.525-8.163-7.862-8.163c-4.322,0-7.848,3.661-7.848,8.163s3.526,8.147,7.848,8.147
			C60.355,73.436,63.881,69.79,63.881,65.288"/>
		<path clip-path="url(#SVGID_4_)" fill="#03373D" d="M71.504,23.631c0.42,1.605-0.539,3.241-2.146,3.662
			c-0.255,0.06-0.511,0.09-0.75,0.09c-1.335,0-2.565-0.9-2.911-2.251c-1.246-4.847-6.093-5.058-6.648-5.058
			c-1.649-0.029-2.985-1.38-2.971-3.031c0.016-1.65,1.336-2.971,2.986-2.971h0.016C62.53,14.072,69.553,16.069,71.504,23.631"/>
		<path clip-path="url(#SVGID_4_)" fill="#03373D" d="M66.643,34.541c1.125-1.126,3.121-1.111,4.247,0
			c0.555,0.555,0.87,1.335,0.87,2.115c0,0.796-0.315,1.576-0.87,2.131c-0.571,0.556-1.336,0.87-2.131,0.87
			c-0.781,0-1.562-0.314-2.116-0.87c-0.555-0.555-0.885-1.335-0.885-2.131C65.758,35.876,66.088,35.096,66.643,34.541"/>
		<path clip-path="url(#SVGID_4_)" fill="#CCCCCC" d="M70.889,38.787c0.555-0.554,0.871-1.335,0.871-2.13
			c0-0.781-0.316-1.561-0.871-2.116c-1.125-1.111-3.121-1.126-4.246,0c-0.556,0.555-0.886,1.335-0.886,2.116
			c0,0.795,0.33,1.576,0.886,2.13c0.555,0.556,1.336,0.871,2.115,0.871C69.555,39.658,70.318,39.343,70.889,38.787 M76.682,33.385
			c-0.9,2.326-1.591,7.248,1.471,10.94c1.111,1.35,0.225,4.292-0.375,5.492c-0.75,1.471-0.15,3.271,1.32,4.022
			c0.436,0.225,0.9,0.33,1.35,0.33c1.096,0,2.162-0.601,2.687-1.636c0.375-0.75,3.527-7.337-0.375-12.035
			c-1.546-1.876-0.51-4.877-0.465-4.982c0.585-1.53-0.194-3.256-1.726-3.857C79.008,31.06,77.281,31.84,76.682,33.385
			 M56.078,17.043c-0.016,1.652,1.32,3.002,2.971,3.032c0.555,0,5.403,0.21,6.648,5.057c0.345,1.351,1.576,2.251,2.91,2.251
			c0.242,0,0.496-0.03,0.75-0.09c1.606-0.421,2.567-2.056,2.146-3.662c-1.949-7.562-8.973-9.558-12.424-9.558h-0.016
			C57.414,14.073,56.093,15.393,56.078,17.043 M68.083,52.863c0.931-1.365,0.585-3.242-0.795-4.171
			c-1.366-0.931-3.226-0.585-4.172,0.78l-1.845,2.716c-1.623-0.675-3.393-1.066-5.254-1.066c-2.775,0-5.371,0.856-7.548,2.313
			l-2.626-2.267c-1.261-1.08-3.151-0.945-4.232,0.315c-1.08,1.26-0.945,3.151,0.315,4.231l2.371,2.057
			c-1.335,2.177-2.131,4.757-2.131,7.517c0,0.781,0.076,1.533,0.195,2.283l-3.586,0.81c-1.621,0.375-2.626,1.981-2.266,3.586
			c0.315,1.396,1.561,2.341,2.927,2.341c0.225,0,0.435-0.016,0.66-0.074l4.456-1.006c0.361,0.54,0.766,1.035,1.186,1.516
			l-1.441,1.485c-1.155,1.185-1.125,3.093,0.06,4.247c0.585,0.57,1.336,0.84,2.086,0.84c0.781,0,1.561-0.3,2.161-0.9l2.026-2.086
			c1.65,0.721,3.48,1.111,5.387,1.111c2.941,0,5.672-0.945,7.908-2.535l3.213,2.069c0.494,0.315,1.064,0.466,1.619,0.466
			c0.991,0,1.951-0.48,2.521-1.365c0.9-1.396,0.494-3.256-0.885-4.158l-2.387-1.53c1.186-2.085,1.876-4.517,1.876-7.099
			c0-1.004-0.104-1.979-0.301-2.924l2.297-1.066c1.517-0.69,2.177-2.461,1.485-3.977c-0.69-1.5-2.461-2.162-3.977-1.471l-2.236,1.02
			c-0.315-0.42-0.646-0.824-0.99-1.2L68.083,52.863z M29.998,10.066c5.461-2.612,11.569-4.067,18.022-4.067
			c23.169,0,42.017,18.848,42.017,42.018c0,23.169-18.848,42.017-42.017,42.017c-23.17,0-42.018-18.848-42.018-42.017
			c0-10.865,4.142-20.769,10.925-28.242l3.286,2.446c-0.69,1.245-0.42,2.851,0.736,3.781l1.215,1.006
			c-1.425,1.846-2.521,3.887-3.226,6.063c-0.78,2.445-0.991,4.952-0.69,7.232l-4.427,1.921c-1.516,0.66-2.221,2.431-1.561,3.946
			c0.495,1.141,1.591,1.817,2.761,1.817c0.391,0,0.795-0.09,1.186-0.255l4.307-1.862c0.93,1.051,1.98,1.516,2.776,1.742
			c0.51,0.134,1.02,0.194,1.53,0.194c1.636,0,3.302-0.63,5.073-1.561l0.705,2.987c0.33,1.382,1.56,2.312,2.911,2.312
			c0.24,0,0.465-0.03,0.705-0.092c1.606-0.375,2.611-1.994,2.221-3.6l-1.125-4.713c1.59-0.899,3.256-1.771,4.997-2.4
			c0.555-0.196,1.065-0.406,1.56-0.616l4.967,3.512c0.525,0.375,1.141,0.555,1.741,0.555c0.93,0,1.86-0.436,2.446-1.261
			c0.959-1.365,0.629-3.226-0.721-4.186l-3.136-2.221c0.465-0.571,0.84-1.186,1.125-1.831c1.035-2.401,0.69-4.937-0.18-7.563
			l4.126-2.446c1.44-0.841,1.906-2.687,1.065-4.111c-0.854-1.426-2.687-1.907-4.112-1.051l-3.525,2.086
			c-1.081-1.576-2.431-2.687-4.067-3.317c-1.56-0.6-3.136-0.66-4.592-0.45l-1.53-3.166c-0.721-1.501-2.506-2.131-4.007-1.411
			L29.998,10.066z M30.748,75.416c0.48-1.59-0.42-3.256-2.011-3.735c-3.286-0.976-4.337-4.276-4.397-4.457
			c-0.465-1.575-2.116-2.489-3.706-2.04c-1.591,0.45-2.521,2.1-2.072,3.691c0.076,0.27,1.937,6.617,8.449,8.554
			c0.285,0.09,0.586,0.135,0.87,0.135C29.172,77.563,30.357,76.723,30.748,75.416 M21.354,57.305c0-0.795-0.33-1.561-0.885-2.131
			c-1.111-1.11-3.122-1.11-4.247,0c-0.555,0.57-0.87,1.336-0.87,2.131c0,0.78,0.315,1.561,0.87,2.116
			c0.57,0.571,1.335,0.886,2.131,0.886c0.78,0,1.56-0.314,2.116-0.886C21.024,58.865,21.354,58.085,21.354,57.305"/>
		<path clip-path="url(#SVGID_4_)" fill="#03373D" d="M58.148,64.388c0.556,0.57,0.871,1.336,0.871,2.131
			c0,0.78-0.315,1.56-0.871,2.116c-0.555,0.555-1.334,0.885-2.131,0.885c-0.779,0-1.56-0.33-2.115-0.885
			c-0.555-0.557-0.885-1.336-0.885-2.116c0-0.795,0.33-1.561,0.885-2.131C55.027,63.277,57.023,63.277,58.148,64.388"/>
		<path clip-path="url(#SVGID_4_)" fill="#EF472E" d="M63.881,65.289c0,4.502-3.525,8.147-7.863,8.147
			c-4.321,0-7.848-3.646-7.848-8.147s3.526-8.164,7.848-8.164C60.355,57.125,63.881,60.787,63.881,65.289 M56.018,69.52
			c0.795,0,1.576-0.33,2.131-0.885c0.556-0.555,0.871-1.336,0.871-2.116c0-0.795-0.315-1.562-0.871-2.131
			c-1.125-1.11-3.121-1.11-4.246,0c-0.555,0.569-0.885,1.336-0.885,2.131c0,0.78,0.33,1.562,0.885,2.116S55.238,69.52,56.018,69.52"
			/>
		<path clip-path="url(#SVGID_4_)" fill="#03373D" d="M53.303,20.57c0.84,1.425,0.375,3.27-1.066,4.111l-4.126,2.447
			c0.871,2.625,1.214,5.162,0.18,7.562c-0.285,0.646-0.66,1.261-1.125,1.831l3.136,2.221c1.352,0.961,1.681,2.821,0.72,4.187
			c-0.585,0.825-1.515,1.261-2.446,1.261c-0.6,0-1.215-0.18-1.74-0.555l-4.968-3.511c-0.495,0.21-1.005,0.42-1.56,0.615
			c-1.741,0.63-3.406,1.501-4.997,2.4l1.125,4.713c0.39,1.605-0.615,3.227-2.22,3.602c-0.241,0.06-0.466,0.09-0.706,0.09
			c-1.351,0-2.581-0.931-2.911-2.312l-0.705-2.986c-1.771,0.93-3.437,1.56-5.072,1.56c-0.511,0-1.021-0.059-1.531-0.194
			c-0.796-0.226-1.846-0.691-2.776-1.741l-4.307,1.861c-0.39,0.165-0.795,0.255-1.185,0.255c-1.171,0-2.266-0.676-2.761-1.816
			c-0.661-1.516,0.044-3.287,1.56-3.947l4.427-1.921c-0.3-2.28-0.09-4.787,0.69-7.232c0.705-2.176,1.801-4.217,3.226-6.063
			l-1.215-1.005c-1.155-0.931-1.426-2.537-0.735-3.782c0.09-0.15,0.18-0.3,0.3-0.435c1.05-1.29,2.941-1.471,4.231-0.435l1.726,1.41
			c1.441-1.11,3.046-2.116,4.817-2.971l-1.215-2.521c-0.721-1.485-0.09-3.286,1.396-4.007c1.5-0.719,3.286-0.09,4.006,1.411
			l1.531,3.166c1.455-0.21,3.031-0.15,4.591,0.451c1.636,0.63,2.987,1.74,4.067,3.316l3.527-2.086
			C50.615,18.665,52.447,19.145,53.303,20.57 M42.783,32.274c0.525-1.2-0.48-3.812-1.471-6.152c-0.51-1.201-1.125-1.952-1.861-2.237
			c-0.299-0.119-0.629-0.165-0.99-0.165c-1.47,0-3.271,0.841-4.232,1.306c-4.501,2.102-6.977,4.862-8.328,7.144
			c-0.615,1.049-1.005,1.995-1.245,2.73c-0.961,3.017-0.526,5.478,0.194,6.753c0.031,0.06,0.06,0.105,0.091,0.15
			c0.93-0.075,3.391-1.53,5.057-2.521c0.3-0.18,0.6-0.36,0.915-0.54c2.176-1.276,4.622-2.656,7.338-3.646
			C41.492,33.925,42.513,32.92,42.783,32.274"/>
		<path clip-path="url(#SVGID_4_)" fill="#03373D" d="M38.806,29.799c0,0.6-0.24,1.17-0.66,1.591c-0.405,0.42-0.991,0.66-1.591,0.66
			c-0.585,0-1.17-0.24-1.591-0.66c-0.42-0.405-0.66-0.991-0.66-1.591c0-0.585,0.24-1.171,0.66-1.591
			c0.841-0.841,2.342-0.841,3.182,0C38.566,28.628,38.806,29.214,38.806,29.799"/>
		<path clip-path="url(#SVGID_4_)" fill="#03373D" d="M27.807,35.892c-0.42-0.405-0.66-0.991-0.66-1.591
			c0-0.586,0.24-1.171,0.66-1.591c0.84-0.84,2.341-0.84,3.181,0c0.421,0.42,0.66,1.005,0.66,1.591c0,0.6-0.239,1.186-0.66,1.591
			c-0.42,0.42-0.99,0.66-1.591,0.66C28.812,36.552,28.227,36.312,27.807,35.892"/>
		<path clip-path="url(#SVGID_4_)" fill="#03373D" d="M28.737,71.681c1.591,0.479,2.491,2.146,2.011,3.735
			c-0.39,1.307-1.576,2.147-2.866,2.147c-0.285,0-0.585-0.045-0.871-0.135c-6.512-1.937-8.373-8.284-8.448-8.554
			c-0.45-1.59,0.48-3.241,2.071-3.691c1.59-0.449,3.241,0.465,3.707,2.04C24.4,67.404,25.451,70.705,28.737,71.681"/>
		<path clip-path="url(#SVGID_4_)" fill="#EF472E" d="M38.146,31.39c0.42-0.421,0.66-0.992,0.66-1.591
			c0-0.585-0.24-1.171-0.66-1.591c-0.84-0.841-2.341-0.841-3.181,0c-0.42,0.42-0.661,1.006-0.661,1.591
			c0,0.599,0.241,1.185,0.661,1.591c0.42,0.42,1.005,0.66,1.59,0.66C37.155,32.05,37.741,31.81,38.146,31.39 M30.988,32.71
			c-0.84-0.841-2.341-0.841-3.181,0l-1.906-0.54c1.351-2.281,3.827-5.042,8.328-7.144c0.961-0.464,2.761-1.305,4.232-1.305
			c0.36,0,0.691,0.046,0.99,0.165c0.736,0.285,1.351,1.036,1.861,2.236c0.991,2.341,1.996,4.952,1.471,6.152
			c-0.27,0.646-1.291,1.652-4.532,2.822c-2.716,0.99-5.162,2.371-7.338,3.646l-1.516-2.19c0.601,0,1.171-0.24,1.591-0.66
			c0.42-0.406,0.66-0.992,0.66-1.591C31.648,33.715,31.408,33.13,30.988,32.71"/>
		<path clip-path="url(#SVGID_4_)" fill="#EF472E" d="M27.146,34.301c0,0.6,0.24,1.186,0.66,1.591c0.42,0.42,1.006,0.66,1.59,0.66
			l1.516,2.19c-0.315,0.181-0.615,0.361-0.915,0.54c-1.666,0.992-4.127,2.447-5.057,2.522c-0.03-0.045-0.06-0.09-0.09-0.15
			c-0.721-1.276-1.156-3.737-0.195-6.753c0.24-0.736,0.63-1.681,1.245-2.731l1.906,0.54C27.386,33.13,27.146,33.715,27.146,34.301"
			/>
		<path clip-path="url(#SVGID_4_)" fill="#03373D" d="M20.469,55.174c0.555,0.57,0.885,1.336,0.885,2.131
			c0,0.78-0.33,1.561-0.885,2.116c-0.556,0.569-1.336,0.886-2.116,0.886c-0.796,0-1.561-0.316-2.131-0.886
			c-0.555-0.556-0.87-1.336-0.87-2.116c0-0.795,0.315-1.561,0.87-2.131C17.347,54.064,19.358,54.064,20.469,55.174"/>
		<path clip-path="url(#SVGID_4_)" fill="#CCCCCC" d="M20.514,21.785c-0.12,0.135-0.21,0.285-0.3,0.436l-3.286-2.447
			c3.661-4.021,8.103-7.338,13.07-9.709l1.471,3.197c-1.486,0.72-2.117,2.521-1.396,4.006l1.215,2.521
			c-1.771,0.855-3.376,1.861-4.816,2.972l-1.727-1.411C23.455,20.314,21.563,20.495,20.514,21.785"/>
	</g>
</g>
</svg>
