<?xml version="1.0" encoding="utf-8"?>
<!-- Generator: Adobe Illustrator 16.0.0, SVG Export Plug-In . SVG Version: 6.00 Build 0)  -->
<!DOCTYPE svg PUBLIC "-//W3C//DTD SVG 1.1//EN" "http://www.w3.org/Graphics/SVG/1.1/DTD/svg11.dtd">
<svg version="1.1" id="Layer_1" xmlns="http://www.w3.org/2000/svg" xmlns:xlink="http://www.w3.org/1999/xlink" x="0px" y="0px"
	 width="103.333px" height="103.333px" viewBox="0 0 103.333 103.333" enable-background="new 0 0 103.333 103.333"
	 xml:space="preserve">
<g>
	<defs>
		<polyline id="SVGID_1_" points="294.612,-771.663 -628.388,-771.663 -628.388,1172.337 294.612,1172.337 		"/>
	</defs>
	<clipPath id="SVGID_2_">
		<use xlink:href="#SVGID_1_"  overflow="visible"/>
	</clipPath>
	<g clip-path="url(#SVGID_2_)">
		<defs>
			<path id="SVGID_3_" d="M-25.725-863.659l-592.772,95.996v1814.342c0,69.399,33.033,125.658,73.78,125.658h750.672
				c40.748,0,73.78-56.259-231.68-221.654"/>
		</defs>
		<clipPath id="SVGID_4_">
			<use xlink:href="#SVGID_3_"  overflow="visible"/>
		</clipPath>
	</g>
	<g clip-path="url(#SVGID_2_)">
		<defs>
			<polyline id="SVGID_5_" points="294.612,1172.337 -628.388,1172.337 -628.388,-771.663 294.612,-771.663 			"/>
		</defs>
		<clipPath id="SVGID_6_">
			<use xlink:href="#SVGID_5_"  overflow="visible"/>
		</clipPath>
	</g>
	<g clip-path="url(#SVGID_2_)">
		<defs>
			<path id="SVGID_7_" d="M73.417,4.754L22.827,55.428c-2.82,2.824-4.588,6.531-5.01,10.502L16.5,78.313L5.066,89.767
				c-2.277,2.281-2.669,5.984-0.632,8.484c2.337,2.867,6.61,3.025,9.16,0.471l11.432-11.45l12.74-1.359
				c3.965-0.423,7.667-2.194,10.487-5.019l50.591-50.672c2.918-2.924,2.918-7.666,0-10.589L83.99,4.754
				c-1.46-1.462-3.372-2.193-5.285-2.193C76.791,2.561,74.877,3.292,73.417,4.754"/>
		</defs>
		<clipPath id="SVGID_8_">
			<use xlink:href="#SVGID_7_"  overflow="visible"/>
		</clipPath>
		<rect x="-1.021" y="-1.569" clip-path="url(#SVGID_8_)" fill="#FFFFFF" width="106.185" height="106.225"/>
	</g>
	<g clip-path="url(#SVGID_2_)">
		<defs>
			<path id="SVGID_9_" d="M9.022,98.29c-1.13-0.057-2.146-0.572-2.862-1.451c-1.264-1.547-1.053-3.962,0.479-5.497L18.074,79.89
				c0.36-0.36,0.586-0.832,0.64-1.339l1.316-12.384c0.366-3.455,1.919-6.708,4.37-9.162L74.992,6.331
				c1.022-1.024,2.368-1.537,3.713-1.537c1.344,0,2.688,0.513,3.713,1.537L97.27,21.209c2.046,2.049,2.046,5.387,0,7.436
				L46.678,79.318c-2.452,2.456-5.7,4.011-9.148,4.378l-12.739,1.359c-0.507,0.053-0.979,0.279-1.339,0.639L12.019,97.146
				c-0.725,0.729-1.725,1.153-2.754,1.153C9.184,98.299,9.103,98.296,9.022,98.29 M78.589,0.337
				c-2.446,0.029-4.883,0.975-6.745,2.841L21.253,53.852c-3.171,3.171-5.176,7.377-5.651,11.841L14.37,77.295L3.492,88.191
				C1.797,89.887,0.92,92.144,0.9,94.377v0.17c0.018,1.835,0.613,3.646,1.811,5.112c1.499,1.841,3.718,2.966,6.087,3.086
				c0.142,0.007,0.284,0.011,0.426,0.011c2.226,0,4.373-0.883,5.944-2.457l10.877-10.892l11.957-1.278
				c4.457-0.474,8.656-2.484,11.825-5.658l50.592-50.672c1.857-1.863,2.804-4.297,2.837-6.742v-0.261
				c-0.033-2.445-0.979-4.88-2.837-6.741L85.565,3.178c-1.862-1.865-4.301-2.812-6.748-2.841H78.589z"/>
		</defs>
		<clipPath id="SVGID_10_">
			<use xlink:href="#SVGID_9_"  overflow="visible"/>
		</clipPath>
		<rect x="-3.232" y="-3.793" clip-path="url(#SVGID_10_)" fill="#2E2E31" width="110.617" height="110.679"/>
	</g>
	<g clip-path="url(#SVGID_2_)">
		<defs>
			<path id="SVGID_11_" d="M5.066,89.769c-2.277,2.279-2.669,5.982-0.632,8.481c2.337,2.869,6.61,3.026,9.159,0.471l4.637-4.642
				L9.494,85.33L5.066,89.769z"/>
		</defs>
		<clipPath id="SVGID_12_">
			<use xlink:href="#SVGID_11_"  overflow="visible"/>
		</clipPath>
		<rect x="-1.02" y="81.2" clip-path="url(#SVGID_12_)" fill="#737473" width="23.38" height="23.455"/>
	</g>
	<g clip-path="url(#SVGID_2_)">
		<defs>
			<path id="SVGID_13_" d="M9.025,98.291c-1.132-0.056-2.149-0.572-2.865-1.452c-1.264-1.548-1.053-3.961,0.479-5.495l2.854-2.86
				l5.589,5.596l-3.063,3.066c-0.725,0.728-1.699,1.154-2.75,1.154C9.188,98.3,9.107,98.297,9.025,98.291 M9.494,83.125
				c-0.578,0-1.156,0.208-1.573,0.627l-4.429,4.439C0.363,91.324,0.019,96.362,2.71,99.66c1.499,1.841,3.721,2.966,6.089,3.086
				c0.142,0.006,0.285,0.011,0.424,0.011c2.226,0,4.373-0.883,5.944-2.459l4.635-4.643c0.87-0.871,0.87-2.282,0-3.153l-8.732-8.75
				c-0.418-0.418-0.994-0.627-1.572-0.627C9.498,83.125,9.496,83.125,9.494,83.125"/>
		</defs>
		<clipPath id="SVGID_14_">
			<use xlink:href="#SVGID_13_"  overflow="visible"/>
		</clipPath>
		<rect x="-3.231" y="78.995" clip-path="url(#SVGID_14_)" fill="#2E2E31" width="27.816" height="27.892"/>
	</g>
	<g clip-path="url(#SVGID_2_)">
		<defs>
			<path id="SVGID_15_" d="M73.138,24.896L31.182,66.92c-1.54,1.541-1.54,4.065,0,5.605c1.539,1.543,4.058,1.543,5.597,0
				l41.957-42.024c1.539-1.541,1.539-4.065,0-5.605c-0.77-0.771-1.784-1.157-2.799-1.157C74.923,23.739,73.908,24.125,73.138,24.896
				"/>
		</defs>
		<clipPath id="SVGID_16_">
			<use xlink:href="#SVGID_15_"  overflow="visible"/>
		</clipPath>
		<rect x="25.898" y="19.609" clip-path="url(#SVGID_16_)" fill="#E32F45" width="58.122" height="58.202"/>
	</g>
	<g clip-path="url(#SVGID_2_)">
		<defs>
			<path id="SVGID_17_" d="M32.755,70.949c-0.324-0.325-0.501-0.761-0.501-1.227c0-0.467,0.176-0.901,0.501-1.227l41.957-42.025
				c0.337-0.337,0.78-0.506,1.224-0.506c0.444,0,0.888,0.169,1.226,0.509c0.323,0.323,0.502,0.759,0.502,1.224
				c0,0.467-0.179,0.903-0.502,1.227L35.207,70.949c-0.339,0.339-0.782,0.507-1.227,0.507
				C33.537,71.456,33.092,71.288,32.755,70.949 M71.564,23.319L29.607,65.342c-1.166,1.167-1.807,2.722-1.807,4.381
				c0,1.657,0.641,3.213,1.807,4.38c1.207,1.207,2.789,1.811,4.373,1.811c1.585,0,3.167-0.604,4.374-1.811l41.955-42.025
				c1.165-1.166,1.806-2.722,1.806-4.38c0-1.657-0.641-3.214-1.806-4.379c-1.206-1.208-2.789-1.813-4.373-1.813
				C74.353,21.506,72.77,22.111,71.564,23.319"/>
		</defs>
		<clipPath id="SVGID_18_">
			<use xlink:href="#SVGID_17_"  overflow="visible"/>
		</clipPath>
		<rect x="23.671" y="17.377" clip-path="url(#SVGID_18_)" fill="#2E2E31" width="62.574" height="62.667"/>
	</g>
	<g clip-path="url(#SVGID_2_)">
		<defs>
			<path id="SVGID_19_" d="M30.199,56.849l-4.265-4.271L30.199,56.849z"/>
		</defs>
		<clipPath id="SVGID_20_">
			<use xlink:href="#SVGID_19_"  overflow="visible"/>
		</clipPath>
		<rect x="21.805" y="48.447" clip-path="url(#SVGID_20_)" fill="#FFFFFF" width="12.523" height="12.53"/>
	</g>
	<g clip-path="url(#SVGID_2_)">
		<defs>
			<path id="SVGID_21_" d="M24.36,51c-0.87,0.871-0.87,2.284,0,3.154l4.265,4.272c0.435,0.436,1.004,0.653,1.574,0.653
				s1.14-0.217,1.574-0.653c0.869-0.871,0.869-2.283,0-3.155L27.509,51c-0.436-0.436-1.005-0.653-1.575-0.653
				S24.795,50.564,24.36,51"/>
		</defs>
		<clipPath id="SVGID_22_">
			<use xlink:href="#SVGID_21_"  overflow="visible"/>
		</clipPath>
		<rect x="19.579" y="46.218" clip-path="url(#SVGID_22_)" fill="#2E2E31" width="16.977" height="16.99"/>
	</g>
	<g clip-path="url(#SVGID_2_)">
		<defs>
			<path id="SVGID_23_" d="M38.738,48.295l-4.264-4.271L38.738,48.295z"/>
		</defs>
		<clipPath id="SVGID_24_">
			<use xlink:href="#SVGID_23_"  overflow="visible"/>
		</clipPath>
		<rect x="30.344" y="39.895" clip-path="url(#SVGID_24_)" fill="#FFFFFF" width="12.523" height="12.53"/>
	</g>
	<g clip-path="url(#SVGID_2_)">
		<defs>
			<path id="SVGID_25_" d="M32.898,42.448c-0.869,0.871-0.869,2.284,0,3.153l4.265,4.271c0.435,0.436,1.006,0.653,1.574,0.653
				c0.57,0,1.142-0.217,1.575-0.653c0.869-0.871,0.869-2.283,0-3.154l-4.264-4.27c-0.436-0.435-1.005-0.653-1.575-0.653
				S33.333,42.013,32.898,42.448"/>
		</defs>
		<clipPath id="SVGID_26_">
			<use xlink:href="#SVGID_25_"  overflow="visible"/>
		</clipPath>
		<rect x="28.117" y="37.665" clip-path="url(#SVGID_26_)" fill="#2E2E31" width="16.977" height="16.989"/>
	</g>
	<g clip-path="url(#SVGID_2_)">
		<defs>
			<path id="SVGID_27_" d="M47.277,39.742l-4.264-4.271L47.277,39.742z"/>
		</defs>
		<clipPath id="SVGID_28_">
			<use xlink:href="#SVGID_27_"  overflow="visible"/>
		</clipPath>
		<rect x="38.884" y="31.342" clip-path="url(#SVGID_28_)" fill="#FFFFFF" width="12.523" height="12.53"/>
	</g>
	<g clip-path="url(#SVGID_2_)">
		<defs>
			<path id="SVGID_29_" d="M41.439,33.895c-0.87,0.871-0.87,2.283,0,3.153l4.265,4.272c0.435,0.435,1.005,0.652,1.573,0.652
				c0.57,0,1.141-0.217,1.575-0.652c0.869-0.872,0.869-2.285,0-3.156l-4.264-4.269c-0.436-0.436-1.004-0.654-1.575-0.654
				C42.443,33.241,41.875,33.459,41.439,33.895"/>
		</defs>
		<clipPath id="SVGID_30_">
			<use xlink:href="#SVGID_29_"  overflow="visible"/>
		</clipPath>
		<rect x="36.658" y="29.111" clip-path="url(#SVGID_30_)" fill="#2E2E31" width="16.977" height="16.99"/>
	</g>
	<g clip-path="url(#SVGID_2_)">
		<defs>
			<path id="SVGID_31_" d="M55.817,31.188l-4.264-4.27L55.817,31.188z"/>
		</defs>
		<clipPath id="SVGID_32_">
			<use xlink:href="#SVGID_31_"  overflow="visible"/>
		</clipPath>
		<rect x="47.423" y="22.788" clip-path="url(#SVGID_32_)" fill="#FFFFFF" width="12.522" height="12.53"/>
	</g>
	<g clip-path="url(#SVGID_2_)">
		<defs>
			<path id="SVGID_33_" d="M49.977,25.342c-0.869,0.871-0.869,2.283,0,3.153l4.266,4.271c0.434,0.437,1.004,0.653,1.574,0.653
				c0.569,0,1.14-0.217,1.575-0.653c0.867-0.871,0.867-2.283,0-3.154l-4.265-4.27c-0.436-0.436-1.005-0.654-1.575-0.654
				C50.983,24.688,50.413,24.906,49.977,25.342"/>
		</defs>
		<clipPath id="SVGID_34_">
			<use xlink:href="#SVGID_33_"  overflow="visible"/>
		</clipPath>
		<rect x="45.196" y="20.559" clip-path="url(#SVGID_34_)" fill="#2E2E31" width="16.978" height="16.989"/>
	</g>
	<g clip-path="url(#SVGID_2_)">
		<defs>
			<path id="SVGID_35_" d="M64.357,22.636l-4.265-4.272L64.357,22.636z"/>
		</defs>
		<clipPath id="SVGID_36_">
			<use xlink:href="#SVGID_35_"  overflow="visible"/>
		</clipPath>
		<rect x="55.963" y="14.235" clip-path="url(#SVGID_36_)" fill="#FFFFFF" width="12.522" height="12.53"/>
	</g>
	<g clip-path="url(#SVGID_2_)">
		<defs>
			<path id="SVGID_37_" d="M93.596,24.966L43.004,75.638c-2.82,2.825-6.521,4.596-10.486,5.021l-12.74,1.357L8.346,93.466
				c-1.408,1.412-3.341,1.963-5.187,1.719c0.127,1.096,0.537,2.161,1.274,3.065c2.337,2.869,6.61,3.026,9.16,0.471l11.432-11.45
				l12.741-1.359c3.965-0.421,7.666-2.192,10.486-5.018l50.591-50.673c2.918-2.924,2.918-7.665,0-10.589l-5.248-5.257
				C96.516,17.301,96.516,22.041,93.596,24.966"/>
		</defs>
		<clipPath id="SVGID_38_">
			<use xlink:href="#SVGID_37_"  overflow="visible"/>
		</clipPath>
		<g opacity="0.15" clip-path="url(#SVGID_38_)">
			<g>
				<defs>
					<rect id="SVGID_39_" x="-0.969" y="10.247" width="106.133" height="94.41"/>
				</defs>
				<clipPath id="SVGID_40_">
					<use xlink:href="#SVGID_39_"  overflow="visible"/>
				</clipPath>
				<rect x="-0.969" y="10.245" clip-path="url(#SVGID_40_)" fill="#060707" width="106.133" height="94.41"/>
			</g>
		</g>
	</g>
</g>
</svg>
