<?xml version="1.0" encoding="utf-8"?>
<!-- Generator: Adobe Illustrator 16.0.0, SVG Export Plug-In . SVG Version: 6.00 Build 0)  -->
<!DOCTYPE svg PUBLIC "-//W3C//DTD SVG 1.1//EN" "http://www.w3.org/Graphics/SVG/1.1/DTD/svg11.dtd">
<svg version="1.1" id="Layer_1" xmlns="http://www.w3.org/2000/svg" xmlns:xlink="http://www.w3.org/1999/xlink" x="0px" y="0px"
	 width="250px" height="250px" viewBox="0 0 250 250" enable-background="new 0 0 250 250" xml:space="preserve">
<g>
	<g>
		<g>
			<path fill="#FFFFFF" d="M125,0C56.076,0,0,56.076,0,125s56.076,125,125,125s125-56.076,125-125S193.924,0,125,0z M125,239.584
				c-63.182,0-114.583-51.402-114.583-114.584S61.818,10.417,125,10.417S239.584,61.818,239.584,125S188.182,239.584,125,239.584z"
				/>
			<path fill="#FFFFFF" d="M175.558,74.442c-2.034-2.035-5.331-2.035-7.364,0L125,117.635L81.808,74.443
				c-2.035-2.035-5.331-2.035-7.365,0c-2.035,2.035-2.035,5.331,0,7.365L117.635,125l-43.192,43.192
				c-2.035,2.034-2.035,5.331,0,7.364c1.017,1.018,2.35,1.526,3.683,1.526s2.665-0.509,3.683-1.526L125,132.365l43.192,43.191
				c1.017,1.018,2.351,1.526,3.683,1.526s2.665-0.509,3.683-1.526c2.034-2.034,2.034-5.33,0-7.364L132.365,125l43.191-43.192
				C177.592,79.773,177.592,76.477,175.558,74.442z"/>
		</g>
	</g>
</g>
</svg>
