<?xml version="1.0" encoding="utf-8"?>
<!-- Generator: Adobe Illustrator 16.0.0, SVG Export Plug-In . SVG Version: 6.00 Build 0)  -->
<!DOCTYPE svg PUBLIC "-//W3C//DTD SVG 1.1//EN" "http://www.w3.org/Graphics/SVG/1.1/DTD/svg11.dtd">
<svg version="1.1" id="Layer_1" xmlns="http://www.w3.org/2000/svg" xmlns:xlink="http://www.w3.org/1999/xlink" x="0px" y="0px"
	 width="50px" height="50px" viewBox="0 0 50 50" enable-background="new 0 0 50 50" xml:space="preserve">
<g>
	<g>
		<g>
			<path fill="#D7DF23" d="M25,0C11.215,0,0,11.215,0,25c0,13.785,11.215,25,25,25c13.785,0,25-11.215,25-25
				C50,11.215,38.785,0,25,0z M25,47.916C12.364,47.916,2.083,37.637,2.083,25C2.083,12.364,12.364,2.083,25,2.083
				c12.637,0,22.916,10.28,22.916,22.917C47.916,37.637,37.637,47.916,25,47.916z"/>
			<path fill="#D7DF23" d="M33.639,28.43l-7.598,7.598V11.458c0-0.576-0.465-1.042-1.041-1.042c-0.576,0-1.042,0.466-1.042,1.042
				v24.569l-7.597-7.598c-0.407-0.406-1.066-0.406-1.473,0c-0.407,0.407-0.407,1.066,0,1.473l9.375,9.375
				c0.204,0.204,0.47,0.306,0.737,0.306s0.533-0.102,0.736-0.306l9.375-9.375c0.407-0.406,0.407-1.065,0-1.473
				C34.705,28.023,34.045,28.023,33.639,28.43z"/>
		</g>
	</g>
</g>
</svg>
