<?xml version="1.0" encoding="utf-8"?>
<!-- Generator: Adobe Illustrator 16.0.0, SVG Export Plug-In . SVG Version: 6.00 Build 0)  -->
<!DOCTYPE svg PUBLIC "-//W3C//DTD SVG 1.1//EN" "http://www.w3.org/Graphics/SVG/1.1/DTD/svg11.dtd">
<svg version="1.1" id="Layer_1" xmlns="http://www.w3.org/2000/svg" xmlns:xlink="http://www.w3.org/1999/xlink" x="0px" y="0px"
	 width="216.574px" height="121.489px" viewBox="0 0 216.574 121.489" enable-background="new 0 0 216.574 121.489"
	 xml:space="preserve">
<path fill="#3F4CE3" d="M114.167,121.656c-23.084,0-46.167,0.019-69.251-0.013c-5.915-0.008-11.782-0.355-17.457-2.37
	c-14.699-5.22-23.357-15.78-26.621-30.685C-4.21,65.542,14.374,42.798,35.29,41.072c6.11-0.505,12.302-0.451,18.431-0.141
	c3.576,0.182,5.14-1.104,6.477-4.278c4.997-11.864,12.936-21.385,24.03-28.061c13.454-8.098,27.976-10.334,43.327-7.288
	c16.743,3.322,29.875,12.071,39.088,26.454c6.207,9.689,9.081,20.461,9.759,31.876c0.455,7.672-0.271,6.004,6.631,6.498
	c5.304,0.38,10.861,0.369,15.806,2.021c14.236,4.758,25.524,26.113,10.935,43.246c-5.724,6.72-12.916,10.104-21.81,10.079
	c-21.006-0.059-42.014,0-63.02,0.01c-3.593,0.002-7.185,0.001-10.776,0.001C114.167,121.544,114.167,121.6,114.167,121.656
	 M129.032,33.511c-1.601-1.608-2.961-3.347-4.681-4.593c-1.53-1.108-2.846,0.188-3.933,1.285c-1.258,1.268-2.665,2.06-4.502,1.565
	c-2.626-0.705-4.769-3.428-5.178-6.228c-0.14-0.949-0.592-2.521-1.13-2.625c-2.051-0.395-4.249-0.634-6.287-0.299
	c-1.81,0.298-1.716,2.218-1.773,3.757c-0.071,1.933-0.531,3.752-2.641,4.377c-2.648,0.784-5.302,1.292-7.553-1.128
	c-1.402-1.509-2.956-1.355-4.416,0.019c-0.64,0.603-1.277,1.21-1.868,1.857c-1.633,1.786-1.485,3.096,0.001,5.042
	c0.912,1.194,1.856,2.703,1.934,4.117c0.136,2.472-3.255,5.523-5.766,5.884c-1.051,0.15-2.806,0.425-2.947,0.975
	c-0.514,1.997-0.828,4.18-0.552,6.204c0.256,1.88,2.229,1.77,3.827,2.112c1.5,0.322,3.3,1.028,4.156,2.172
	c1.596,2.131,0.944,5.81-0.858,7.907c-1.38,1.604-1.347,3.142,0.139,4.646c0.617,0.624,1.242,1.24,1.855,1.867
	c1.498,1.532,3.018,1.637,4.565,0.079c1.514-1.523,3.189-2.994,5.45-1.896c2.466,1.198,4.658,2.752,4.774,6.017
	c0.034,0.975,0.609,2.284,1.372,2.815c3.113,2.163,7.476,0.06,7.803-3.65c0.161-1.838,0.521-3.658,2.448-4.281
	c2.41-0.778,4.938-1.499,7.235,0.516c2.628,2.305,3.308,2.229,5.943-0.455c2.709-2.76,2.666-3.594,0.617-6.249
	c-0.889-1.153-1.617-2.815-1.571-4.22c0.08-2.497,3.324-5.145,5.902-5.367c2.723-0.236,3.498-1.04,3.572-3.723
	c0.018-0.638,0.021-1.277,0-1.914c-0.086-2.629-0.781-3.384-3.421-3.547c-2.15-0.13-4.36-0.348-5.084-2.749
	c-0.752-2.5-1.408-5.12,0.85-7.395C127.945,35.775,128.264,34.838,129.032,33.511 M148.917,97.304
	c-0.042-0.142-0.103-0.454-0.226-0.74c-1.591-3.686-1.471-3.852,2.358-5.645c0.597-0.28,1.136-1.341,1.138-2.042
	c0.002-0.688-0.552-1.742-1.144-2.007c-3.771-1.686-3.87-1.939-2.442-5.718c0.254-0.67-0.11-1.929-0.646-2.438
	c-0.514-0.491-1.796-0.741-2.436-0.444c-3.122,1.452-3.906,1.109-5.376-2.329c-0.282-0.66-1.402-1.326-2.138-1.328
	c-0.729-0.002-1.864,0.67-2.127,1.324c-1.408,3.517-1.817,3.69-5.575,2.22c-0.615-0.241-1.807,0.049-2.243,0.533
	c-0.521,0.574-0.92,1.78-0.665,2.441c1.363,3.544,1.095,4.228-2.271,5.689c-0.654,0.284-1.336,1.386-1.318,2.093
	c0.018,0.714,0.748,1.804,1.412,2.041c3.236,1.154,3.593,2.058,2.232,5.448c-0.286,0.711,0.132,1.964,0.649,2.646
	c0.364,0.479,1.622,0.793,2.18,0.534c3.445-1.597,4.054-1.348,5.59,2.101c0.302,0.678,1.547,1.279,2.357,1.281
	c0.673,0.001,1.727-0.804,1.954-1.475c0.983-2.89,2.422-3.56,5.121-2.099C146.786,100.194,148.833,99.108,148.917,97.304"/>
<path fill="none" stroke="#3F4CE3" stroke-miterlimit="10" d="M129.307,33.501c-0.771,1.332-1.092,2.272-1.723,2.907
	c-2.267,2.282-1.607,4.913-0.852,7.421c0.727,2.412,2.943,2.63,5.103,2.762c2.65,0.163,3.348,0.92,3.434,3.559
	c0.021,0.641,0.018,1.282,0,1.922c-0.073,2.692-0.854,3.5-3.585,3.737c-2.589,0.224-5.846,2.881-5.926,5.388
	c-0.046,1.409,0.685,3.078,1.578,4.235c2.056,2.666,2.099,3.502-0.621,6.273c-2.646,2.694-3.327,2.77-5.966,0.457
	c-2.306-2.022-4.843-1.299-7.264-0.518c-1.934,0.625-2.295,2.453-2.457,4.298c-0.327,3.725-4.708,5.836-7.832,3.664
	c-0.766-0.532-1.343-1.849-1.378-2.826c-0.115-3.277-2.316-4.838-4.791-6.04c-2.271-1.103-3.952,0.374-5.472,1.903
	c-1.554,1.564-3.079,1.459-4.583-0.079c-0.616-0.629-1.243-1.247-1.862-1.874c-1.492-1.512-1.524-3.054-0.14-4.664
	c1.81-2.105,2.463-5.8,0.862-7.938c-0.86-1.148-2.667-1.857-4.173-2.181c-1.604-0.344-3.585-0.233-3.842-2.12
	c-0.276-2.031,0.039-4.224,0.555-6.228c0.142-0.552,1.904-0.827,2.958-0.979c2.521-0.362,5.925-3.426,5.789-5.906
	c-0.078-1.419-1.026-2.935-1.941-4.133c-1.492-1.954-1.64-3.269-0.001-5.063c0.594-0.649,1.233-1.259,1.875-1.863
	c1.466-1.38,3.024-1.533,4.433-0.02c2.26,2.429,4.924,1.919,7.582,1.132c2.118-0.627,2.579-2.453,2.651-4.392
	c0.058-1.546-0.037-3.474,1.779-3.772c2.046-0.336,4.253-0.096,6.312,0.3c0.539,0.104,0.994,1.683,1.134,2.636
	c0.411,2.811,2.563,5.543,5.197,6.251c1.845,0.496,3.258-0.299,4.52-1.571c1.092-1.102,2.412-2.403,3.947-1.29
	C126.333,30.141,127.701,31.887,129.307,33.501z M93.803,50.999c-0.026,7.289,5.475,12.98,12.559,12.995
	c6.922,0.014,12.67-5.714,12.734-12.688c0.067-7.182-5.565-12.928-12.667-12.921C99.301,38.39,93.83,43.857,93.803,50.999z"/>
<path fill="none" stroke="#3F4CE3" stroke-miterlimit="10" d="M133.656,89.652c-0.009,2.247,1.688,4.002,3.872,4.007
	c2.135,0.004,3.907-1.762,3.927-3.913c0.021-2.215-1.717-3.985-3.906-3.984C135.351,85.764,133.664,87.45,133.656,89.652z"/>
</svg>
