<?xml version="1.0" encoding="utf-8"?>
<!-- Generator: Adobe Illustrator 16.0.0, SVG Export Plug-In . SVG Version: 6.00 Build 0)  -->
<!DOCTYPE svg PUBLIC "-//W3C//DTD SVG 1.1//EN" "http://www.w3.org/Graphics/SVG/1.1/DTD/svg11.dtd">
<svg version="1.1" id="Layer_1" xmlns="http://www.w3.org/2000/svg" xmlns:xlink="http://www.w3.org/1999/xlink" x="0px" y="0px"
	 width="250px" height="250px" viewBox="0 0 250 250" enable-background="new 0 0 250 250" xml:space="preserve">
<path fill="#3F4CE3" d="M122.777,32.654c3.657,0,7.326-0.177,10.97,0.035c8.527,0.498,11.566-2.21,12.28-10.684
	c0.226-2.694-1.353-3.2-3.104-4.146c-4.309-2.328-5.666-6.087-3.898-10.522c1.652-4.143,5.163-5.84,9.512-4.876
	c5.947,1.319,11.88,2.76,17.704,4.528c4.436,1.348,7.052,4.574,6.31,9.409c-0.679,4.426-3.72,7.04-8.148,6.856
	c-7.465-0.31-4.681,5.975-6.265,9.32c-1.481,3.134-0.258,5.292,3.279,6.664c7.983,3.097,15.576,7.105,22.178,12.603
	c3.753,3.125,5.934,0.679,7.825-1.742c1.96-2.505,7.882-3.414,3.611-8.949c-2.877-3.73-2.178-7.956,1.708-11.016
	c3.599-2.833,7.511-2.383,10.729,0.453c4.565,4.024,8.942,8.313,13.015,12.834c2.873,3.189,3.271,7.222,0.55,10.766
	c-2.669,3.472-6.391,4.556-10.403,2.313c-6.293-3.514-6.853,3.37-9.99,5.438c-3.709,2.446-1.271,4.928,0.582,7.265
	c5.031,6.34,9.34,13.177,12.235,20.714c1.685,4.384,4.112,4.63,7.902,3.302c3.379-1.185,8.237-0.117,6.96-6.611
	c-0.859-4.379,1.603-7.609,6.005-8.688c4.793-1.175,8.106,1.089,9.853,5.453c2.542,6.35,4.366,12.938,5.357,19.71
	c0.551,3.775-1.034,6.858-4.471,8.416c-3.636,1.646-7.881,1.452-9.824-2.159c-3.624-6.74-7.904-2.043-11.839-1.296
	c-4.899,0.929-2.811,4.665-2.543,7.607c0.709,7.794,1.013,15.626,0.018,23.384c-0.592,4.607,1.708,5.955,5.427,6.944
	c3.365,0.894,6.146,2.447,8.137-2.521c1.683-4.199,5.688-6.123,10.319-4.076c4.364,1.928,6.045,5.499,4.889,10.191
	c-1.398,5.677-2.767,11.365-4.387,16.979c-1.293,4.482-4.363,7.266-9.189,6.587c-4.34-0.608-7.279-3.67-7.075-8.037
	c0.317-6.806-5.229-4.238-8.169-5.609c-3.218-1.501-4.698,0.634-5.796,3.534c-3.034,8.021-7.03,15.604-12.348,22.321
	c-2.592,3.274-2.263,5.429,0.624,7.971c2.396,2.109,3.83,5.764,8.108,1.981c3.283-2.905,7.481-2.213,10.503,1.084
	c3.234,3.525,3.201,7.513,0.183,11.26c-4.142,5.142-8.705,9.9-13.898,13.992c-3.467,2.729-7.229,2.93-10.718,0.085
	c-3.23-2.637-4.33-6.467-1.998-9.792c3.439-4.901-0.88-6.235-3.041-8.755c-2.854-3.325-5.075-1.182-7.431,0.676
	c-6.743,5.319-14.026,9.789-22.032,12.882c-3.587,1.386-4.264,3.554-3.299,6.781c0.795,2.653,0.665,5.942,5.213,5.396
	c4.833-0.58,8.178,2.091,8.943,6.745c0.842,5.112-2.171,8.328-6.93,9.706c-5.608,1.624-11.252,3.175-16.956,4.393
	c-4.308,0.919-7.85-0.725-9.418-4.999c-1.516-4.127-0.594-8.168,3.553-9.988c4.206-1.85,2.639-4.381,1.924-7.101
	c-0.83-3.151-2.23-5.067-6.118-4.45c-8.954,1.422-17.996,1.614-26.971,0.203c-4.319-0.681-5.224,1.8-6.451,5.063
	c-1.347,3.583,0.147,4.385,3.066,5.68c3.698,1.644,5.167,5.173,4.109,9.202c-1.118,4.261-4.037,6.748-8.544,6.486
	c-7.364-0.429-14.419-2.489-21.22-5.19c-3.485-1.385-5.137-4.628-4.595-8.357c0.585-4.024,3.229-7.194,7.287-6.876
	c5.332,0.419,5.829-2.633,6.67-6.417c1.07-4.816-2.706-4.963-5.409-6.185c-7.585-3.428-14.863-7.378-21.366-12.619
	c-2.018-1.626-3.994-3.28-6.133-0.44c-1.762,2.338-6.529,3.321-3.269,8.055c2.813,4.083,1.513,8.075-2.267,10.901
	c-3.647,2.728-7.479,2.002-10.674-0.976c-4.279-3.988-8.459-8.096-12.452-12.366c-3.092-3.308-3.129-7.149-0.27-10.615
	c2.583-3.13,6.264-4.562,9.751-2.093c4.908,3.475,6.255-1.063,8.742-3.162c3.132-2.645,0.739-4.729-0.827-6.816
	c-5.155-6.863-9.454-14.22-12.617-22.196c-1.103-2.78-2.329-5.024-5.769-3.705c-3.003,1.151-7.77-0.043-7.188,5.991
	c0.436,4.527-2.537,7.3-6.863,8.083c-4.563,0.825-7.709-1.683-9.054-5.711c-2.001-5.993-3.64-12.137-4.947-18.319
	c-0.88-4.159,0.459-7.954,4.891-9.465c4.096-1.396,8.199-0.643,9.99,3.593c2.364,5.59,5.801,2.45,9.017,1.803
	c3.778-0.759,4.249-3.273,3.611-6.579c-1.589-8.249-1.052-16.522,0.008-24.781c0.346-2.692,1.161-5.743-2.787-6.251
	c-3.354-0.432-6.988-4.815-10.141,0.775c-2.409,4.271-6.543,5.148-10.779,3.166c-4.006-1.875-5.102-5.402-4.29-9.833
	c1.059-5.779,2.399-11.458,4.374-16.982c1.474-4.122,4.417-6.675,8.836-6.161c4.694,0.545,7.814,3.713,7.421,8.444
	c-0.548,6.588,4.546,4.858,7.719,6.142c3.738,1.511,5.061-0.383,6.372-3.605c3.228-7.935,7.427-15.405,12.982-21.96
	c2.18-2.572,2.691-4.703-0.196-6.621c-2.916-1.939-3.639-8.57-9.545-4.493c-3.768,2.6-7.549,1.877-10.492-1.439
	c-3.256-3.67-2.874-7.778,0.232-11.276c4.042-4.553,8.335-8.905,12.76-13.089c3.355-3.172,7.412-3.943,11.287-0.965
	c3.889,2.989,4.461,7.18,1.749,11.043c-4.228,6.022,2.454,6.665,4.356,9.553c2.167,3.29,4.646,2.217,7.337,0.077
	c6.523-5.187,13.697-9.41,21.506-12.314c3.558-1.324,4.7-3.241,3.251-6.542c-1.434-3.268,0.907-9.163-6.021-8.76
	c-4.889,0.283-8.013-2.178-8.711-6.961c-0.706-4.838,1.972-7.756,6.392-9.369C89.503,5.887,95.33,4.144,101.374,3.2
	c4.328-0.675,7.91,0.563,9.498,4.873c1.5,4.068,0.773,8.216-3.367,10.095c-6.157,2.796-1.835,6.392-1.292,9.667
	c0.647,3.908,2.631,6.026,7.081,5.182c3.094-0.588,6.314-0.514,9.478-0.734C122.774,32.407,122.776,32.531,122.777,32.654"/>
<path fill="#FFFFFF" d="M140.505,138.547c0.378-12.088,10.284-21.404,22.417-21.079c12.106,0.324,21.561,10.171,21.334,22.221
	c-0.229,12.268-10.557,21.992-22.844,21.511C149.462,160.734,140.126,150.618,140.505,138.547"/>
<path fill="#FFFFFF" d="M114.098,162.929c-0.041,9.148-7.081,16.319-16.117,16.416c-9.537,0.103-16.888-7.019-16.942-16.413
	c-0.054-9.163,7.665-16.666,16.938-16.464C107.047,146.666,114.138,153.905,114.098,162.929"/>
<path fill="#FFFFFF" d="M118.283,98.641c0.196,6.23-5.034,11.612-11.372,11.703c-6.313,0.089-11.562-5.109-11.601-11.49
	c-0.037-5.88,5.005-11.092,11.003-11.374C112.51,87.188,118.087,92.388,118.283,98.641"/>
</svg>
