<?xml version="1.0" encoding="utf-8"?>
<!-- Generator: Adobe Illustrator 16.0.0, SVG Export Plug-In . SVG Version: 6.00 Build 0)  -->
<!DOCTYPE svg PUBLIC "-//W3C//DTD SVG 1.1//EN" "http://www.w3.org/Graphics/SVG/1.1/DTD/svg11.dtd">
<svg version="1.1" id="Layer_1" xmlns="http://www.w3.org/2000/svg" xmlns:xlink="http://www.w3.org/1999/xlink" x="0px" y="0px"
	 width="220.5px" height="250px" viewBox="0 0 220.5 250" enable-background="new 0 0 220.5 250" xml:space="preserve">
<g>
	<g>
		<g opacity="0.1">
			<g>
				<defs>
					<rect id="SVGID_1_" x="53.662" y="230.737" width="144.726" height="8.458"/>
				</defs>
				<clipPath id="SVGID_2_">
					<use xlink:href="#SVGID_1_"  overflow="visible"/>
				</clipPath>
				<path clip-path="url(#SVGID_2_)" fill="#0E2128" d="M198.388,234.966c0,2.336-32.397,4.229-72.363,4.229
					c-39.964,0-72.362-1.894-72.362-4.229c0-2.335,32.398-4.229,72.362-4.229C165.99,230.737,198.388,232.631,198.388,234.966"/>
			</g>
		</g>
		<g opacity="0.1">
			<g>
				<defs>
					<rect id="SVGID_3_" x="18.422" y="228.229" width="49.185" height="4.016"/>
				</defs>
				<clipPath id="SVGID_4_">
					<use xlink:href="#SVGID_3_"  overflow="visible"/>
				</clipPath>
				<path clip-path="url(#SVGID_4_)" fill="#0E2128" d="M67.606,230.237c0,1.108-11.011,2.008-24.593,2.008
					s-24.592-0.899-24.592-2.008c0-1.109,11.01-2.008,24.592-2.008S67.606,229.128,67.606,230.237"/>
			</g>
		</g>
		
			<line fill="none" stroke="#00779B" stroke-width="3.806" stroke-miterlimit="10" x1="182.373" y1="149.895" x2="182.373" y2="216.843"/>
		<path fill="#F06565" d="M170.395,149.658c0,0,10.498,4.825,23.958-0.567l-7.269-17.882l-10.767-0.284L170.395,149.658z"/>
		<path fill="#EA5857" d="M189.933,138.22c-4.229,5.193-11.099,7.381-18.309,7.549l-1.229,3.89c0,0,10.498,4.825,23.958-0.567
			L189.933,138.22z"/>
		<path fill="#0095B1" d="M58.179,199.397c0.117-0.039,0.229-0.084,0.333-0.135"/>
		<path fill="#F8C2C8" d="M128.129,180.264c0-7.608-2.163-9.953-4.832-9.953H84.886c-2.669,0-4.832-0.032-4.832,7.576v40.616
			c0-1.823,2.163,0.522,4.832,0.522h38.411c2.669,0,4.832-2.346,4.832-0.522V180.264z"/>
		<path fill="#F8C2C8" d="M176.211,177.887c0-7.608-2.162-7.576-4.831-7.576h-38.411c-2.669,0-4.832-0.032-4.832,7.576v40.616
			c0-1.823,2.163,0.522,4.832,0.522h38.411c2.669,0,4.831-2.346,4.831-0.522V177.887z"/>
		<g opacity="0.7">
			<g>
				<defs>
					<rect id="SVGID_5_" x="80.054" y="176.736" width="96.158" height="42.289"/>
				</defs>
				<clipPath id="SVGID_6_">
					<use xlink:href="#SVGID_5_"  overflow="visible"/>
				</clipPath>
				<path clip-path="url(#SVGID_6_)" fill="#EAADB1" d="M80.055,201.479v17.023c0-1.823,2.184,0.522,4.877,0.522h38.777
					c1.963,0,3.654-1.243,4.428-1.215v0.692c0-0.347,0.078-0.543,0.224-0.633c0.147,0.09,0.227,0.286,0.227,0.633v-0.692
					c0.769-0.024,2.441,1.215,4.382,1.215h38.411c2.669,0,4.831-2.346,4.831-0.522v-40.616c0-0.406-0.007-0.786-0.019-1.15
					L80.055,201.479z"/>
			</g>
		</g>
		<path fill="#EAADB1" d="M82.801,211.644c0,2.742-2.049,4.964-4.578,4.964H68.148c-2.529,0-4.578-2.222-4.578-4.964v-17.87
			c0-2.743,2.049-4.966,4.578-4.966h10.074c2.529,0,4.578,2.223,4.578,4.966V211.644z"/>
		<path fill="#EAADB1" d="M82.343,211.644c0,2.742-2.05,4.964-4.579,4.964H67.689c-2.528,0-4.578-2.222-4.578-4.964v-17.87
			c0-2.743,2.05-4.966,4.578-4.966h10.074c2.529,0,4.579,2.223,4.579,4.966V211.644z"/>
		<path fill="#EAADB1" d="M192.696,211.644c0,2.742-2.051,4.964-4.579,4.964h-10.073c-2.529,0-4.58-2.222-4.58-4.964v-17.87
			c0-2.743,2.051-4.966,4.58-4.966h10.073c2.528,0,4.579,2.223,4.579,4.966V211.644z"/>
		<path fill="#0E2128" d="M70.125,234.604c0,0.754-0.563,1.365-1.26,1.365c-0.694,0-1.259-0.611-1.259-1.365v-4.716
			c0-0.754,0.564-1.365,1.259-1.365c0.696,0,1.26,0.611,1.26,1.365V234.604z"/>
		<path fill="#0E2128" d="M187.575,234.604c0,0.754-0.564,1.365-1.26,1.365c-0.696,0-1.258-0.611-1.258-1.365v-4.716
			c0-0.754,0.562-1.365,1.258-1.365c0.695,0,1.26,0.611,1.26,1.365V234.604z"/>
		<path fill="#F8C2C8" d="M188.377,188.808h-5.037c-2.528,0-4.58,2.223-4.58,4.964v24.822H76.422v-24.822
			c0-2.741-2.051-4.964-4.58-4.964h-5.037c-2.528,0-4.578,2.223-4.578,4.964v34.006c0,1.435,0.564,2.724,1.463,3.63
			c0.835,0.972,2.023,1.583,3.346,1.583l121.342-0.249c2.529,0,4.578-2.223,4.578-4.964v-34.006
			C192.955,191.03,190.906,188.808,188.377,188.808"/>
		<path fill="#FACFD4" d="M128.133,217.601c0,2.741-2.05,4.964-4.578,4.964H79.367c-2.528,0-4.579-2.223-4.579-4.964v-4.468
			c0-2.741,2.051-4.964,4.579-4.964h44.188c2.528,0,4.578,2.223,4.578,4.964V217.601z"/>
		<path fill="#FACFD4" d="M180.791,217.601c0,2.741-2.051,4.964-4.579,4.964h-43.5c-2.529,0-4.579-2.223-4.579-4.964v-4.468
			c0-2.741,2.05-4.964,4.579-4.964h43.5c2.528,0,4.579,2.223,4.579,4.964V217.601z"/>
		<path fill="#F79D75" d="M81.689,206.396c0,0-1.109,3.645,0.505,4.457c1.615,0.813,9.729,3.22,11.991,1.997
			c2.264-1.223,1.248-6.199,1.248-6.199L81.689,206.396z"/>
		<path fill="#F58F69" d="M81.689,206.396c0,0-1.109,3.645,0.505,4.457c1.615,0.813,9.729,3.22,11.991,1.997
			c2.264-1.223,1.248-6.199,1.248-6.199L81.689,206.396z"/>
		<polygon fill="#CAEAF4" points="91.24,207.327 125.498,210.668 126.548,198.021 92.289,194.679 		"/>
		<g opacity="0.2">
			<g>
				<defs>
					<rect id="SVGID_7_" x="91.24" y="194.679" width="35.308" height="15.989"/>
				</defs>
				<clipPath id="SVGID_8_">
					<use xlink:href="#SVGID_7_"  overflow="visible"/>
				</clipPath>
				<polygon clip-path="url(#SVGID_8_)" fill="#0E2128" points="91.24,207.327 125.498,210.668 126.548,198.021 92.289,194.679 				
					"/>
			</g>
		</g>
		<path fill="#CAEAF4" d="M95.059,198.983c0,0-12.301-6.04-16.314-6.109s-6.063,4.896-6.047,8.287
			c0.017,3.391,15.35,8.759,30.681,10.577l8.13-4.694L95.059,198.983z"/>
		<g opacity="0.1">
			<g>
				<defs>
					<rect id="SVGID_9_" x="81.775" y="193.497" width="29.733" height="18.241"/>
				</defs>
				<clipPath id="SVGID_10_">
					<use xlink:href="#SVGID_9_"  overflow="visible"/>
				</clipPath>
				<path clip-path="url(#SVGID_10_)" fill="#0E2128" d="M95.059,198.983c0,0-8.006-3.93-13.207-5.486
					c-0.832,4.976,5.394,7.795,9.092,8.436c0.598,0.102,1.25,0.696,1.108,1.438c-0.472,2.476-2.313,4.105-4.236,5.357
					c4.739,1.283,10.151,2.368,15.563,3.01l8.13-4.694L95.059,198.983z"/>
			</g>
		</g>
		<path fill="#CAEAF4" d="M89.469,208.93c0,0-0.014,2.593,1.508,4.625c1.52,2.033,28.625,0.754,34.77-2.868
			c6.143-3.622,8.12-9.772,3.547-12.972C124.719,194.516,105.188,206.741,89.469,208.93"/>
		<path fill="#F58F69" d="M104.627,162.001c0,0,0.557,2.747,0.191,3.987c-0.363,1.238-11.514,0.15-5.629,4.834
			s16.803-2.47,17.379-4.68c0.575-2.212-5.457,3.985-4.723-7.563C112.305,151.388,104.627,162.001,104.627,162.001"/>
		<path fill="#F58F69" d="M98.39,151.491c0,0-0.333-0.518-0.875,0.661s0.274,3.828,1.183,4.23
			C99.607,156.786,98.39,151.491,98.39,151.491"/>
		<path fill="#0E2128" d="M97.863,148.918c0,0-0.637,3.521,1.215,6.09l0.633-6.805L97.863,148.918z"/>
		<path fill="#0E2128" d="M114.44,154.864c0,0,0.202,2.276-1.358,3.827c-0.045,0.044-0.092,0.089-0.139,0.131
			c-1.713,1.55,0.008-3.432,0.008-3.432L114.44,154.864z"/>
		<path fill="#F79D75" d="M104.195,143.939c0,0-5.66,1.015-5.934,6.81c-0.275,5.794,1.334,14.608,7.932,13.908
			s8.137-9.281,7.252-12.727C112.561,148.486,110.16,142.58,104.195,143.939"/>
		<path fill="#231F20" d="M116.348,142.662c-1.99-3.173-3.879-0.528-3.879-0.528c0.643-1.951-1.041-4.878-3.518-4.074
			c-1.588,0.516-4.178,0.808-5.139-0.277c-1.448-1.634-3.203-2.77-4.08-1.442c-1.575,2.384,1.679,2.999,1.679,2.999
			c-3.097,0.818-5.416-3.588-7.802,0.284c-2.271,3.684,3.127,6.275,3.127,6.275s-2.465-0.166-1.966,2.122
			c0.587,2.691,4.966,0.708,4.966,0.708s-1.772,2.29,0.711,3.054c2.383,0.733,3.611-2.933,4.832-4.305
			c2.201-2.472,4.076-1.841,4.076-1.841c-0.642,4.414,1.965,3.699,2.27,5.819c0.308,2.119,0.284,4.057,0.284,4.057l1.093,0.107
			c0.594-1.361-0.184-4.421,0.548-4.947c0.472-0.339,1.17,0.174,1.677,0.536C115.559,148.033,117.646,144.729,116.348,142.662"/>
		<path fill="#0E2128" d="M99.102,145.877c-0.334,0.103-0.584,0.148-0.873,0.185c-0.277,0.039-0.553,0.062-0.826,0.063
			c-0.547,0-1.086-0.053-1.594-0.195c-0.51-0.133-0.998-0.327-1.434-0.601c-0.449-0.251-0.838-0.582-1.225-0.908
			c0.202,0.153,0.401,0.312,0.613,0.446c0.223,0.118,0.433,0.258,0.67,0.344c0.455,0.21,0.953,0.302,1.435,0.348
			c0.487,0.034,0.975-0.021,1.429-0.163c0.227-0.074,0.446-0.159,0.654-0.263c0.195-0.109,0.421-0.241,0.539-0.367L99.102,145.877z"
			/>
		<path fill="#0E2128" d="M94.451,147.125c-0.063,0.712,0.113,1.487,0.627,1.979c0.511,0.499,1.254,0.616,1.932,0.514
			c0.684-0.111,1.344-0.384,1.871-0.804c0.533-0.406,0.923-0.962,1.094-1.554l1.327,0.834c-0.614,0.626-1.296,1.103-2.025,1.408
			c-0.725,0.309-1.483,0.475-2.239,0.486c-0.75,0.032-1.565-0.213-2.057-0.794C94.488,148.618,94.371,147.834,94.451,147.125"/>
		<path fill="#0E2128" d="M98.025,146.343c-0.971-0.016-1.914-0.222-2.756-0.649c-0.836-0.419-1.561-1.113-1.932-1.944
			c-0.41-0.81-0.577-1.717-0.519-2.598c0.056-0.879,0.399-1.748,1.032-2.353c-0.303,0.314-0.535,0.688-0.69,1.09
			c-0.153,0.406-0.202,0.842-0.208,1.268c0.006,0.856,0.268,1.704,0.712,2.408c0.446,0.713,1.119,1.215,1.888,1.463
			c0.766,0.246,1.598,0.277,2.359,0.105L98.025,146.343z"/>
		<path fill="#0E2128" d="M98.906,136.334c-0.238,0.36-0.325,0.824-0.181,1.212c0.142,0.392,0.464,0.673,0.804,0.893
			c0.367,0.195,0.748,0.356,1.158,0.457c0.4,0.115,0.825,0.169,1.24,0.227l-0.25,0.959c-0.83-0.369-1.671-0.741-2.37-1.344
			c-0.339-0.309-0.638-0.696-0.729-1.152C98.486,137.132,98.641,136.671,98.906,136.334"/>
		<path fill="#0E2128" d="M103.346,136.767c0.208,0.552,0.672,0.984,1.211,1.199c0.547,0.206,1.15,0.209,1.721,0.1
			c1.151-0.206,2.274-0.576,3.48-0.624c0.596-0.017,1.25,0.098,1.756,0.498c0.52,0.394,0.799,0.972,1.068,1.5
			c0.137,0.273,0.262,0.557,0.355,0.859c0.107,0.298,0.176,0.62,0.203,0.961c0.069,0.684-0.162,1.44-0.5,2.059l-1.234-0.829l0,0
			c0.287-0.382,0.568-0.662,0.893-0.949c0.322-0.277,0.672-0.526,1.061-0.714c0.384-0.189,0.814-0.306,1.238-0.3
			s0.819,0.148,1.141,0.359c-0.375-0.099-0.758-0.097-1.093,0.011c-0.335,0.111-0.624,0.306-0.868,0.549
			c-0.246,0.24-0.451,0.526-0.629,0.825c-0.172,0.294-0.336,0.638-0.424,0.921l-1.234-0.827c0.422-0.273,0.707-0.642,0.808-1.139
			c0.101-0.494,0.008-1.063-0.171-1.597c-0.199-0.533-0.405-1.08-0.829-1.422c-0.405-0.36-0.973-0.502-1.54-0.519
			c-1.152-0.022-2.307,0.295-3.467,0.464c-0.584,0.089-1.195,0.062-1.748-0.155C104,137.77,103.543,137.322,103.346,136.767"/>
		<path fill="#0E2128" d="M109.28,146.508c-0.624-0.272-1.472-0.178-2.188,0.181c-0.744,0.342-1.297,0.986-1.73,1.743
			c-0.427,0.755-0.777,1.573-1.207,2.349c-0.428,0.771-0.988,1.509-1.781,1.919c0.382-0.223,0.716-0.515,0.994-0.853
			c0.266-0.351,0.479-0.733,0.668-1.128c0.369-0.796,0.623-1.638,0.99-2.457c0.175-0.413,0.377-0.824,0.645-1.21
			c0.254-0.398,0.59-0.752,0.955-1.063c0.743-0.613,1.665-1.096,2.806-1.223L109.28,146.508z"/>
		<path fill="#F79D75" d="M113.199,151.341c0,0,0.979-2.207,2.147-0.295s-0.731,5.611-2.275,5.028
			C113.071,156.074,113.057,153.053,113.199,151.341"/>
		<path fill="#E37F5C" d="M104.123,153.111c0.301,0.928,0.396,1.889,0.398,2.85c-0.01,0.96-0.137,1.933-0.471,2.857l-0.363-0.313
			c0.5-0.147,1.004-0.283,1.532-0.361c-0.423,0.326-0.87,0.596-1.323,0.852l-0.44,0.251l0.079-0.563
			c0.127-0.91,0.192-1.827,0.271-2.754C103.883,155.002,103.957,154.069,104.123,153.111"/>
		<path fill="#E37F5C" d="M103.117,160.253c0.803,0.174,1.497,0.345,2.186,0.36c0.344,0.015,0.676-0.023,1.018-0.101
			c0.35-0.065,0.676-0.224,1.074-0.365c-0.182,0.365-0.47,0.708-0.856,0.906c-0.376,0.209-0.821,0.328-1.255,0.306
			c-0.433-0.015-0.851-0.132-1.223-0.318C103.691,160.853,103.354,160.599,103.117,160.253"/>
		<path fill="#E37F5C" d="M104.59,161.591c0.26,0.015,0.497,0.088,0.722,0.113c0.226,0.025,0.44,0.02,0.646-0.035
			c0.42-0.096,0.796-0.374,1.226-0.646c-0.107,0.229-0.246,0.45-0.442,0.622c-0.185,0.183-0.429,0.317-0.695,0.387
			c-0.268,0.064-0.556,0.047-0.804-0.045C104.987,161.9,104.791,161.736,104.59,161.591"/>
		<path fill="#0E2128" d="M99.256,152.86c0.006-0.554,0.247-1.041,0.609-1.445c0.365-0.398,0.917-0.704,1.535-0.75
			c0.611-0.046,1.238,0.161,1.645,0.531c0.221,0.17,0.369,0.399,0.518,0.613c0.115,0.241,0.218,0.48,0.262,0.75
			c-0.286-0.041-0.507-0.122-0.729-0.186c-0.229-0.035-0.418-0.123-0.611-0.146c-0.375-0.099-0.677-0.087-0.966-0.076
			c-0.29,0.02-0.604,0.086-0.976,0.216C100.172,152.496,99.765,152.666,99.256,152.86"/>
		<path fill="#0E2128" d="M106.109,152.41c0.005-0.555,0.246-1.042,0.609-1.446c0.365-0.397,0.916-0.704,1.534-0.75
			c0.61-0.047,1.238,0.161,1.645,0.532c0.221,0.169,0.368,0.399,0.518,0.611c0.116,0.243,0.218,0.482,0.262,0.752
			c-0.286-0.042-0.507-0.123-0.728-0.187c-0.229-0.035-0.419-0.122-0.611-0.146c-0.376-0.098-0.679-0.087-0.967-0.076
			c-0.289,0.02-0.604,0.087-0.975,0.216C107.023,152.045,106.617,152.216,106.109,152.41"/>
		<path fill="#E37F5C" d="M113.988,155.343c0.11-0.276,0.223-0.564,0.214-0.802c-0.001-0.118-0.046-0.18-0.097-0.197
			c-0.041-0.033-0.156-0.047-0.262-0.057l-0.219-0.022l-0.031-0.261c-0.051-0.421-0.07-0.83-0.048-1.253
			c0.032-0.424,0.063-0.843,0.292-1.31c0.063-0.113,0.146-0.247,0.314-0.357c0.168-0.121,0.443-0.12,0.582-0.04
			c0.156,0.075,0.229,0.157,0.32,0.233c0.084,0.086,0.17,0.173,0.23,0.284c0.131,0.213,0.195,0.48,0.139,0.714
			c-0.045,0.233-0.174,0.427-0.333,0.563c0.135-0.406,0.056-0.787-0.188-0.982c-0.058-0.054-0.126-0.101-0.194-0.146
			c-0.074-0.04-0.159-0.089-0.192-0.087c-0.047-0.002,0.001,0.009,0.005,0.009c0.002,0.006-0.032,0.048-0.054,0.116
			c-0.103,0.276-0.149,0.68-0.186,1.057c-0.036,0.385-0.066,0.783-0.088,1.172l-0.251-0.283c0.174,0.06,0.364,0.106,0.526,0.295
			c0.163,0.191,0.163,0.452,0.108,0.617C114.454,154.944,114.236,155.164,113.988,155.343"/>
		<path fill="#F06565" d="M101.339,166.978c0,0,0.962,2.59,4.713,3.055c5.433,0.675,7.829-4.573,7.829-4.573s6.742-0.929,7.789,3.79
			c1.045,4.718-1.912,23.037-5.109,28.495c-3.198,5.459-18.578,3.381-21.498-2.386c-2.92-5.766-0.906-13.495-1.119-21.17
			C93.748,167.102,101.339,166.978,101.339,166.978"/>
		<path fill="#EA5857" d="M120.241,177.151c-10.397,9.583-25.964,9.341-26.772,9.314c-0.04,3.244,0.266,6.272,1.594,8.893
			c2.92,5.767,18.3,7.845,21.498,2.386c2.515-4.292,4.881-16.541,5.268-23.87C120.659,174.918,121.288,176.187,120.241,177.151"/>
		<path fill="#F79D75" d="M93.856,197.4c0,0,7.957,4.06,0.396-0.664c0,0,7.125,3.952,0.42-1.086
			c-0.512-0.384-1.005-0.769-1.482-1.15c4.698-0.409-0.254-0.909-1.217-0.999c-4.382-3.688-7.029-6.906-7.029-6.906l5.533-6.712
			l-4.639-7.851c0,0-6.873,8.848-8.544,11.305c-2.466,3.63-2.288,5.47,0.028,7.168c2.693,1.973,25.989,14.588,16.104,7.671
			C93.426,198.176,102.36,203.634,93.856,197.4"/>
		<path fill="#F58F69" d="M88.082,182.786l2.395-2.903l-4.639-7.851c0,0-1.732,2.231-3.67,4.764
			C83.882,179.057,85.945,180.971,88.082,182.786"/>
		<path fill="#F06565" d="M100.432,167.082c0,0-7.072-0.775-8.916,0.147c-1.842,0.921-8.573,7.185-8.573,7.185
			s2.438,4.9,6.458,7.038C90.53,182.053,100.432,167.082,100.432,167.082"/>
		<path fill="#F79D75" d="M120.25,196.853c0,0-8.229,3.425-0.353-0.69c0,0-7.39,3.382-0.351-1.111
			c0.537-0.343,1.057-0.688,1.561-1.031c-4.677-0.766-0.087-0.998,0.883-1.015c4.628-3.329,6.279-5.896,6.279-5.896l-6.59-9.872
			l3.688-7.8c0,0,9.027,12.078,10.54,14.648c2.233,3.797,0.826,6.582-1.604,8.093c-2.823,1.756-24.02,11.596-13.672,5.478
			C120.631,197.655,111.332,202.396,120.25,196.853"/>
		<path fill="#F58F69" d="M130.202,175.978c-2.496-3.411-4.835-6.54-4.835-6.54l-3.689,7.799l2.485,3.771
			C126.373,179.594,128.441,177.975,130.202,175.978"/>
		<path fill="#F06565" d="M113.666,165.475c0,0,4.143-1.397,8.498,0.393c1.896,0.779,7.729,7.691,7.729,7.691
			s-3.422,4.034-7.586,5.852C121.137,179.92,113.666,165.475,113.666,165.475"/>
		<path fill="#A43220" d="M50.106,195.817l8.919,32.188c0.305,1.099-0.327,2.283-1.403,2.633c-1.075,0.352-2.204-0.261-2.509-1.359
			l-8.918-32.187"/>
		<path fill="#B6371E" d="M30.358,195.817l-8.919,32.188c-0.305,1.099,0.326,2.283,1.402,2.633c1.076,0.352,2.205-0.261,2.509-1.359
			l8.919-32.187"/>
		<path fill="#A43220" d="M28.381,202.953c0,0,1.821-3.646,5.321-3.812l0.767-2.697l-3.144-0.126l-0.967-0.501L28.381,202.953z"/>
		<path fill="#D74223" d="M42.619,197.433v35.693c0,1.217-0.918,2.214-2.041,2.214c-1.124,0-2.043-0.997-2.043-2.214v-35.693"/>
		<path fill="#B6371E" d="M20.953,193.906v1.94c0,0.335,0.227,0.62,0.532,0.668c2.956,0.459,17.923,2.498,37.198-0.016
			c0.313-0.04,0.549-0.329,0.549-0.67v-1.923"/>
		<path fill="#D74223" d="M59.232,193.906c0,0.788-8.568,1.427-19.139,1.427c-10.571,0-19.141-0.639-19.141-1.427
			c0-0.787,8.569-1.426,19.141-1.426C50.664,192.48,59.232,193.119,59.232,193.906"/>
		<line fill="none" stroke="#FFFFFF" stroke-width="5" stroke-miterlimit="10" x1="11.988" y1="63.012" x2="11.988" y2="245.964"/>
		<path fill="none" stroke="#2937E8" stroke-width="5" stroke-miterlimit="10" d="M11.988,63.012v180.869
			c0,1.15,0.932,2.083,2.084,2.083h193.246c1.15,0,2.083-0.933,2.083-2.083V63.012"/>
		<path fill="#404041" d="M121.168,194.366l-28.224,0.811c-0.154,0.004-0.284-0.119-0.29-0.274l-0.01-0.382
			c-0.004-0.155,0.118-0.286,0.273-0.29l28.223-0.811c0.155-0.005,0.285,0.118,0.29,0.273l0.011,0.383
			C121.445,194.231,121.322,194.361,121.168,194.366"/>
	</g>
	<g>
		<defs>
			<polygon id="SVGID_11_" points="93.685,171.066 94,180.704 120.131,179.973 121.883,170.223 			"/>
		</defs>
		<clipPath id="SVGID_12_">
			<use xlink:href="#SVGID_11_"  overflow="visible"/>
		</clipPath>
		<defs>
			<filter id="Adobe_OpacityMaskFilter" filterUnits="userSpaceOnUse" x="93.682" y="170.222" width="28.199" height="10.481">
				<feColorMatrix  type="matrix" values="1 0 0 0 0  0 1 0 0 0  0 0 1 0 0  0 0 0 1 0"/>
			</filter>
		</defs>
		<mask maskUnits="userSpaceOnUse" x="93.682" y="170.222" width="28.199" height="10.481" id="SVGID_13_">
			<g filter="url(#Adobe_OpacityMaskFilter)">
				
					<linearGradient id="SVGID_14_" gradientUnits="userSpaceOnUse" x1="-423.5659" y1="1123.8828" x2="-423.0527" y2="1123.8828" gradientTransform="matrix(0 -20.43 -20.43 0 23068.6406 -8472.7422)">
					<stop  offset="0" style="stop-color:#4D4D4D"/>
					<stop  offset="2.717170e-007" style="stop-color:#4D4D4D"/>
					<stop  offset="1" style="stop-color:#000000"/>
				</linearGradient>
				<rect x="93.685" y="170.223" clip-path="url(#SVGID_12_)" fill="url(#SVGID_14_)" width="28.198" height="10.481"/>
			</g>
		</mask>
		
			<linearGradient id="SVGID_15_" gradientUnits="userSpaceOnUse" x1="-423.5659" y1="1123.8828" x2="-423.0527" y2="1123.8828" gradientTransform="matrix(0 -20.43 -20.43 0 23068.6406 -8472.7422)">
			<stop  offset="0" style="stop-color:#FFFFFF"/>
			<stop  offset="2.717170e-007" style="stop-color:#FFFFFF"/>
			<stop  offset="1" style="stop-color:#2483C5"/>
		</linearGradient>
		
			<rect x="93.685" y="170.223" clip-path="url(#SVGID_12_)" mask="url(#SVGID_13_)" fill="url(#SVGID_15_)" width="28.198" height="10.481"/>
	</g>
	<g>
		<path fill="#404041" d="M118.697,177.39l-24.484,0.703c-0.729,0.021-1.303,0.629-1.282,1.358l0.431,15.021l27.127-0.779
			l-0.432-15.021C120.035,177.943,119.427,177.368,118.697,177.39"/>
		<path fill="none" stroke="#2937E8" stroke-width="5" stroke-linecap="round" stroke-miterlimit="10" d="M217.635,68.07
			c0,0-80.332-47.438-107.109-63.251C83.748,20.632,3.416,68.07,3.416,68.07"/>
		<rect x="50.287" y="176.736" fill="#A6A8AB" width="0.765" height="3.346"/>
		<path fill="#E6E7E8" d="M49.941,179.667v-0.641h1.433v0.637C51.374,179.663,50.248,179.613,49.941,179.667"/>
		<path fill="#00ADEE" d="M50.67,179.613c-2.472,0-4.475,1.757-4.475,3.924v9.516c0,0.338,0.32,0.612,0.715,0.612h7.518
			c0.396,0,0.717-0.274,0.717-0.612v-9.516C55.145,181.37,53.141,179.613,50.67,179.613"/>
		<path fill="#E6E7E8" d="M49.9,177.456c0.688-0.31,2.106-0.638,4.302,0.292v-0.582c0,0-2.699-1.803-4.531-1.269
			c-0.153,0.046-0.264,0.182-0.264,0.343v0.895C49.407,177.39,49.668,177.561,49.9,177.456"/>
	</g>
</g>
</svg>
