<?xml version="1.0" encoding="utf-8"?>
<!-- Generator: Adobe Illustrator 16.0.0, SVG Export Plug-In . SVG Version: 6.00 Build 0)  -->
<!DOCTYPE svg PUBLIC "-//W3C//DTD SVG 1.1//EN" "http://www.w3.org/Graphics/SVG/1.1/DTD/svg11.dtd">
<svg version="1.1" id="Layer_1" xmlns="http://www.w3.org/2000/svg" xmlns:xlink="http://www.w3.org/1999/xlink" x="0px" y="0px"
	 width="2831.435px" height="259.715px" viewBox="0 0 2831.435 259.715" enable-background="new 0 0 2831.435 259.715"
	 xml:space="preserve">
<g>
	<path fill="#2937E8" d="M33.593,183.998v64.004c0,18.285-28.622,17.887-28.622,0.396V19.424c0-8.35,6.758-13.914,14.708-13.914
		h86.264c68.772,0,100.972,45.715,100.972,91.432c0,47.703-32.598,87.057-102.165,87.057H33.593z M33.593,158.158h71.157
		c52.871,0,74.735-31.006,73.94-61.217c-0.397-32.598-26.237-65.594-72.349-65.594H33.593V158.158z"/>
	<path fill="#2937E8" d="M691.101,15.447c0-16.695,30.212-17.49,30.212,0v228.182c0,19.875-27.43,21.863-35.778,7.949
		L536.861,52.418l3.179,54.857v140.328c0,19.479-30.211,19.875-30.211,0V19.82c0-19.877,22.261-23.057,32.199-8.348l153.049,204.727
		l-3.976-60.027V15.447z"/>
	<path fill="#2937E8" d="M1229.35,248.797c-19.081,8.744-40.548,14.311-59.63,14.311c-67.976,0-129.196-55.654-129.196-134.365
		c0-65.195,46.511-116.873,107.73-126.412c46.511-6.361,87.059,5.168,118.463,38.16c11.926,13.516-9.541,29.816-20.672,17.889
		c-27.031-28.621-58.435-32.994-93.418-29.018c-48.896,7.553-83.481,42.137-83.481,99.779c0,60.424,46.511,106.535,101.37,106.535
		c14.709,0,31.007-3.975,46.112-11.527c12.325-6.359,24.25-15.9,32.598-26.633c9.143-13.518,33.393,1.191,23.057,15.9
		C1261.55,228.521,1246.442,240.447,1229.35,248.797"/>
	<path fill="#2937E8" d="M1679.75,44.74l-108.533,210.018c-7.155,14.709-33.393,4.373-26.237-11.527L1665.033,6.701
		c2.386-5.166,7.95-7.553,13.119-7.553c5.167,0,9.938,2.387,12.721,7.553l119.655,235.336
		c10.336,17.094-19.082,27.033-26.635,11.529l-31.007-61.617L1679.75,44.74z"/>
	<path fill="#2937E8" d="M335.003,46.643L228.834,256.631c-7.111,14.738-33.347,4.402-26.192-11.498L322.695,8.604
		c2.385-5.168,7.95-7.553,13.118-7.553s9.939,2.385,12.722,7.553L468.19,243.939c10.335,17.094-19.082,27.033-26.635,11.529
		l-44.973-89.947L335.003,46.643z"/>
	<path fill="#2937E8" d="M903.715,47.594L797.546,257.582c-7.11,14.738-33.347,4.402-26.192-11.498L891.407,9.555
		c2.386-5.168,7.951-7.553,13.118-7.553c5.169,0,9.939,2.385,12.722,7.553l119.655,235.336
		c10.336,17.094-19.082,27.031-26.634,11.529l-44.974-89.947L903.715,47.594z"/>
	<path fill="#2937E8" d="M1506.745,0h-180.737c-6.291,0-11.391,5.102-11.391,11.391v3.797c0,6.291,5.1,11.391,11.391,11.391h180.737
		c6.291,0,11.391-5.1,11.391-11.391v-3.797C1518.136,5.102,1513.036,0,1506.745,0"/>
	<path fill="#2937E8" d="M1506.745,117.707h-180.737c-6.291,0-11.391,5.1-11.391,11.391v3.797c0,6.291,5.1,11.391,11.391,11.391
		h180.737c6.291,0,11.391-5.1,11.391-11.391v-3.797C1518.136,122.807,1513.036,117.707,1506.745,117.707"/>
	<path fill="#2937E8" d="M1506.745,233.135h-180.737c-6.291,0-11.391,5.1-11.391,11.391v3.799c0,6.291,5.1,11.391,11.391,11.391
		h180.737c6.291,0,11.391-5.1,11.391-11.391v-3.799C1518.136,238.234,1513.036,233.135,1506.745,233.135"/>
	<path fill="#2937E8" d="M2470.108,209.15L2573.791,8.521c6.834-14.053,31.898-4.18,25.063,11.012L2484.166,245.49
		c-2.278,4.938-7.595,7.217-12.532,7.217c-4.937,0-9.494-2.279-12.153-7.217L2345.173,20.672
		c-9.873-16.33,18.229-25.824,25.445-11.014l29.62,58.863L2470.108,209.15z"/>
	<path fill="#2937E8" d="M2281.948,1.754h-3.627c-6.01,0-10.882,6.543-10.882,14.617v231.938c0,8.076,4.872,14.617,10.882,14.617
		h3.627c6.011,0,10.881-6.541,10.881-14.617V16.371C2292.829,8.297,2287.959,1.754,2281.948,1.754"/>
	<path fill="#2937E8" d="M2035.638,5.623h-3.629c-6.008,0-10.883,6.193-10.883,13.83v219.436c0,7.637,4.875,13.83,10.883,13.83
		h3.629c6.009,0,10.881-6.193,10.881-13.83V19.453C2046.519,11.816,2041.646,5.623,2035.638,5.623"/>
	<path fill="#2937E8" d="M2207.564,233.662h-172.659c-6.012,0-10.884,4.875-10.884,10.883v3.627c0,6.012,4.872,10.883,10.884,10.883
		h172.659c6.01,0,10.881-4.871,10.881-10.883v-3.627C2218.445,238.537,2213.574,233.662,2207.564,233.662"/>
	<path fill="#2937E8" d="M2824.829,229.793h-172.662c-6.01,0-10.881,4.871-10.881,10.881v3.627c0,6.01,4.871,10.881,10.881,10.881
		h172.662c6.008,0,10.881-4.871,10.881-10.881v-3.627C2835.71,234.664,2830.837,229.793,2824.829,229.793"/>
	<path fill="#2937E8" d="M2824.829,114.535h-172.662c-6.01,0-10.881,4.873-10.881,10.881v3.627c0,6.01,4.871,10.883,10.881,10.883
		h172.662c6.008,0,10.879-4.873,10.879-10.883v-3.627C2835.708,119.408,2830.837,114.535,2824.829,114.535"/>
	<path fill="#2937E8" d="M2824.827,1.754h-172.66c-6.011,0-10.883,4.871-10.883,10.881v3.625c0,6.012,4.872,10.887,10.883,10.887
		h172.66c6.01,0,10.881-4.875,10.881-10.887v-3.625C2835.708,6.625,2830.837,1.754,2824.827,1.754"/>
</g>
</svg>
