<?xml version="1.0" encoding="utf-8"?>
<!-- Generator: Adobe Illustrator 16.0.0, SVG Export Plug-In . SVG Version: 6.00 Build 0)  -->
<!DOCTYPE svg PUBLIC "-//W3C//DTD SVG 1.1//EN" "http://www.w3.org/Graphics/SVG/1.1/DTD/svg11.dtd">
<svg version="1.1" id="Layer_1" xmlns="http://www.w3.org/2000/svg" xmlns:xlink="http://www.w3.org/1999/xlink" x="0px" y="0px"
	 width="92.547px" height="117.43px" viewBox="78.726 66.337 92.547 117.43" enable-background="new 78.726 66.337 92.547 117.43"
	 xml:space="preserve">
<g>
	<path stroke="#0481FF" stroke-width="5" stroke-miterlimit="10" d="M159.939,95.652c0,0-22.197-7.232-33.598-15.032l-1.424-1.018
		l-1.3,1.018c-11.4,7.8-33.598,15.032-33.598,15.032s-0.61,4.15-0.692,10.333c-0.07,5.33,0.25,12.17,1.69,19.17
		c0.663,3.22,1.502,6.32,2.512,9.292c1.255,3.7,2.773,7.203,4.55,10.485c0.755,1.396,1.558,2.755,2.407,4.069
		c2.758,4.277,6.005,8.121,9.713,11.5c3.792,3.463,8.067,6.44,12.802,8.913l0.525,0.274l1.455,0.818l1.45-0.818l0.524-0.274
		c9.357-4.888,16.936-11.755,22.516-20.413c4.447-6.893,7.633-14.914,9.47-23.847C162.053,110.033,159.939,95.652,159.939,95.652z
		 M124.98,160.513l-0.015-0.011l0.015,0.008l0.015-0.008L124.98,160.513z"/>
	<path fill="#03477F" d="M170.375,88.715l-0.23-1.565l-1.502-0.49c-0.268-0.088-26.998-8.855-40.516-18.093l-3.117-2.23v6.272
		l0.215,0.153c12.35,8.45,34.248,16.182,40.291,18.232c0.504,4.617,1.656,18.952-1.386,33.745
		c-2.188,10.64-5.976,20.182-11.253,28.365c-6.6,10.236-15.56,18.359-26.637,24.145l-0.643,0.335l-0.585,0.327v5.855l2.985-1.68
		l0.607-0.318c11.867-6.199,21.477-14.914,28.563-25.902c5.622-8.712,9.645-18.842,11.962-30.102
		C172.984,107.002,170.482,89.453,170.375,88.715z"/>
	<path fill="#05ADFF" d="M124.995,177.922l-0.533-0.299l-0.712-0.373c-5.583-2.918-10.68-6.467-15.158-10.547
		c-4.377-3.996-8.24-8.57-11.48-13.598c-1.002-1.556-1.962-3.178-2.853-4.826c-2.092-3.861-3.91-8.052-5.405-12.454
		c-1.203-3.54-2.21-7.271-2.995-11.085c-1.45-7.043-2.13-14.765-2.02-22.953c0.065-4.913,0.413-8.775,0.633-10.792
		c6.042-2.05,27.942-9.783,40.292-18.232l0.222-0.167l0.02,0.015v-6.272l-0.16-0.112l-3.033,2.373
		c-13.53,9.225-40.203,17.975-40.47,18.063l-1.503,0.49l-0.23,1.565c-0.032,0.215-0.775,5.343-0.875,13.005
		c-0.115,8.555,0.6,16.646,2.125,24.048c0.828,4.02,1.89,7.957,3.163,11.695c1.585,4.675,3.52,9.133,5.748,13.244
		c0.953,1.76,1.978,3.498,3.053,5.16c3.477,5.398,7.625,10.308,12.33,14.603c4.8,4.378,10.263,8.181,16.233,11.3l0.61,0.318
		l3.002,1.688l0.01-0.006v-5.854L124.995,177.922z"/>
	<g>
		<path fill="#03477F" d="M159.975,95.725c0,0-3.112,40.679-49.74,64.853c3.792,3.459,8.07,6.439,12.803,8.912l0.525,0.275
			l1.455,0.816l1.453-0.816l0.524-0.275c9.357-4.888,16.933-11.756,22.515-20.412c4.445-6.893,7.633-14.916,9.468-23.848
			C162.09,110.105,159.975,95.725,159.975,95.725z M125.018,160.585l-0.015-0.01L125.018,160.585l0.015-0.01L125.018,160.585z"/>
		<path fill="#05ADFF" d="M159.975,95.725c0,0-32.399,22.762-70.612,10.335c-0.07,5.33,0.25,12.17,1.69,19.17
			c0.662,3.22,1.502,6.32,2.51,9.292C134.445,128.647,159.975,95.725,159.975,95.725z"/>
		<path fill="#04C6FF" d="M159.975,95.725c0,0-22.197-7.232-33.598-15.033l-1.422-1.018l-1.3,1.018
			c-11.402,7.8-33.597,15.033-33.597,15.033s-0.61,4.15-0.692,10.335C127.575,118.485,159.975,95.725,159.975,95.725z"/>
		<path fill="#0481FF" d="M159.975,95.725c0,0-11.185,35.32-61.859,49.28c0.757,1.397,1.557,2.755,2.407,4.07
			c2.757,4.277,6.005,8.12,9.712,11.5C156.862,136.404,159.975,95.725,159.975,95.725z"/>
		<path fill="#FFFFFF" d="M159.978,95.723c0,0-11.185,35.32-61.86,49.279c-1.768-3.262-3.278-6.739-4.528-10.414
			c-0.012,0.002-0.025,0.002-0.037,0.005c-1.01-2.973-1.85-6.073-2.513-9.29c-1.44-7.003-1.76-13.843-1.69-19.17
			c0,0,3.775,16.108,20.32,24.538C141.04,120.143,159.978,95.723,159.978,95.723z"/>
	</g>
</g>
</svg>
