<?xml version="1.0" encoding="utf-8"?>
<!-- Generator: Adobe Illustrator 16.0.0, SVG Export Plug-In . SVG Version: 6.00 Build 0)  -->
<!DOCTYPE svg PUBLIC "-//W3C//DTD SVG 1.1//EN" "http://www.w3.org/Graphics/SVG/1.1/DTD/svg11.dtd">
<svg version="1.1" id="Capa_1" xmlns="http://www.w3.org/2000/svg" xmlns:xlink="http://www.w3.org/1999/xlink" x="0px" y="0px"
	 width="512px" height="512px" viewBox="0 0 512 512" enable-background="new 0 0 512 512" xml:space="preserve">
<g>
	<path fill="#FFFFFF" d="M466,512c8.284,0,15-6.716,15-15V285c0-8.284-6.716-15-15-15s-15,6.716-15,15v45h-32.58
		c-6.192-17.458-22.865-30-42.42-30H211c0-33.084-26.916-60-60-60s-60,26.916-60,60c0,10.925,2.949,21.167,8.072,30H61V225
		c0-8.284-6.716-15-15-15s-15,6.716-15,15v272c0,8.284,6.716,15,15,15s15-6.716,15-15v-46h390v46C451,505.284,457.716,512,466,512z
		 M376,330c8.271,0,15,6.729,15,15v76H211c0-11.256,0-77.189,0-91H376z M121,300c0-16.542,13.458-30,30-30s30,13.458,30,30v30h-30
		C134.458,330,121,316.542,121,300z M61,360h120v61H61V360z M421,421v-61h30v61H421z"/>
	<path fill="#FFFFFF" d="M136,30c-8.284,0-15,6.716-15,15v47.995l-83.719,59.799c-6.741,4.815-8.302,14.184-3.487,20.925
		c4.814,6.74,14.183,8.302,20.925,3.487L256,33.434l201.281,143.772c6.712,4.794,16.088,3.283,20.925-3.487
		c4.815-6.741,3.254-16.11-3.487-20.925l-210-150c-5.216-3.726-12.222-3.726-17.438,0L151,71.567V45C151,36.716,144.284,30,136,30z"
		/>
</g>
</svg>
