<?xml version="1.0" encoding="utf-8"?>
<!-- Generator: Adobe Illustrator 23.0.1, SVG Export Plug-In . SVG Version: 6.00 Build 0)  -->
<svg version="1.1" id="Layer_1" xmlns="http://www.w3.org/2000/svg" xmlns:xlink="http://www.w3.org/1999/xlink" x="0px" y="0px"
	 viewBox="0 0 800 800" style="enable-background:new 0 0 800 800;" xml:space="preserve">
<style type="text/css">
	.st0{display:none;}
	.st1{display:inline;}
	.st2{fill:#D7DF23;}
</style>
<g class="st0">
	<g class="st1">
		<path class="st2" d="M510.84,539.38c0,33.82-15.04,65.32-41.96,86.87c-16.12,12.91-35.64,20.99-56.17,23.26
			c-34.27,3.79-67.18-7.85-91.09-31.76c-20.93-20.93-32.46-48.77-32.46-78.37c0-1.03,0.01-1.97,0.03-2.87l9.39,0.24
			c-0.02,0.82-0.03,1.68-0.03,2.63c0,60.77,53.72,109.23,116.16,100.4c44.36-6.27,79.41-41.32,85.68-85.68
			c8.83-62.45-39.63-116.16-100.4-116.16c-44.54,0-83.43,28.51-96.78,70.95l-8.96-2.82c6.92-22.01,20.98-41.76,39.57-55.61
			c23.82-17.75,53.23-25.14,83.54-20.61c16.2,2.42,31.67,8.53,45.12,17.89C493.4,469.24,510.84,502.97,510.84,539.38z"/>
	</g>
	<g class="st1">
		<rect x="289.63" y="536.69" class="st2" width="147.89" height="9.39"/>
	</g>
	<g class="st1">
		<path class="st2" d="M441.37,544.18l-40.12,40.12c-1.83,1.83-4.81,1.83-6.64,0h0c-1.83-1.83-1.83-4.81,0-6.64l36.27-36.27
			l-36.27-36.27c-1.83-1.83-1.83-4.81,0-6.64l0,0c1.83-1.83,4.81-1.83,6.64,0l40.12,40.12
			C442.91,540.13,442.91,542.64,441.37,544.18z"/>
	</g>
</g>
<g>
	<g>
		<path class="st2" d="M400,521.39c-14.96,0-29.48-2.93-43.14-8.71c-13.2-5.58-25.05-13.57-35.23-23.75s-18.17-22.03-23.75-35.23
			c-5.78-13.67-8.71-28.18-8.71-43.14c0-14.96,2.93-29.48,8.71-43.14c5.58-13.2,13.57-25.05,23.75-35.23s22.03-18.17,35.23-23.75
			c13.67-5.78,28.18-8.71,43.14-8.71c14.96,0,29.48,2.93,43.14,8.71c13.2,5.58,25.05,13.57,35.23,23.75s18.17,22.03,23.75,35.23
			c5.78,13.67,8.71,28.18,8.71,43.14c0,14.96-2.93,29.48-8.71,43.14c-5.58,13.2-13.57,25.05-23.75,35.23s-22.03,18.17-35.23,23.75
			C429.48,518.45,414.96,521.39,400,521.39z M400,309.18c-55.89,0-101.37,45.47-101.37,101.37S344.11,511.91,400,511.91
			s101.37-45.47,101.37-101.37S455.89,309.18,400,309.18z"/>
	</g>
	<g>
		<circle class="st2" cx="400" cy="413.12" r="18.13"/>
	</g>
</g>
</svg>
