<?xml version="1.0"?>
<svg xmlns="http://www.w3.org/2000/svg" id="Layer_1" enable-background="new 0 0 512 512" height="512px" viewBox="0 0 512 512" width="512px" class=""><g><g><path d="m504.504 230.194h-71.902c-4.141 0-7.497 3.358-7.497 7.5v6.784h-36.785c-25.768-.216-34.137-11.893-45.721-28.053-10.747-14.993-22.928-31.986-50.997-42.217-20.69-7.54-30.586-15.241-37.811-20.865-2.159-1.68-4.197-3.266-6.219-4.604-3.047-2.018-6.599-3.031-10.251-2.929-.333-.008-.668-.008-1.003 0-6.733-.179-13.671 3.372-19.112 9.801-7.657 9.047-10.713 21.473-8.177 33.239 4.481 20.786 14.794 28.084 24.769 35.144 4.863 3.442 9.555 6.762 13.927 11.848h-56.88c1.191-3.639 1.836-7.524 1.836-11.556 0-17.911-25.907-55.023-31.101-62.281-1.408-1.967-3.677-3.134-6.095-3.134s-4.688 1.167-6.095 3.134c-5.194 7.258-31.101 44.37-31.101 62.281 0 4.032.645 7.917 1.836 11.556h-38.767c-19.033 0-34.518 14.991-34.518 33.418 0 6.828 2.098 13.151 5.725 18.418h-18.047c-19.033.002-34.518 14.993-34.518 33.419 0 18.196 15.444 33.187 34.428 33.417l1.434.018c-3.765 5.352-5.968 11.814-5.968 18.763 0 18.184 15.442 33.175 34.405 33.417l27.609.418c-3.419 5.019-5.393 11.013-5.393 17.464 0 17.456 14.394 31.442 32.77 31.841 25.485.553 36.12.946 43.157 1.206 11.302.418 14.712.544 54.609.544h32.798c4.14 0 7.496-3.358 7.496-7.5s-3.356-7.5-7.496-7.5h-32.798c-39.62 0-42.967-.124-54.056-.534-7.083-.262-17.786-.657-43.385-1.212-9.981-.217-18.102-7.773-18.102-16.845 0-9.208 7.914-16.678 18.037-17.048h70.832c4.14 0 7.496-3.358 7.496-7.5s-3.356-7.5-7.496-7.5h-70.916l-54.955-.832c-10.819-.138-19.621-8.401-19.621-18.418 0-10.156 8.759-18.418 19.525-18.418h125.966c4.14 0 7.496-3.358 7.496-7.5s-3.2-7.862-7.34-7.862h-155.923c-10.816-.131-19.616-8.394-19.616-18.418 0-10.155 8.759-18.417 19.525-18.417h155.926c4.14 0 7.431-3.358 7.431-7.5s-3.356-7.5-7.496-7.5h-108.946c-10.816-.28-19.6-8.524-19.6-18.417 0-10.156 8.759-18.418 19.525-18.418h48.092c6.714 6.589 15.907 10.658 26.032 10.658s19.318-4.069 26.032-10.658h80.077c2.125 0 4.149-.923 5.571-2.504s2.104-3.712 1.88-5.827c-.097-.916-.362-1.805-.78-2.625-7.906-15.469-17.832-22.494-25.807-28.138-9.011-6.377-15.521-10.984-18.771-26.06-1.839-8.532 1.357-16.124 4.963-20.384 2.908-3.437 5.772-4.558 7.319-4.498.234.011.467.011.701 0 .101-.004.2-.004.297 0 .231.01.462.011.694 0 .626-.029 1.135.107 1.641.442 1.543 1.021 3.277 2.371 5.286 3.934 7.559 5.882 18.982 14.771 41.885 23.118 23.717 8.644 34 22.991 43.946 36.865 11.991 16.73 24.392 34.03 57.842 34.311h36.848v111.449c0 4.142 3.356 7.5 7.497 7.5s7.496-3.358 7.496-7.5v-125.735h56.91v195h-56.91v-34.222c0-4.142-3.356-7.5-7.496-7.5s-7.497 3.358-7.497 7.5v19.938h-36.879c-16.479.069-32.704 4.563-48.396 8.91-15.534 4.302-30.205 8.366-44.781 8.366h-10.392c-4.141 0-7.496 3.358-7.496 7.5s3.356 7.5 7.496 7.5h10.392c16.612 0 32.966-4.53 48.782-8.91 15.419-4.271 29.985-8.305 44.426-8.366h36.848v6.785c0 4.142 3.356 7.5 7.497 7.5h71.902c4.141 0 7.496-3.358 7.496-7.5v-210c-.001-4.143-3.357-7.501-7.497-7.501zm-349.021 16.308c-12.243 0-22.203-9.965-22.203-22.214 0-8.059 11.55-28.561 22.203-44.671 10.653 16.11 22.203 36.612 22.203 44.671 0 12.248-9.961 22.214-22.203 22.214z" data-original="#000000" class="active-path" data-old_color="#000000" fill="#FFFFFF"/><path d="m72.765 202.851c26.344 0 47.776-21.443 47.776-47.799 0-23.972-37.414-76.951-41.681-82.913-1.408-1.967-3.677-3.134-6.095-3.134s-4.688 1.167-6.095 3.134c-4.267 5.962-41.681 58.94-41.681 82.913-.001 26.356 21.432 47.799 47.776 47.799zm0-113.191c14.616 21.68 32.783 52.782 32.783 65.391 0 18.085-14.706 32.799-32.783 32.799s-32.784-14.714-32.784-32.799c0-12.608 18.168-43.711 32.784-65.391z" data-original="#000000" class="active-path" data-old_color="#000000" fill="#FFFFFF"/><path d="m155.483 123.737c14.398 0 26.111-11.719 26.111-26.123 0-11.778-15.32-34.104-20.016-40.665-1.408-1.967-3.677-3.134-6.095-3.134s-4.688 1.167-6.095 3.134c-4.695 6.562-20.015 28.887-20.015 40.665-.001 14.404 11.712 26.123 26.11 26.123zm0-49.018c6.839 10.773 11.118 19.91 11.118 22.896 0 6.133-4.988 11.123-11.118 11.123s-11.118-4.99-11.118-11.123c0-2.987 4.279-12.124 11.118-22.896z" data-original="#000000" class="active-path" data-old_color="#000000" fill="#FFFFFF"/><path d="m224.43 102.403h2.861v2.85c0 4.142 3.356 7.5 7.496 7.5s7.496-3.358 7.496-7.5v-2.85h2.861c4.14 0 7.496-3.358 7.496-7.5s-3.356-7.5-7.496-7.5h-2.861v-2.849c0-4.142-3.356-7.5-7.496-7.5s-7.496 3.358-7.496 7.5v2.849h-2.861c-4.14 0-7.496 3.358-7.496 7.5s3.356 7.5 7.496 7.5z" data-original="#000000" class="active-path" data-old_color="#000000" fill="#FFFFFF"/><path d="m7.496 79.947h2.861v2.85c0 4.142 3.356 7.5 7.496 7.5s7.496-3.358 7.496-7.5v-2.85h2.861c4.14 0 7.496-3.358 7.496-7.5s-3.356-7.5-7.496-7.5h-2.861v-2.849c0-4.142-3.356-7.5-7.496-7.5s-7.496 3.358-7.496 7.5v2.849h-2.861c-4.14 0-7.496 3.358-7.496 7.5s3.356 7.5 7.496 7.5z" data-original="#000000" class="active-path" data-old_color="#000000" fill="#FFFFFF"/></g></g> </svg>
