<?xml version="1.0" encoding="utf-8"?>
<!-- Generator: Adobe Illustrator 16.0.0, SVG Export Plug-In . SVG Version: 6.00 Build 0)  -->
<!DOCTYPE svg PUBLIC "-//W3C//DTD SVG 1.1//EN" "http://www.w3.org/Graphics/SVG/1.1/DTD/svg11.dtd">
<svg version="1.1" id="Layer_1" xmlns="http://www.w3.org/2000/svg" xmlns:xlink="http://www.w3.org/1999/xlink" x="0px" y="0px"
	 width="512px" height="512px" viewBox="0 0 512 512" enable-background="new 0 0 512 512" xml:space="preserve">
<path fill="#FFFFFF" d="M256,16C123.664,16,16,123.664,16,256s107.664,240,240,240s240-107.664,240-240S388.336,16,256,16z M256,480
	C132.484,480,32,379.516,32,256C32,132.484,132.484,32,256,32c123.516,0,224,100.484,224,224C480,379.516,379.516,480,256,480z"/>
<path fill="#FFFFFF" d="M122.891,117.766L111.8,106.234c-4.852,4.68-9.524,9.625-13.875,14.711l12.156,10.407
	C114.1,126.648,118.414,122.078,122.891,117.766z"/>
<path fill="#FFFFFF" d="M48.656,239.367l15.953,1.266c2.747-34.326,14.709-67.274,34.625-95.367l-13.062-9.25
	C64.597,166.464,51.637,202.169,48.656,239.367L48.656,239.367z"/>
<path fill="#FFFFFF" d="M368,98.633c0.002-19.127-15.504-34.635-34.631-34.637c-16.237-0.001-30.295,11.278-33.814,27.129
	c-1.351,6.08-2.436,12.219-3.552,18.35c-13.029-3.585-26.487-5.375-40-5.32V64H240v96c-0.018,8.652-2.823,17.068-8,24
	c-2.328,3.102-5.097,5.847-8.219,8.148c-9.914,7.313-15.57,19.532-15.117,32.727l7.328,183.414c0.153,4.12-1.388,8.124-4.265,11.078
	c-6.061,5.969-15.791,5.969-21.852,0c-2.88-2.961-4.422-6.973-4.266-11.101l5.727-183.438c0.453-13.148-5.2-25.367-15.125-32.68
	c-3.12-2.304-5.886-5.052-8.211-8.157c-5.178-6.929-7.983-15.343-8-23.992V64h-16v89.492
	c-56.645,61.576-52.647,157.412,8.929,214.057c5.49,5.051,11.345,9.688,17.518,13.876l-0.822,26.317
	c-0.588,17.219,12.894,31.653,30.112,32.241c17.219,0.588,31.654-12.894,32.242-30.112c0.025-0.725,0.024-1.451-0.001-2.176
	l-0.067-1.674c24.953,4.105,50.539,1.8,74.355-6.699l-0.539,7.359c-1.177,17.177,11.792,32.055,28.969,33.232
	c17.176,1.178,32.055-11.792,33.231-28.969c0.049-0.704,0.073-1.411,0.073-2.117v-50.32c53.333-57.934,53.333-147.083,0-205.016
	V98.633z M171.052,362.044c-56.955-45.381-67.841-127.67-24.647-186.3c3.318,11.753,10.468,22.06,20.314,29.284
	c5.672,4.18,8.9,11.383,8.633,19.282L171.052,362.044z M307.56,381.654c-24.071,10.222-50.665,12.951-76.311,7.83l-6.6-165.2
	c-0.265-7.875,2.961-15.078,8.625-19.258c4.38-3.225,8.263-7.074,11.526-11.426c7.251-9.704,11.179-21.487,11.2-33.6v-39.864
	c12.648-0.054,25.239,1.705,37.389,5.222c-3.531,23.514-5.332,47.255-5.389,71.033V280c0,4.418,3.582,8,8,8h18.422L307.56,381.654z
	 M352,408.828c-0.009,8.375-6.797,15.163-15.172,15.172c-8.379,0.001-15.172-6.79-15.174-15.168c0-0.338,0.012-0.676,0.033-1.012
	l9.32-127.234c0.324-4.406-2.986-8.24-7.393-8.564c-0.194-0.014-0.39-0.021-0.584-0.021H304v-75.609
	c0.004-34.24,3.753-68.376,11.18-101.8c2.229-10.045,12.178-16.383,22.224-14.155c8.53,1.892,14.601,9.459,14.597,18.197V408.828z
	 M392,256c0.014,27.479-8.359,54.307-24,76.9V179.1C383.641,201.693,392.014,228.521,392,256z"/>
<path fill="#FFFFFF" d="M176,64h16v88h-16V64z"/>
<path fill="#FFFFFF" d="M208,64h16v88h-16V64z"/>
</svg>
