<?xml version="1.0" encoding="utf-8"?>
<!-- Generator: Adobe Illustrator 16.0.0, SVG Export Plug-In . SVG Version: 6.00 Build 0)  -->
<!DOCTYPE svg PUBLIC "-//W3C//DTD SVG 1.1//EN" "http://www.w3.org/Graphics/SVG/1.1/DTD/svg11.dtd">
<svg version="1.1" id="Line_stroke_cutting_expand" xmlns="http://www.w3.org/2000/svg" xmlns:xlink="http://www.w3.org/1999/xlink"
	 x="0px" y="0px" width="512px" height="512px" viewBox="0 0 512 512" enable-background="new 0 0 512 512" xml:space="preserve">
<g>
	<path fill="#035AA7" d="M474.965,324.002c3.283-4.689,5.042-10.277,5.035-16.002v-16c-0.018-15.457-12.543-27.982-28-28h-8
		c-15.457,0.018-27.982,12.543-28,28v16c-0.007,5.725,1.752,11.313,5.035,16.002C408.154,330.44,400.012,343.6,400,358v18h16v-18
		c0.014-12.145,9.855-21.986,22-22h20c12.145,0.014,21.986,9.855,22,22v18h16v-18C495.988,343.6,487.846,330.44,474.965,324.002z
		 M444,320c-6.624-0.008-11.992-5.375-12-12v-16c0.008-6.625,5.376-11.992,12-12h8c6.624,0.008,11.992,5.375,12,12v16
		c-0.008,6.625-5.376,11.992-12,12H444z"/>
	<path fill="#035AA7" d="M474.965,204.002c3.283-4.689,5.042-10.277,5.035-16.002v-16c-0.018-15.457-12.543-27.983-28-28h-8
		c-15.457,0.017-27.982,12.543-28,28v16c-0.007,5.725,1.752,11.313,5.035,16.002C408.154,210.44,400.012,223.6,400,238v18h16v-18
		c0.014-12.145,9.855-21.986,22-22h20c12.145,0.014,21.986,9.855,22,22v18h16v-18C495.988,223.6,487.846,210.44,474.965,204.002z
		 M444,200c-6.624-0.007-11.992-5.375-12-12v-16c0.008-6.625,5.376-11.993,12-12h8c6.624,0.007,11.992,5.375,12,12v16
		c-0.008,6.625-5.376,11.993-12,12H444z"/>
	<path fill="#035AA7" d="M96,358v18h16v-18c-0.012-14.4-8.154-27.56-21.035-33.998C94.249,319.313,96.007,313.725,96,308v-16
		c-0.017-15.457-12.543-27.982-28-28h-8c-15.457,0.018-27.983,12.543-28,28v16c-0.007,5.725,1.751,11.313,5.035,16.002
		C24.154,330.44,16.012,343.6,16,358v18h16v-18c0.014-12.145,9.855-21.986,22-22h20C86.145,336.014,95.986,345.855,96,358z M60,320
		c-6.625-0.008-11.993-5.375-12-12v-16c0.007-6.625,5.375-11.992,12-12h8c6.625,0.008,11.993,5.375,12,12v16
		c-0.007,6.625-5.375,11.992-12,12H60z"/>
	<path fill="#035AA7" d="M344,110c0.014-12.145,9.855-21.986,22-22h20c12.145,0.014,21.986,9.855,22,22v18h16v-18
		c-0.012-14.4-8.154-27.56-21.035-33.998C406.248,71.313,408.007,65.725,408,60V44c-0.018-15.457-12.543-27.982-28-28h-8
		c-15.457,0.018-27.982,12.543-28,28v16c-0.007,5.725,1.752,11.313,5.035,16.002C336.154,82.44,328.012,95.6,328,110v18h16V110z
		 M360,44c0.008-6.625,5.376-11.993,12-12h8c6.624,0.007,11.992,5.375,12,12v16c-0.008,6.625-5.376,11.993-12,12h-8
		c-6.624-0.007-11.992-5.375-12-12V44z"/>
	<path fill="#035AA7" d="M104,110c0.014-12.145,9.855-21.986,22-22h20c12.145,0.014,21.986,9.855,22,22v18h16v-18
		c-0.012-14.4-8.154-27.56-21.035-33.998C166.249,71.313,168.007,65.725,168,60V44c-0.017-15.457-12.543-27.982-28-28h-8
		c-15.457,0.018-27.983,12.543-28,28v16c-0.007,5.725,1.751,11.313,5.035,16.002C96.154,82.44,88.012,95.6,88,110v18h16V110z
		 M120,44c0.007-6.625,5.375-11.993,12-12h8c6.625,0.007,11.993,5.375,12,12v16c-0.007,6.625-5.375,11.993-12,12h-8
		c-6.625-0.007-11.993-5.375-12-12V44z"/>
	<path fill="#035AA7" d="M224,110c0.014-12.145,9.855-21.986,22-22h20c12.145,0.014,21.986,9.855,22,22v18h16v-18
		c-0.012-14.4-8.154-27.56-21.035-33.998C286.248,71.313,288.007,65.725,288,60V44c-0.018-15.457-12.543-27.982-28-28h-8
		c-15.457,0.018-27.983,12.543-28,28v16c-0.007,5.725,1.751,11.313,5.035,16.002C216.154,82.44,208.012,95.6,208,110v18h16V110z
		 M240,44c0.007-6.625,5.375-11.993,12-12h8c6.625,0.007,11.992,5.375,12,12v16c-0.008,6.625-5.375,11.993-12,12h-8
		c-6.625-0.007-11.993-5.375-12-12V44z"/>
	<path fill="#035AA7" d="M402.965,444.002c3.283-4.689,5.042-10.277,5.035-16.002v-16c-0.018-15.457-12.543-27.982-28-28h-8
		c-15.457,0.018-27.982,12.543-28,28v16c-0.007,5.725,1.752,11.313,5.035,16.002C336.154,450.44,328.012,463.6,328,478v18h16v-18
		c0.014-12.145,9.855-21.986,22-22h20c12.145,0.014,21.986,9.855,22,22v18h16v-18C423.988,463.6,415.846,450.44,402.965,444.002z
		 M372,440c-6.624-0.008-11.992-5.376-12-12v-16c0.008-6.624,5.376-11.992,12-12h8c6.624,0.008,11.992,5.376,12,12v16
		c-0.008,6.624-5.376,11.992-12,12H372z"/>
	<path fill="#035AA7" d="M162.965,444.002c3.283-4.689,5.042-10.277,5.035-16.002v-16c-0.017-15.457-12.543-27.982-28-28h-8
		c-15.457,0.018-27.983,12.543-28,28v16c-0.007,5.725,1.751,11.313,5.035,16.002C96.154,450.44,88.012,463.6,88,478v18h16v-18
		c0.014-12.145,9.855-21.986,22-22h20c12.145,0.014,21.986,9.855,22,22v18h16v-18C183.988,463.6,175.846,450.44,162.965,444.002z
		 M132,440c-6.625-0.008-11.993-5.376-12-12v-16c0.007-6.624,5.375-11.992,12-12h8c6.625,0.008,11.993,5.376,12,12v16
		c-0.007,6.624-5.375,11.992-12,12H132z"/>
	<path fill="#035AA7" d="M282.965,444.002c3.283-4.689,5.042-10.277,5.035-16.002v-16c-0.018-15.457-12.543-27.982-28-28h-8
		c-15.457,0.018-27.983,12.543-28,28v16c-0.007,5.725,1.751,11.313,5.035,16.002C216.154,450.44,208.012,463.6,208,478v18h16v-18
		c0.014-12.145,9.855-21.986,22-22h20c12.145,0.014,21.986,9.855,22,22v18h16v-18C303.988,463.6,295.846,450.44,282.965,444.002z
		 M252,440c-6.625-0.008-11.993-5.376-12-12v-16c0.007-6.624,5.375-11.992,12-12h8c6.625,0.008,11.992,5.376,12,12v16
		c-0.008,6.624-5.375,11.992-12,12H252z"/>
	<path fill="#035AA7" d="M32,238c0.014-12.145,9.855-21.986,22-22h20c12.145,0.014,21.986,9.855,22,22v18h16v-18
		c-0.012-14.4-8.154-27.56-21.035-33.998C94.249,199.313,96.007,193.725,96,188v-16c-0.017-15.457-12.543-27.983-28-28h-8
		c-15.457,0.017-27.983,12.543-28,28v16c-0.007,5.725,1.751,11.313,5.035,16.002C24.154,210.44,16.012,223.6,16,238v18h16V238z
		 M48,172c0.007-6.625,5.375-11.993,12-12h8c6.625,0.007,11.993,5.375,12,12v16c-0.007,6.625-5.375,11.993-12,12h-8
		c-6.625-0.007-11.993-5.375-12-12V172z"/>
	<path fill="#035AA7" d="M315.063,190.741c-0.134-2.281-1.236-4.396-3.029-5.811c-15.93-12.652-35.691-19.504-56.034-19.43
		c-49.958,0.056-90.444,40.542-90.5,90.5c-0.074,20.343,6.778,40.104,19.43,56.035c1.416,1.793,3.53,2.895,5.81,3.029
		c0.157,0.009,0.313,0.014,0.469,0.014c2.122,0,4.157-0.844,5.657-2.344l115.868-115.868
		C314.35,195.251,315.197,193.022,315.063,190.741z M192.299,294.674C185.188,283.031,181.45,269.643,181.5,256
		c0.046-41.126,33.374-74.454,74.5-74.5c13.643-0.051,27.031,3.688,38.674,10.799L192.299,294.674z"/>
	<path fill="#035AA7" d="M321.251,208.148L208.148,321.251c-3.124,3.125-3.123,8.19,0.002,11.315
		c0.467,0.467,0.991,0.874,1.558,1.213c42.968,25.555,98.516,11.438,124.071-31.53c16.96-28.517,16.96-64.025,0-92.542
		c-2.263-3.795-7.174-5.037-10.969-2.774C322.242,207.272,321.719,207.681,321.251,208.148z M256,330.5
		c-9.862,0.004-19.626-1.949-28.729-5.745l97.484-97.483c15.847,37.992-2.106,81.638-40.099,97.484
		C275.578,328.543,265.838,330.495,256,330.5z"/>
	<path fill="#035AA7" d="M256,136c-66.274,0-120,53.726-120,120s53.726,120,120,120s120-53.726,120-120
		C375.925,189.757,322.243,136.075,256,136z M256,360c-57.438,0-104-46.563-104-104s46.563-104,104-104s104,46.563,104,104
		C359.935,313.41,313.411,359.936,256,360z"/>
</g>
</svg>
