<?xml version="1.0" encoding="utf-8"?>
<!-- Generator: Adobe Illustrator 16.0.0, SVG Export Plug-In . SVG Version: 6.00 Build 0)  -->
<!DOCTYPE svg PUBLIC "-//W3C//DTD SVG 1.1//EN" "http://www.w3.org/Graphics/SVG/1.1/DTD/svg11.dtd">
<svg version="1.1" id="Outline" xmlns="http://www.w3.org/2000/svg" xmlns:xlink="http://www.w3.org/1999/xlink" x="0px" y="0px"
	 width="512px" height="512px" viewBox="0 0 512 512" enable-background="new 0 0 512 512" xml:space="preserve">
<g>
	<path fill="#035AA7" d="M414,152h4c20.977-0.023,37.977-17.023,38-38v-12c-0.023-20.977-17.023-37.977-38-38h-4
		c-20.977,0.023-37.977,17.023-38,38v12C376.023,134.977,393.023,151.977,414,152z M392,102c0.014-12.145,9.855-21.986,22-22h4
		c12.145,0.014,21.986,9.855,22,22v12c-0.014,12.145-9.855,21.986-22,22h-4c-12.145-0.014-21.986-9.855-22-22V102z"/>
	<path fill="#035AA7" d="M468,160H364c-15.457,0.018-27.982,12.543-28,28v80c0.018,15.457,12.543,27.982,28,28h4v124
		c0.018,15.457,12.543,27.982,28,28h40c15.457-0.018,27.982-12.543,28-28v-36h-16v36c-0.007,6.624-5.376,11.993-12,12h-12V296h-16
		v136h-12c-6.624-0.007-11.993-5.376-12-12V208h-16v72h-4c-6.624-0.008-11.993-5.375-12-12v-80c0.007-6.625,5.376-11.993,12-12h104
		c6.624,0.007,11.993,5.375,12,12v80c-0.007,6.625-5.376,11.992-12,12h-4v-72h-16v160h16v-72h4c15.457-0.018,27.982-12.543,28-28
		v-80C495.982,172.543,483.457,160.018,468,160z"/>
	<path fill="#035AA7" d="M408,192h16v24h-16V192z"/>
	<path fill="#035AA7" d="M408,232h16v16h-16V232z"/>
	<path fill="#035AA7" d="M94,152h4c20.977-0.023,37.976-17.023,38-38v-12c-0.024-20.977-17.023-37.977-38-38h-4
		c-20.977,0.023-37.976,17.023-38,38v12C56.024,134.977,73.023,151.977,94,152z M72,102c0.014-12.145,9.855-21.986,22-22h4
		c12.145,0.014,21.986,9.855,22,22v12c-0.014,12.145-9.855,21.986-22,22h-4c-12.145-0.014-21.986-9.855-22-22V102z"/>
	<path fill="#035AA7" d="M176,268v-80c-0.018-15.457-12.543-27.982-28-28H44c-15.457,0.018-27.982,12.543-28,28v20h16v-20
		c0.007-6.625,5.375-11.993,12-12h104c6.625,0.007,11.993,5.375,12,12v80c-0.007,6.625-5.375,11.992-12,12h-4v-72h-16v212
		c-0.007,6.624-5.375,11.993-12,12h-12V296H88v136H76c-6.625-0.007-11.993-5.376-12-12V208H48v72h-4
		c-6.625-0.008-11.993-5.375-12-12v-44H16v44c0.018,15.457,12.543,27.982,28,28h4v124c0.018,15.457,12.543,27.982,28,28h40
		c15.457-0.018,27.982-12.543,28-28V296h4C163.457,295.982,175.982,283.457,176,268z"/>
	<path fill="#035AA7" d="M88,192h16v24H88V192z"/>
	<path fill="#035AA7" d="M88,232h16v16H88V232z"/>
	<path fill="#035AA7" d="M336,424H176v-8h-16v32h16v-8h160v8h16v-32h-16V424z"/>
</g>
</svg>
