<?xml version="1.0" encoding="utf-8"?>
<!-- Generator: Adobe Illustrator 16.0.0, SVG Export Plug-In . SVG Version: 6.00 Build 0)  -->
<!DOCTYPE svg PUBLIC "-//W3C//DTD SVG 1.1//EN" "http://www.w3.org/Graphics/SVG/1.1/DTD/svg11.dtd">
<svg version="1.1" id="Capa_1" xmlns="http://www.w3.org/2000/svg" xmlns:xlink="http://www.w3.org/1999/xlink" x="0px" y="0px"
	 width="512px" height="512px" viewBox="0 0 512 512" enable-background="new 0 0 512 512" xml:space="preserve">
<g>
	<path fill="#035AA7" d="M190.995,249.416c0.932-5.054,3.991-9.475,8.392-12.13l6.314-3.809c3.531-2.129,4.667-6.718,2.537-10.249
		c-2.129-3.531-6.717-4.666-10.25-2.537l-6.314,3.809c-8.058,4.86-13.657,12.954-15.364,22.207l-7.533,40.836
		c-3.298,17.871,7.96,35.19,25.631,39.43c2.674,0.643,5.354,0.951,7.998,0.95c14.064,0,27.066-8.729,32.08-22.466l7.944-21.772
		l11.223-3.028l36.005,28.584c1.372,1.09,3.01,1.619,4.637,1.619c2.199,0,4.378-0.968,5.852-2.824
		c2.564-3.229,2.024-7.926-1.205-10.49l-27.365-21.727l7.794-2.104c3.981-1.074,6.337-5.172,5.263-9.153s-5.17-6.337-9.152-5.263
		l-40.682,10.977c-2.345,0.633-4.236,2.367-5.069,4.649l-9.271,25.411c-3.352,9.189-13.052,14.398-22.565,12.114
		c-9.949-2.388-16.288-12.139-14.43-22.2L190.995,249.416z"/>
	<path fill="#035AA7" d="M350.627,187.863c-1.347,3.898,0.723,8.148,4.62,9.494c3.632,1.254,7.04,3.016,10.129,5.237l21.833,15.704
		c2.27,1.633,4.949,2.468,7.652,2.468c1.955,0,3.924-0.437,5.759-1.326l22.884-11.211c3.703-1.815,5.234-6.287,3.42-9.99
		c-1.814-3.702-6.285-5.233-9.989-3.42l-21.888,10.723l-20.95-15.069c-4.267-3.069-8.969-5.502-13.974-7.23
		C356.217,181.897,351.972,183.966,350.627,187.863L350.627,187.863z"/>
	<path fill="#035AA7" d="M448.798,194.994c1.103,0,2.222-0.245,3.279-0.763l54.45-26.676c3.704-1.814,5.234-6.287,3.421-9.99
		c-1.814-3.702-6.286-5.234-9.989-3.42l-54.451,26.676c-3.703,1.814-5.234,6.287-3.42,9.99
		C443.384,193.457,446.036,194.994,448.798,194.994L448.798,194.994z"/>
	<path fill="#035AA7" d="M5.297,164.48l104.915,54.872c0.067,0.035,0.135,0.069,0.204,0.103c1.818,0.881,3.774,1.315,5.722,1.315
		c2.701,0,5.384-0.835,7.659-2.471l21.831-15.703c3.333-2.397,7.005-4.251,10.914-5.509c3.925-1.264,6.083-5.47,4.82-9.395
		c-1.264-3.925-5.471-6.082-9.396-4.819c-5.394,1.736-10.459,4.293-15.059,7.601l-20.921,15.048L12.216,151.248
		c-3.65-1.91-8.165-0.499-10.075,3.156C0.23,158.057,1.643,162.569,5.297,164.48L5.297,164.48z"/>
	<path fill="#035AA7" d="M509.776,311.307c-1.998-3.607-6.54-4.915-10.148-2.917l-37.813,20.926
		c-1.811,1.003-3.125,2.713-3.628,4.722c-2.938,11.756-9.785,22.377-19.277,29.908l-30.604,24.279
		c-2.025-4.132-4.962-7.794-8.678-10.742l-75.708-60.105c-3.229-2.563-7.926-2.023-10.489,1.205s-2.023,7.926,1.206,10.49
		l75.708,60.104c3.474,2.759,5.653,6.706,6.135,11.115c0.481,4.41-0.793,8.734-3.589,12.178c-2.779,3.423-6.725,5.554-11.108,6.004
		c-4.383,0.449-8.68-0.836-12.095-3.621l-53.708-43.777c-3.203-2.6-7.903-2.112-10.504,1.089c-2.599,3.2-2.111,7.902,1.089,10.502
		l43.771,35.676c5.806,5.819,6.534,15.044,1.461,21.751c-2.747,3.63-6.748,5.931-11.267,6.479
		c-4.517,0.551-8.953-0.731-12.488-3.602l-43.395-35.244c-3.202-2.6-7.903-2.111-10.503,1.088c-2.6,3.2-2.111,7.903,1.089,10.502
		l33.765,27.423c2.673,2.676,4.343,6.153,4.745,9.968c0.465,4.419-0.821,8.752-3.622,12.2c-5.773,7.105-16.246,8.189-23.35,2.421
		l-32.973-26.774c-3.205-2.601-7.904-2.109-10.502,1.092c-2.599,3.201-2.11,7.903,1.092,10.502l17.899,14.531
		c6.205,5.08,7.289,14.054,2.455,20.464c-2.399,3.182-5.895,5.233-9.843,5.779c-3.946,0.543-7.866-0.483-11.039-2.896
		l-24.356-18.523c8.377-11.458,6.375-27.651-4.805-36.726c-4.646-3.771-10.287-5.835-16.17-5.99
		c1.471-10.11-2.061-20.517-10.294-27.2c-4.725-3.834-10.473-6.006-16.541-6.325c0.964-3.332,1.288-6.853,0.919-10.406
		c-0.754-7.248-4.285-13.769-9.999-18.406c-5.666-4.598-12.785-6.711-20.037-5.949c-3.577,0.375-6.974,1.43-10.05,3.078
		c-1.656-5.6-4.957-10.776-9.833-14.733c-6.205-5.037-14.002-7.352-21.946-6.514c-7.948,0.837-15.09,4.721-20.112,10.938
		l-6.308,7.812c-8.162-6.308-14.573-14.656-18.55-24.179l-3.311-7.932c-0.542-1.3-1.441-2.419-2.593-3.23l-36.818-25.902
		c-3.374-2.373-8.029-1.562-10.402,1.811c-2.373,3.372-1.562,8.029,1.81,10.402l35.055,24.662L42,346.652
		c4.944,11.84,12.898,22.227,23.018,30.097c-4.226,6.089-6.021,13.401-5.052,20.835c1.065,8.174,5.314,15.359,11.962,20.231
		c5.319,3.898,11.506,5.787,17.646,5.787c1.368,0,2.731-0.104,4.084-0.291c0.039,0.793,0.104,1.586,0.214,2.377
		c1.024,7.434,5.123,14.186,11.243,18.526c4.758,3.375,10.27,5.008,15.742,5.008c1.637,0,3.271-0.154,4.879-0.443
		c0.042,0.728,0.1,1.455,0.194,2.18c1.042,7.974,5.116,14.927,11.471,19.577c5.085,3.722,11.032,5.518,17.008,5.518
		c0.961,0,1.92-0.057,2.879-0.147c-0.026,1.351,0.049,2.713,0.228,4.081c0.965,7.359,4.797,13.823,10.792,18.201
		c4.773,3.485,10.321,5.174,15.828,5.174c7.829,0,15.572-3.416,20.865-9.938l5.116-6.303l24.705,18.788
		c5.242,3.987,11.507,6.088,17.979,6.088c1.374,0,2.758-0.095,4.142-0.286c7.91-1.092,14.913-5.205,19.723-11.58
		c3.18-4.216,5.074-8.987,5.754-13.854c4.534,2.426,9.573,3.699,14.759,3.699c1.098,0,2.202-0.057,3.31-0.171
		c8.377-0.868,15.915-4.946,21.225-11.484c4.271-5.261,6.684-11.603,7.015-18.242c3.117,1.02,6.389,1.551,9.724,1.551
		c1.284,0,2.579-0.078,3.877-0.235c8.575-1.038,16.168-5.404,21.38-12.293c3.937-5.203,6.028-11.205,6.379-17.237
		c3.187,1.072,6.54,1.632,9.957,1.632c1.084,0,2.175-0.056,3.267-0.167c8.357-0.858,15.878-4.923,21.175-11.445
		c3.982-4.904,6.345-10.747,6.902-16.894l36.806-29.347c11.188-8.876,19.481-21.131,23.602-34.781l35.069-19.407
		C510.466,319.459,511.771,314.915,509.776,311.307z M80.752,405.775c-3.325-2.437-5.45-6.029-5.982-10.117
		c-0.533-4.088,0.601-8.105,3.19-11.313l14.289-17.693c2.511-3.11,6.083-5.053,10.058-5.471c0.531-0.056,1.06-0.084,1.588-0.084
		c3.415,0,6.703,1.164,9.429,3.377c3.097,2.513,5.03,6.082,5.443,10.051c0.341,3.275-0.405,6.491-2.084,9.259l-16.676,20.625
		C94.847,409.46,86.71,410.142,80.752,405.775z M113.75,432.038c-2.811-1.994-4.619-4.972-5.089-8.385
		c-0.465-3.375,0.446-6.689,2.561-9.354c0.532-0.562,24.598-30.433,24.598-30.433c2.077-2.568,5.029-4.172,8.313-4.516
		c0.438-0.046,0.875-0.068,1.308-0.068c2.824,0,5.546,0.964,7.819,2.807c2.56,2.078,4.159,5.03,4.5,8.311
		c0.34,3.279-0.616,6.497-2.695,9.058l-24.586,30.29C126.391,434.785,119.042,435.792,113.75,432.038z M146.216,458.489
		c-3.028-2.216-4.975-5.576-5.482-9.46c-0.573-4.393,0.772-8.985,3.695-12.604l12.886-15.955c2.837-3.513,6.923-5.786,11.21-6.237
		c0.529-0.056,1.057-0.083,1.58-0.083c3.228,0,6.283,1.056,8.756,3.063c6.262,5.082,6.815,14.813,1.232,21.691l-13.423,16.485
		C161.196,461.584,152.355,462.981,146.216,458.489L146.216,458.489z M193.405,484.017c-4.006,4.935-11.164,5.863-16.294,2.116
		c-2.662-1.944-4.363-4.814-4.792-8.084c-0.428-3.268,0.477-6.479,2.549-9.043l14.502-17.835c1.922-1.915,4.417-3.112,7.154-3.4
		c0.424-0.045,0.848-0.066,1.268-0.066c2.727,0,5.354,0.93,7.535,2.699c2.473,2.008,4.017,4.858,4.346,8.027
		c0.33,3.168-0.595,6.275-2.602,8.749L193.405,484.017z"/>
	<path fill="#035AA7" d="M256.098,216.497c59.689,0,108.249-48.56,108.249-108.249S315.787,0,256.098,0
		c-37.941,0-73.594,20.273-93.043,52.908c-2.111,3.542-0.951,8.125,2.591,10.235c3.542,2.111,8.124,0.952,10.235-2.591
		c16.772-28.139,47.508-45.62,80.217-45.62c51.455,0,93.316,41.862,93.316,93.316c0,51.454-41.861,93.316-93.316,93.316
		s-93.316-41.861-93.316-93.316c0-6.838,0.75-13.678,2.227-20.329c0.894-4.025-1.644-8.014-5.668-8.908
		c-4.028-0.897-8.015,1.643-8.907,5.668c-1.714,7.714-2.583,15.643-2.583,23.568C147.85,167.938,196.41,216.497,256.098,216.497z"/>
	<path fill="#035AA7" d="M203.05,132.104c0,3.382,1.317,6.56,3.708,8.951l16.534,16.534c2.468,2.468,5.708,3.7,8.949,3.7
		c3.242,0,6.484-1.233,8.952-3.701l14.905-14.905l14.906,14.906c4.936,4.935,12.965,4.935,17.901,0l16.532-16.533
		c2.391-2.391,3.709-5.57,3.709-8.952c0-3.38-1.317-6.56-3.709-8.95l-14.906-14.905l14.906-14.905
		c2.391-2.39,3.709-5.57,3.709-8.952c0-3.38-1.317-6.56-3.709-8.95l-16.532-16.533c-2.392-2.391-5.571-3.708-8.952-3.708
		c-3.38,0-6.559,1.317-8.949,3.708l-14.906,14.905l-14.905-14.905c-2.391-2.391-5.571-3.708-8.951-3.708
		c-3.38,0-6.56,1.317-8.951,3.708l-16.532,16.533c-2.391,2.39-3.709,5.57-3.709,8.95c0,3.382,1.317,6.561,3.708,8.951l14.906,14.906
		l-14.905,14.905C204.368,125.544,203.05,128.724,203.05,132.104L203.05,132.104z M237.502,113.527
		c2.916-2.916,2.916-7.643,0-10.558l-18.577-18.577l13.317-13.317l18.576,18.577c2.917,2.916,7.644,2.916,10.559,0l18.575-18.577
		l13.318,13.317l-18.577,18.577c-2.915,2.916-2.915,7.644,0,10.558l18.577,18.577l-13.318,13.318l-18.575-18.577
		c-2.917-2.916-7.643-2.916-10.559,0l-18.576,18.577l-13.317-13.318L237.502,113.527z"/>
</g>
</svg>
