<?xml version="1.0" encoding="utf-8"?>
<!-- Generator: Adobe Illustrator 16.0.0, SVG Export Plug-In . SVG Version: 6.00 Build 0)  -->
<!DOCTYPE svg PUBLIC "-//W3C//DTD SVG 1.1//EN" "http://www.w3.org/Graphics/SVG/1.1/DTD/svg11.dtd">
<svg version="1.1" id="Layer_1" xmlns="http://www.w3.org/2000/svg" xmlns:xlink="http://www.w3.org/1999/xlink" x="0px" y="0px"
	 width="512px" height="512px" viewBox="0 0 512 512" enable-background="new 0 0 512 512" xml:space="preserve">
<g>
	<g>
		<path fill="#035AA7" d="M504.504,230.194h-71.902c-4.141,0-7.496,3.358-7.496,7.5v6.784H388.32
			c-25.769-0.216-34.138-11.893-45.722-28.053c-10.747-14.993-22.928-31.986-50.997-42.217
			c-20.689-7.54-30.586-15.241-37.811-20.865c-2.159-1.68-4.197-3.266-6.219-4.604c-3.047-2.018-6.599-3.031-10.251-2.929
			c-0.333-0.008-0.668-0.008-1.003,0c-6.733-0.179-13.671,3.372-19.112,9.801c-7.657,9.047-10.713,21.473-8.177,33.239
			c4.481,20.786,14.794,28.084,24.769,35.144c4.863,3.442,9.555,6.762,13.927,11.848h-56.88c1.191-3.639,1.836-7.524,1.836-11.556
			c0-17.911-25.907-55.023-31.101-62.281c-1.408-1.967-3.677-3.134-6.095-3.134s-4.688,1.167-6.095,3.134
			c-5.194,7.258-31.101,44.37-31.101,62.281c0,4.032,0.645,7.917,1.836,11.556H81.358c-19.033,0-34.518,14.991-34.518,33.418
			c0,6.828,2.098,13.151,5.725,18.418H34.518C15.485,287.68,0,302.671,0,321.098c0,18.195,15.444,33.187,34.428,33.416l1.434,0.019
			c-3.765,5.352-5.968,11.813-5.968,18.763c0,18.184,15.442,33.175,34.405,33.417l27.609,0.418
			c-3.419,5.02-5.393,11.013-5.393,17.464c0,17.456,14.394,31.442,32.77,31.841c25.485,0.554,36.12,0.946,43.157,1.206
			c11.302,0.418,14.712,0.544,54.609,0.544h32.798c4.14,0,7.496-3.357,7.496-7.5c0-4.142-3.356-7.5-7.496-7.5h-32.798
			c-39.62,0-42.967-0.124-54.056-0.533c-7.083-0.263-17.786-0.657-43.385-1.212c-9.981-0.218-18.102-7.773-18.102-16.846
			c0-9.208,7.914-16.678,18.037-17.048h70.832c4.14,0,7.496-3.358,7.496-7.5s-3.356-7.5-7.496-7.5h-70.916l-54.955-0.832
			c-10.819-0.138-19.621-8.401-19.621-18.418c0-10.155,8.759-18.418,19.525-18.418h125.966c4.14,0,7.496-3.358,7.496-7.5
			s-3.2-7.862-7.34-7.862H34.609c-10.816-0.131-19.616-8.394-19.616-18.418c0-10.154,8.759-18.416,19.525-18.416h155.926
			c4.14,0,7.431-3.359,7.431-7.5c0-4.143-3.356-7.5-7.496-7.5H81.433c-10.816-0.281-19.6-8.524-19.6-18.418
			c0-10.156,8.759-18.417,19.525-18.417h48.092c6.714,6.589,15.907,10.658,26.032,10.658s19.318-4.068,26.032-10.658h80.077
			c2.125,0,4.149-0.923,5.571-2.504s2.104-3.712,1.88-5.827c-0.097-0.916-0.362-1.805-0.78-2.625
			c-7.906-15.469-17.832-22.494-25.807-28.138c-9.011-6.377-15.521-10.984-18.771-26.06c-1.839-8.532,1.357-16.124,4.963-20.384
			c2.908-3.437,5.772-4.558,7.319-4.498c0.234,0.011,0.467,0.011,0.701,0c0.101-0.004,0.2-0.004,0.297,0
			c0.231,0.01,0.462,0.011,0.694,0c0.626-0.029,1.135,0.107,1.641,0.442c1.543,1.021,3.277,2.371,5.286,3.934
			c7.559,5.882,18.981,14.771,41.885,23.118c23.717,8.644,34,22.991,43.946,36.865c11.991,16.73,24.392,34.03,57.842,34.312h36.848
			V370.93c0,4.141,3.356,7.5,7.497,7.5c4.142,0,7.496-3.359,7.496-7.5V245.194h56.91v195h-56.91v-34.223
			c0-4.142-3.355-7.5-7.496-7.5c-4.14,0-7.497,3.358-7.497,7.5v19.938h-36.879c-16.479,0.068-32.703,4.563-48.396,8.91
			c-15.534,4.302-30.205,8.365-44.781,8.365h-10.392c-4.141,0-7.496,3.358-7.496,7.5c0,4.143,3.355,7.5,7.496,7.5h10.392
			c16.612,0,32.966-4.529,48.782-8.909c15.419-4.271,29.985-8.306,44.426-8.366h36.848v6.785c0,4.142,3.356,7.5,7.497,7.5h71.902
			c4.141,0,7.496-3.358,7.496-7.5v-210C512,233.552,508.644,230.194,504.504,230.194L504.504,230.194z M155.483,246.502
			c-12.243,0-22.203-9.965-22.203-22.214c0-8.059,11.55-28.561,22.203-44.671c10.653,16.11,22.203,36.612,22.203,44.671
			C177.686,236.536,167.725,246.502,155.483,246.502z"/>
		<path fill="#035AA7" d="M72.765,202.851c26.344,0,47.776-21.443,47.776-47.799c0-23.972-37.414-76.951-41.681-82.913
			c-1.408-1.967-3.677-3.134-6.095-3.134s-4.688,1.167-6.095,3.134c-4.267,5.962-41.681,58.94-41.681,82.913
			C24.988,181.408,46.421,202.851,72.765,202.851z M72.765,89.66c14.616,21.68,32.783,52.782,32.783,65.391
			c0,18.085-14.706,32.799-32.783,32.799c-18.077,0-32.784-14.714-32.784-32.799C39.981,142.443,58.149,111.34,72.765,89.66z"/>
		<path fill="#035AA7" d="M155.483,123.737c14.398,0,26.111-11.719,26.111-26.123c0-11.778-15.32-34.104-20.016-40.665
			c-1.408-1.967-3.677-3.134-6.095-3.134s-4.688,1.167-6.095,3.134c-4.695,6.562-20.015,28.887-20.015,40.665
			C129.372,112.018,141.085,123.737,155.483,123.737L155.483,123.737z M155.483,74.719c6.839,10.773,11.118,19.91,11.118,22.896
			c0,6.133-4.988,11.123-11.118,11.123s-11.118-4.99-11.118-11.123C144.365,94.628,148.644,85.491,155.483,74.719z"/>
		<path fill="#035AA7" d="M224.43,102.403h2.861v2.85c0,4.142,3.356,7.5,7.496,7.5c4.14,0,7.496-3.358,7.496-7.5v-2.85h2.861
			c4.14,0,7.496-3.358,7.496-7.5s-3.356-7.5-7.496-7.5h-2.861v-2.849c0-4.142-3.356-7.5-7.496-7.5c-4.14,0-7.496,3.358-7.496,7.5
			v2.849h-2.861c-4.14,0-7.496,3.358-7.496,7.5S220.29,102.403,224.43,102.403z"/>
		<path fill="#035AA7" d="M7.496,79.947h2.861v2.85c0,4.142,3.356,7.5,7.496,7.5s7.496-3.358,7.496-7.5v-2.85h2.861
			c4.14,0,7.496-3.358,7.496-7.5c0-4.142-3.356-7.5-7.496-7.5h-2.861v-2.849c0-4.142-3.356-7.5-7.496-7.5s-7.496,3.358-7.496,7.5
			v2.849H7.496c-4.14,0-7.496,3.358-7.496,7.5C0,76.589,3.356,79.947,7.496,79.947z"/>
	</g>
</g>
</svg>
