<?xml version="1.0" encoding="utf-8"?>
<!-- Generator: Adobe Illustrator 16.0.0, SVG Export Plug-In . SVG Version: 6.00 Build 0)  -->
<!DOCTYPE svg PUBLIC "-//W3C//DTD SVG 1.1//EN" "http://www.w3.org/Graphics/SVG/1.1/DTD/svg11.dtd">
<svg version="1.1" id="Layer_1" xmlns="http://www.w3.org/2000/svg" xmlns:xlink="http://www.w3.org/1999/xlink" x="0px" y="0px"
	 width="512px" height="512px" viewBox="0 0 512 512" enable-background="new 0 0 512 512" xml:space="preserve">
<g>
	<g>
		<path fill="#035AA7" d="M180.027,239.555c-4.201,0-7.604,3.405-7.604,7.604v34.058c0,4.199,3.403,7.604,7.604,7.604
			c4.2,0,7.604-3.404,7.604-7.604v-34.058C187.631,242.959,184.228,239.555,180.027,239.555z"/>
		<path fill="#035AA7" d="M336.694,288.822c4.2,0,7.604-3.404,7.604-7.604V247.16c0-4.199-3.403-7.604-7.604-7.604
			s-7.604,3.405-7.604,7.604v34.059C329.09,285.418,332.494,288.822,336.694,288.822z"/>
		<path fill="#035AA7" d="M445.775,207.516v-18.505c0-50.048-19.496-97.113-54.896-132.523
			c-26.617-26.628-60.136-44.441-96.931-51.517c-11.646-2.244-23.623-3.381-35.595-3.381c-103.333,0-187.401,84.077-187.401,187.421
			v18.647c-1.47-0.095-2.949-0.147-4.428-0.147C29.843,207.512,0,237.349,0,274.023c0,36.681,29.843,66.523,66.524,66.523
			c2.238,0,4.463-0.115,6.666-0.334c3.623,23.416,11.629,45.997,23.713,66.451c16.114,27.273,38.997,50.119,66.244,66.223
			l0.839,1.496c12.471,22.223,36.048,36.027,61.529,36.027h65.69c25.481,0,49.059-13.805,61.528-36.027l0.842-1.499
			c27.25-16.108,50.134-38.954,66.247-66.223c12.033-20.366,20.023-42.841,23.67-66.149c0.657,0.02,1.316,0.035,1.977,0.035
			c36.685,0,66.529-29.841,66.529-66.52C512,237.45,482.318,207.681,445.775,207.516z M258.354,16.797
			c11.009,0,22.018,1.045,32.721,3.108c33.799,6.499,64.592,22.866,89.05,47.334c32.528,32.538,50.442,75.785,50.442,121.771v18.869
			c-65.451-0.735-123.621-9.851-172.959-27.173c-3.963-1.39-8.302,0.693-9.693,4.656c-1.391,3.962,0.693,8.302,4.656,9.693
			c50.948,17.887,110.813,27.292,177.996,28.032v15.591l-41.265,64.406l-130.018-15.919c-0.613-0.076-1.234-0.076-1.848,0
			l-130.017,15.919L86.16,238.688v-17.774c19.046-7.236,36.987-19.605,50.988-35.271c11.624-13.007,19.482-27.239,22.959-41.287
			c11.165,9.729,30.997,24.351,61.808,38.4c3.819,1.741,8.33,0.057,10.074-3.763c1.743-3.821,0.058-8.331-3.764-10.074
			c-25.102-11.446-42.203-23.213-52.128-31.069c-10.744-8.503-15.624-14.379-15.656-14.419c-2.03-2.497-5.414-3.446-8.445-2.369
			c-3.032,1.077-5.059,3.947-5.059,7.165c0,15.247-7.502,32.039-21.126,47.282c-10.883,12.178-24.943,22.386-39.647,28.958V189.01
			C86.161,94.052,163.406,16.797,258.354,16.797z M66.524,325.339c-28.295,0-51.316-23.021-51.316-51.315
			c0-28.289,23.021-51.304,51.316-51.304c1.487,0,2.965,0.084,4.429,0.208v30.67c-11.578-0.501-26.522,3.187-33.47,19.166
			c-1.674,3.852,0.09,8.33,3.942,10.006c0.987,0.429,2.015,0.633,3.027,0.633c2.936,0,5.731-1.711,6.977-4.574
			c4.124-9.483,13.432-10.499,19.524-10.024v42.651c0,4.563,0.181,9.113,0.51,13.644C69.833,325.253,68.185,325.339,66.524,325.339z
			 M339.472,466.94c-9.782,17.433-28.276,28.262-48.267,28.262h-65.689c-19.99,0-38.484-10.829-48.266-28.261l-46.049-82.063
			v-15.155c0-4.199-3.404-7.604-7.604-7.604c-4.201,0-7.604,3.404-7.604,7.604v17.143c0,1.303,0.334,2.584,0.972,3.721
			l28.622,51.007c-14.033-12.175-26.09-26.584-35.59-42.664c-15.593-26.393-23.835-56.64-23.835-87.474v-44.574l29.832,46.561
			v25.863c0,4.199,3.403,7.604,7.604,7.604c4.2,0,7.604-3.404,7.604-7.604v-21.361l127.16-15.568l127.161,15.568v66.934
			L339.472,466.94z M406.73,398.925c-9.5,16.076-21.558,30.485-35.592,42.661l28.618-51c0.638-1.137,0.973-2.418,0.973-3.721
			v-73.423l29.838-46.57v44.583C430.567,342.287,422.324,372.534,406.73,398.925z M445.471,325.338
			c-0.076,0-0.151-0.004-0.226-0.004c0.34-4.609,0.53-9.237,0.53-13.88v-42.651c6.092-0.473,15.395,0.544,19.517,10.023
			c1.245,2.864,4.041,4.574,6.978,4.574c1.012,0,2.04-0.203,3.027-0.632c3.852-1.675,5.615-6.153,3.941-10.005
			c-6.946-15.977-21.884-19.666-33.463-19.166v-30.874c28.158,0.166,51.017,23.113,51.017,51.304
			C496.792,302.32,473.77,325.338,445.471,325.338z"/>
	</g>
</g>
</svg>
