<?xml version="1.0" encoding="utf-8"?>
<!-- Generator: Adobe Illustrator 16.0.0, SVG Export Plug-In . SVG Version: 6.00 Build 0)  -->
<!DOCTYPE svg PUBLIC "-//W3C//DTD SVG 1.1//EN" "http://www.w3.org/Graphics/SVG/1.1/DTD/svg11.dtd">
<svg version="1.1" id="Capa_1" xmlns="http://www.w3.org/2000/svg" xmlns:xlink="http://www.w3.org/1999/xlink" x="0px" y="0px"
	 width="512px" height="512px" viewBox="0 0 512 512" enable-background="new 0 0 512 512" xml:space="preserve">
<g>
	<g id="XMLID_1341_">
		<g id="XMLID_95_">
			<path id="XMLID_836_" fill="#035AA7" d="M486.599,244h-33.321c-8.418,0-15.883,4.14-20.479,10.486
				c-6.806-5.386-15.395-8.613-24.728-8.613h-75.247c-4.636-25.25-22.767-45.822-46.621-53.948
				c6.83-8.029,10.964-18.417,10.964-29.759v-16c0-25.364-20.637-46-46-46c-25.364,0-46,20.636-46,46v16
				c0,11.338,4.132,21.724,10.957,29.751c-18.038,6.129-33.087,19.414-41.267,37.083H163.5c-12.747,0-23.942,6.756-30.204,16.873
				h-29.365c-9.333,0-17.922,3.228-24.728,8.613C74.606,248.14,67.141,244,58.724,244H25.401C11.395,244,0,255.395,0,269.4V313
				c0,5.521,4.477,10,10,10s10-4.479,10-10v-43.6c0-2.979,2.423-5.4,5.401-5.4h33.322c2.909,0,5.276,2.367,5.276,5.275v177.447
				c0,2.909-2.367,5.276-5.276,5.276H25.401c-2.979,0-5.401-2.423-5.401-5.401V403c0-5.521-4.477-10-10-10s-10,4.479-10,10v43.599
				C0,460.605,11.395,472,25.401,472H40v30c0,5.522,4.477,10,10,10h48c5.523,0,10-4.478,10-10v-30h34.494v6.548
				c0,18.445,15.007,33.452,33.453,33.452c9.128,0,17.411-3.679,23.453-9.627c6.042,5.948,14.324,9.627,23.453,9.627
				c18.446,0,33.452-15.007,33.452-33.452V472H404v30c0,5.522,4.477,10,10,10h48c5.523,0,10-4.478,10-10v-30h14.599
				C500.605,472,512,460.605,512,446.599V269.4C512,255.395,500.605,244,486.599,244z M428,285.805v65.019
				c0,10.854-8.832,19.688-19.688,19.688h-87.42c8.173-9.725,13.107-22.255,13.107-35.922v-68.715h74.069
				C419.059,265.873,428,274.813,428,285.805L428,285.805z M225.167,146.166c0-14.337,11.664-26,26-26s26,11.663,26,26v16
				c0,14.337-11.664,26-26,26s-26-11.663-26-26V146.166z M238.788,208.166h24.758c27.821,0,50.455,22.634,50.455,50.454v63.713h-34
				v-20h4c5.522,0,10-4.478,10-10s-4.478-10-10-10h-4V264.5c0-19.575-15.925-35.5-35.5-35.5h-46.567
				C207.255,216.154,222.324,208.166,238.788,208.166L238.788,208.166z M163.5,249h81c8.547,0,15.5,6.953,15.5,15.5v57.833H148
				V264.5C148,255.953,154.953,249,163.5,249z M103.931,265.873H128v66.46c0,5.522,4.477,10,10,10h13.229
				c-5.492,7.731-8.734,17.167-8.734,27.351v0.826h-38.806C92.832,370.51,84,361.678,84,350.822v-65.02
				C84,274.813,92.941,265.873,103.931,265.873L103.931,265.873z M88,492H60v-20h28V492z M98.005,452
				C90.283,452,84,445.717,84,437.994v-33.282c0-7.831,6.371-14.202,14.202-14.202h44.292V452H98.005z M175.947,492
				c-7.418,0-13.453-6.034-13.453-13.452V369.684c0-15.08,12.27-27.351,27.351-27.351h8.289c-5.492,7.731-8.734,17.167-8.734,27.351
				v108.864C189.399,485.966,183.365,492,175.947,492L175.947,492z M236.304,478.548c0,7.418-6.035,13.452-13.452,13.452
				c-7.418,0-13.453-6.034-13.453-13.452V369.684c0-15.08,12.269-27.351,27.35-27.351h76.4
				c-3.553,16.097-17.923,28.177-35.071,28.177h-31.774c-5.523,0-10,4.479-10,10v0.01V478.548z M256.304,390.51h157.494
				c7.831,0,14.202,6.371,14.202,14.202v33.282c0,7.723-6.283,14.006-14.005,14.006h-157.69L256.304,390.51L256.304,390.51z
				 M452,492h-28v-20h28V492z M492,446.599c0,2.979-2.423,5.401-5.401,5.401h-33.321c-2.909,0-5.276-2.367-5.276-5.276V269.275
				c0-2.908,2.367-5.275,5.276-5.275h33.321c2.979,0,5.401,2.423,5.401,5.4V446.599z"/>
			<path id="XMLID_1017_" fill="#035AA7" d="M502,0H342c-5.523,0-10,4.478-10,10v120c0,5.522,4.477,10,10,10h160
				c5.523,0,10-4.478,10-10V10C512,4.478,507.523,0,502,0z M492,20v46.774l-23.438-23.438c-3.905-3.904-10.237-3.904-14.144,0
				l-24.72,24.72l-12.878-12.878c-3.905-3.904-10.237-3.904-14.144,0L352,105.857V20H492z M453.357,120h-87.216l43.607-43.607
				L453.357,120z M481.643,120l-37.801-37.801l17.649-17.649L492,95.059V120H481.643z"/>
			<path id="XMLID_1027_" fill="#035AA7" d="M69,138c38.047,0,69-30.953,69-69S107.047,0,69,0S0,30.953,0,69S30.953,138,69,138z
				 M69,20c27.019,0,49,21.981,49,49s-21.981,49-49,49S20,96.019,20,69S41.981,20,69,20z"/>
			<path id="XMLID_1037_" fill="#035AA7" d="M69,97.5c5.523,0,10-4.478,10-10V73.143l4.196-4.196c3.905-3.905,3.905-10.237,0-14.143
				c-3.905-3.904-10.237-3.904-14.143,0l-7.125,7.125C60.054,63.805,59,66.348,59,69v18.5C59,93.022,63.477,97.5,69,97.5z"/>
			<path id="XMLID_1038_" fill="#035AA7" d="M10,368c2.63,0,5.21-1.07,7.07-2.932C18.93,363.21,20,360.63,20,358
				s-1.07-5.21-2.93-7.07C15.21,349.07,12.63,348,10,348s-5.21,1.068-7.07,2.93C1.07,352.79,0,355.37,0,358s1.07,5.21,2.93,7.068
				C4.79,366.93,7.37,368,10,368z"/>
		</g>
	</g>
</g>
</svg>
