<?xml version="1.0" encoding="utf-8"?>
<!-- Generator: Adobe Illustrator 16.0.0, SVG Export Plug-In . SVG Version: 6.00 Build 0)  -->
<!DOCTYPE svg PUBLIC "-//W3C//DTD SVG 1.1//EN" "http://www.w3.org/Graphics/SVG/1.1/DTD/svg11.dtd">
<svg version="1.1" id="Layer_1" xmlns="http://www.w3.org/2000/svg" xmlns:xlink="http://www.w3.org/1999/xlink" x="0px" y="0px"
	 width="50px" height="50px" viewBox="0 0 50 50" enable-background="new 0 0 50 50" xml:space="preserve">
<g>
	<g>
		<path fill="#D7DF23" d="M49.826,24.708c0,7.538-3.355,14.561-9.357,19.368c-3.596,2.877-7.941,4.678-12.52,5.182
			c-7.642,0.848-14.978-1.748-20.31-7.076c-4.666-4.668-7.236-10.875-7.236-17.473c0-0.23,0.003-0.439,0.006-0.639l2.094,0.052
			c-0.004,0.183-0.007,0.374-0.007,0.587c0,13.549,11.977,24.35,25.897,22.383c9.888-1.4,17.704-9.213,19.101-19.102
			c1.968-13.921-8.838-25.896-22.382-25.896c-9.93,0-18.601,6.355-21.577,15.816l-1.998-0.629c1.543-4.906,4.677-9.309,8.822-12.397
			c5.31-3.958,11.866-5.605,18.624-4.594c3.611,0.54,7.061,1.901,10.056,3.988C45.938,9.073,49.826,16.592,49.826,24.708z"/>
	</g>
	<g>
		<rect x="0.509" y="24.11" fill="#D7DF23" width="32.971" height="2.093"/>
	</g>
	<g>
		<path fill="#D7DF23" d="M34.338,25.777l-8.945,8.945c-0.408,0.408-1.073,0.408-1.481,0l0,0c-0.408-0.406-0.408-1.072,0-1.48
			l8.086-8.086l-8.086-8.085c-0.408-0.409-0.408-1.072,0-1.48l0,0c0.408-0.407,1.073-0.407,1.481,0l8.945,8.943
			C34.68,24.877,34.68,25.435,34.338,25.777z"/>
	</g>
</g>
<g display="none">
	<g display="inline">
		<path fill="#D7DF23" d="M25,32.587c-0.935,0-1.842-0.183-2.696-0.544c-0.825-0.35-1.565-0.849-2.202-1.484
			c-0.636-0.637-1.136-1.377-1.484-2.202c-0.361-0.854-0.544-1.761-0.544-2.696c0-0.935,0.183-1.843,0.544-2.696
			c0.349-0.825,0.848-1.566,1.484-2.202s1.376-1.135,2.202-1.484c0.854-0.361,1.761-0.544,2.696-0.544
			c0.936,0,1.842,0.183,2.696,0.544c0.825,0.349,1.565,0.848,2.202,1.484c0.636,0.636,1.135,1.377,1.484,2.202
			c0.361,0.854,0.544,1.761,0.544,2.696c0,0.936-0.183,1.842-0.544,2.696c-0.35,0.825-0.849,1.565-1.484,2.202
			c-0.637,0.636-1.377,1.135-2.202,1.484C26.842,32.403,25.936,32.587,25,32.587z M25,19.324c-3.493,0-6.335,2.842-6.335,6.335
			c0,3.494,2.842,6.335,6.335,6.335s6.336-2.842,6.336-6.336C31.336,22.165,28.493,19.324,25,19.324z"/>
	</g>
	<g display="inline">
		<circle fill="#D7DF23" cx="25" cy="25.82" r="1.133"/>
	</g>
</g>
</svg>
