<?xml version="1.0" encoding="utf-8"?>
<!-- Generator: Adobe Illustrator 16.0.0, SVG Export Plug-In . SVG Version: 6.00 Build 0)  -->
<!DOCTYPE svg PUBLIC "-//W3C//DTD SVG 1.1//EN" "http://www.w3.org/Graphics/SVG/1.1/DTD/svg11.dtd">
<svg version="1.1" id="Layer_5" xmlns="http://www.w3.org/2000/svg" xmlns:xlink="http://www.w3.org/1999/xlink" x="0px" y="0px"
	 width="512px" height="512px" viewBox="0 0 512 512" enable-background="new 0 0 512 512" xml:space="preserve">
<g>
	<circle fill="#FFFFFF" cx="176" cy="112" r="8"/>
	<path fill="#FFFFFF" d="M296,272c0-51.696-27.568-99.024-72.168-124.736c-1.152-26.608-11.584-49.168-18.76-61.64
		C220.696,80.176,232,65.456,232,48c0-22.056-17.944-40-40-40c-8.928,0-17.088,3.04-23.752,8h-26.912
		C89.864,16,48,57.864,48,109.336c0,17.792,5.232,35.064,14.56,49.84C28.272,186.4,8,228,8,272c0,79.4,64.6,144,144,144
		c24.464,0,47.504-6.168,67.704-16.984L324.688,504H328c30.872,0,56-25.12,56-56v-3.313L279.016,339.704
		C289.832,319.504,296,296.464,296,272L296,272z M120,260.943V362.4c-11.936-4.24-22.768-10.752-32.008-19.057L88,259.08
		c0-21.144,11.816-39.944,30.368-49.4L152,243.312l17.632-17.632c18.552,9.456,30.368,28.256,30.368,49.4v79.928
		C185.864,363.216,169.496,368,152,368c-5.464,0-10.784-0.568-16-1.448V251.056l-20.424-10.208l-7.16,14.312L120,260.943z
		 M97.544,193.16l7.544,5.656C84.688,211.792,72,234.2,72,259.08l-0.008,65.855C61.912,309.752,56,291.561,56,272
		C56,240.128,71.52,211.12,97.544,193.16L97.544,193.16z M176,210.808V198c5.064-1.712,9.76-4.448,13.656-8.336
		c1.352-1.352,2.504-2.832,3.608-4.352C226.72,201.168,248,234.48,248,272c0,28.336-12.416,53.76-32,71.352V275.08
		C216,247.472,200.472,222.8,176,210.808z M184,154.232v10.456c0,5.16-2.008,10.008-5.656,13.656
		c-3.648,3.648-8.504,5.656-13.656,5.656H144v16h16v12.688l-8,8l-24-24v-38.056c0-6.408-2.504-12.44-7.032-16.976l-6.624-6.624
		c-1.512-1.512-2.344-3.528-2.344-5.664V128c0-4.408,3.584-8,8-8h8V96c0-4.408,3.584-8,8-8h40h11.784
		c5.272,8.128,18.384,30.88,20.048,58.296L184,154.232z M141.336,32h14.056C153.232,36.912,152,42.304,152,48h16
		c0-13.232,10.768-24,24-24s24,10.768,24,24s-10.768,24-24,24h-16h-40c-13.232,0-24,10.768-24,24v9.368
		c-9.312,3.304-16,12.2-16,22.632v1.368c0,6.408,2.504,12.44,7.032,16.976l6.624,6.624c1.512,1.512,2.344,3.528,2.344,5.664v25.376
		l-17.072-12.8C75.56,156.672,64,133.544,64,109.336C64,66.688,98.696,32,141.336,32z M24,272c0-39.016,17.928-75.912,48.28-100.128
		c3.608,4,7.528,7.744,11.84,11.088C56.32,204.088,40,236.576,40,272c0,61.76,50.24,112,112,112s112-50.24,112-112
		c0-44.04-25.144-83.096-64.608-101.464c0.264-1.576,0.544-3.144,0.592-4.768l15.168-5.056C255.216,183.488,280,225.784,280,272
		c0,70.576-57.424,128-128,128S24,342.576,24,272z M367.872,451.184c-1.544,19.521-17.168,35.145-36.688,36.688l-97.456-97.456
		c14.328-9.92,26.768-22.359,36.688-36.688L367.872,451.184z"/>
	<path fill="#FFFFFF" d="M376,424h112V312H376V424z M392,328h80v80h-80V328z"/>
	<path fill="#FFFFFF" d="M424,372.688l-10.344-10.344l-11.313,11.313L424,395.313l45.656-45.656l-11.313-11.313L424,372.688z"/>
	<path fill="#FFFFFF" d="M376,296h112V184H376V296z M392,200h80v80h-80V200z"/>
	<path fill="#FFFFFF" d="M424,244.688l-10.344-10.344l-11.313,11.313L424,267.313l45.656-45.656l-11.313-11.313L424,244.688z"/>
	<path fill="#FFFFFF" d="M248,8v64h256V8H248z M360,24h32v32h-32V24z M344,56h-32V24h32V56z M408,24h32v32h-32V24z M264,24h32v32
		h-32V24z M488,56h-32V24h32V56z"/>
	<path fill="#FFFFFF" d="M296,88h144v16H296V88z"/>
	<path fill="#FFFFFF" d="M296,120h144v16H296V120z"/>
	<path fill="#FFFFFF" d="M424,152h16v16h-16V152z"/>
	<path fill="#FFFFFF" d="M296,152h16v16h-16V152z"/>
	<path fill="#FFFFFF" d="M360,152h16v16h-16V152z"/>
	<path fill="#FFFFFF" d="M392,152h16v16h-16V152z"/>
	<path fill="#FFFFFF" d="M328,152h16v16h-16V152z"/>
</g>
</svg>
