<?xml version="1.0" encoding="utf-8"?>
<!-- Generator: Adobe Illustrator 16.0.0, SVG Export Plug-In . SVG Version: 6.00 Build 0)  -->
<!DOCTYPE svg PUBLIC "-//W3C//DTD SVG 1.1//EN" "http://www.w3.org/Graphics/SVG/1.1/DTD/svg11.dtd">
<svg version="1.1" id="Layer_1" xmlns="http://www.w3.org/2000/svg" xmlns:xlink="http://www.w3.org/1999/xlink" x="0px" y="0px"
	 width="50px" height="50px" viewBox="0 0 50 50" enable-background="new 0 0 50 50" xml:space="preserve">
<g display="none">
	<g display="inline">
		<path fill="#D7DF23" d="M31.928,33.711c0,2.114-0.94,4.083-2.623,5.43c-1.008,0.807-2.227,1.313-3.51,1.453
			c-2.143,0.237-4.199-0.49-5.694-1.984c-1.308-1.309-2.029-3.049-2.029-4.898c0-0.064,0.001-0.123,0.002-0.18l0.587,0.016
			c-0.001,0.051-0.002,0.105-0.002,0.164c0,3.799,3.358,6.827,7.261,6.275c2.771-0.393,4.963-2.582,5.354-5.355
			c0.552-3.902-2.478-7.26-6.275-7.26c-2.784,0-5.214,1.782-6.049,4.435l-0.56-0.177c0.433-1.375,1.311-2.609,2.473-3.475
			c1.489-1.109,3.327-1.572,5.221-1.289c1.013,0.152,1.979,0.533,2.819,1.119C30.838,29.328,31.928,31.436,31.928,33.711z"/>
	</g>
	<g display="inline">
		<rect x="18.102" y="33.543" fill="#D7DF23" width="9.244" height="0.587"/>
	</g>
	<g display="inline">
		<path fill="#D7DF23" d="M27.586,34.012l-2.508,2.507c-0.114,0.114-0.301,0.114-0.415,0l0,0c-0.114-0.114-0.114-0.3,0-0.415
			l2.267-2.267l-2.267-2.267c-0.114-0.115-0.114-0.301,0-0.416l0,0c0.114-0.113,0.301-0.113,0.415,0l2.508,2.508
			C27.682,33.758,27.682,33.915,27.586,34.012z"/>
	</g>
</g>
<g>
	<g>
		<path fill="#D7DF23" d="M25,49.803c-3.348,0-6.597-0.654-9.654-1.948c-2.955-1.252-5.605-3.038-7.883-5.314
			c-2.278-2.28-4.066-4.931-5.315-7.885c-1.293-3.06-1.949-6.305-1.949-9.654c0-3.349,0.656-6.599,1.949-9.655
			c1.249-2.955,3.037-5.607,5.315-7.885c2.278-2.278,4.929-4.065,7.883-5.315c3.06-1.294,6.306-1.949,9.654-1.949
			c3.35,0,6.595,0.655,9.654,1.949c2.955,1.25,5.605,3.037,7.885,5.315c2.276,2.278,4.063,4.93,5.315,7.885
			c1.293,3.06,1.947,6.306,1.947,9.655c0,3.35-0.654,6.595-1.947,9.654c-1.252,2.954-3.039,5.604-5.315,7.885
			c-2.279,2.276-4.93,4.063-7.885,5.314C31.595,49.145,28.35,49.803,25,49.803z M25,2.313c-12.507,0-22.685,10.175-22.685,22.685
			C2.315,37.508,12.493,47.68,25,47.68c12.508,0,22.687-10.175,22.687-22.687C47.687,12.486,37.508,2.313,25,2.313z"/>
	</g>
	<g>
		<path fill="#D7DF23" d="M25,21.516c2.241,0,4.056,1.816,4.056,4.058c0,2.237-1.814,4.056-4.056,4.056s-4.058-1.818-4.058-4.056
			C20.942,23.333,22.759,21.516,25,21.516z"/>
	</g>
</g>
</svg>
