<?xml version="1.0" encoding="utf-8"?>
<!-- Generator: Adobe Illustrator 16.0.0, SVG Export Plug-In . SVG Version: 6.00 Build 0)  -->
<!DOCTYPE svg PUBLIC "-//W3C//DTD SVG 1.1//EN" "http://www.w3.org/Graphics/SVG/1.1/DTD/svg11.dtd">
<svg version="1.1" id="Capa_1" xmlns="http://www.w3.org/2000/svg" xmlns:xlink="http://www.w3.org/1999/xlink" x="0px" y="0px"
	 width="250px" height="250px" viewBox="0 0 250 250" enable-background="new 0 0 250 250" xml:space="preserve">
<g>
	<path fill="#FFFFFF" d="M14.579,105.077c0-1.238-1.002-2.24-2.24-2.24s-2.24,1.002-2.24,2.24c0,31.08,16.981,59.611,44.315,74.459
		c0.34,0.185,0.706,0.272,1.067,0.272c0.795,0,1.564-0.424,1.97-1.172c0.59-1.088,0.188-2.447-0.899-3.037
		C30.662,161.535,14.579,134.512,14.579,105.077z"/>
	<path fill="#FFFFFF" d="M219.056,98.448c-4.136-12.146-14.468-21.498-26.956-24.37l-3.352-14.959
		c2.155-1.557,3.566-4.085,3.566-6.942c0-3.946-2.688-7.27-6.325-8.258V31.883c0-1.238-1.003-2.24-2.24-2.24s-2.24,1.002-2.24,2.24
		v12.036c-3.639,0.989-6.325,4.312-6.325,8.258c0,2.857,1.41,5.385,3.566,6.942l-3.35,14.959
		c-12.49,2.872-22.822,12.223-26.957,24.37h-0.49c-0.766,0-1.479,0.391-1.889,1.037c-0.359,0.562-0.445,1.25-0.248,1.876H89.622
		c-1.081,0-2.008,0.771-2.203,1.834c-0.054,0.294-1.213,7.242,8.558,10.662l1.065,0.37c29.487,10.205,47.07,22.232,52.293,35.753
		c-0.538,1.795-1.144,3.567-1.829,5.306c-6.158,1.387-12.83,2.207-18.029,2.207c-41.794,0-75.797-34.001-75.797-75.796
		c0-37.331,27.808-69.567,64.683-74.984c1.107-0.163,1.924-1.118,1.915-2.238c-0.011-1.119-0.846-2.059-1.957-2.201
		c-4.431-0.566-8.955-0.854-13.443-0.854C47.048,1.418,0,48.466,0,106.296c0,19.06,5.705,38.122,16.499,55.124
		c9.902,15.598,23.39,28.496,39.087,37.437c-0.299,0.489-0.608,0.974-0.938,1.446c-0.018,0.025-0.035,0.051-0.052,0.077
		c-3.382,5.302-5.17,11.502-5.17,17.932c0,6.937,2.126,13.673,6.056,19.392H35.585c-1.237,0-2.24,1.003-2.24,2.24
		c0,6.324,3.27,8.578,6.329,8.578h80.134c3.06,0,6.329-2.254,6.329-8.578c0-1.237-1.003-2.24-2.241-2.24h-19.898
		c3.931-5.719,6.057-12.455,6.057-19.392c0-2.509-0.274-4.979-0.808-7.375c6.983-0.1,12.762-0.626,19.814-2.384
		c0.263,19.292,8.344,27.736,19.467,39.34c0.423,0.439,1.007,0.689,1.617,0.689h67.209c0.609,0,1.194-0.25,1.617-0.689
		c11.309-11.799,19.48-20.322,19.48-40.307c0-11.693-2.75-23.013-7.99-33.143c18.861-2.187,19.534-21.809,19.539-22.064v-51.69
		c0-1.238-1.002-2.241-2.24-2.241H219.056z M235.6,147.998c0.001,0.043,0.068,4.479-3.139,7.807
		c-2.338,2.424-5.875,3.742-10.523,3.934c-4.411-9.098-6.717-19.13-6.717-29.482c0-5.972,0.754-11.796,2.236-17.419h18.141v35.08
		C235.598,147.943,235.598,147.971,235.6,147.998z M156.608,126.896c-0.371-8.321-2.124-16.356-5.232-23.968h64.673
		c-3.107,7.611-4.86,15.647-5.232,23.968H156.608z M183.749,48.092c2.253,0,4.085,1.833,4.085,4.085s-1.832,4.085-4.085,4.085
		s-4.085-1.833-4.085-4.085C179.664,49.924,181.496,48.092,183.749,48.092z M177.682,78.178c0.881-0.165,1.578-0.838,1.774-1.712
		l3.53-15.761c0.252,0.022,0.506,0.039,0.762,0.039c0.257,0,0.511-0.016,0.762-0.039l3.532,15.762
		c0.196,0.874,0.894,1.548,1.774,1.712c11.053,2.068,20.373,9.882,24.473,20.27h-61.08C157.307,88.06,166.628,80.246,177.682,78.178
		z M98.507,109.993l-1.05-0.365c-3.235-1.132-4.627-2.616-5.218-3.787h55.466c2.982,7.737,4.499,15.928,4.499,24.416
		c0,4.413-0.411,8.759-1.218,12.993C143.295,130.566,125.692,119.4,98.507,109.993z M95.809,190.152H63.651
		c0.39-2.068,0.588-4.19,0.588-6.345c0-6.695-1.944-13.108-5.543-18.485h42.056c-3.599,5.377-5.543,11.791-5.543,18.485
		C95.209,185.957,95.413,188.079,95.809,190.152z M119.807,244.04H39.674c-0.918,0-1.386-0.87-1.62-1.856h83.374
		C121.193,243.17,120.726,244.04,119.807,244.04z M98.349,237.703H61.131c-1.885-2.207-3.428-4.641-4.595-7.227h19.152
		c1.237,0,2.24-1.002,2.24-2.24c0-1.237-1.003-2.24-2.24-2.24H54.936c-0.673-2.492-1.028-5.071-1.028-7.685
		c0-5.56,1.536-10.913,4.443-15.485c1.764-2.537,3.142-5.291,4.123-8.193h34.517c0.93,2.729,2.214,5.33,3.839,7.746
		c0.016,0.028,0.034,0.057,0.052,0.084c3.069,4.662,4.692,10.142,4.692,15.848C105.574,225.395,103.011,232.242,98.349,237.703z
		 M104.696,200.109c-0.027-0.047-0.055-0.092-0.085-0.136c-3.219-4.749-4.921-10.339-4.921-16.166
		c0-7.214,2.596-14.038,7.309-19.219c0.597-0.655,0.75-1.603,0.392-2.413c-0.358-0.813-1.162-1.335-2.049-1.335H54.105
		c-0.887,0-1.69,0.523-2.049,1.335c-0.359,0.811-0.205,1.758,0.392,2.413c4.714,5.179,7.309,12.005,7.309,19.219
		c0,3.863-0.737,7.603-2.151,11.056C25.261,176.375,4.48,141.859,4.48,106.296c0-54.714,43.993-99.346,98.464-100.379
		C89.902,10.489,78.142,18.41,68.921,28.995C56.204,43.594,49.2,62.311,49.2,81.696c0,44.265,36.012,80.277,80.277,80.277
		c4.606,0,10.276-0.604,15.792-1.65c-1.455,2.941-3.126,5.78-5.018,8.492c-0.019,0.025-0.035,0.052-0.053,0.077
		c-6.648,10.422-10.43,22.46-11.05,35.017c-7.653,2.023-13.457,2.511-21.23,2.563C107.082,204.245,106.004,202.113,104.696,200.109z
		 M224.453,235.217h-43.199c-1.238,0-2.24,1.003-2.24,2.24c0,1.238,1.002,2.24,2.24,2.24h39.298
		c-1.312,1.427-2.697,2.883-4.155,4.404H151.1c-6.288-6.564-11.295-11.916-14.33-18.896h14.789c1.238,0,2.24-1.002,2.24-2.24
		s-1.002-2.24-2.24-2.24h-16.387c-0.783-2.754-1.298-5.789-1.519-9.225h68.772c1.238,0,2.24-1.003,2.24-2.24
		c0-1.238-1.002-2.24-2.24-2.24h-68.888c0.104-12.804,3.694-25.13,10.415-35.68c8.121-11.658,12.496-25.453,12.711-39.963h54.097
		c0.212,14.054,4.399,27.528,12.163,39.044c0.023,0.039,0.047,0.077,0.072,0.116c7.179,10.904,10.974,23.715,10.974,37.049
		C233.97,220.359,230.389,227.895,224.453,235.217z M228.035,170.131c-0.392-0.643-0.789-1.283-1.203-1.914
		c-0.031-0.057-0.066-0.113-0.104-0.168c-0.883-1.303-1.713-2.636-2.498-3.99c4.838-0.543,8.682-2.268,11.456-5.144
		c4.394-4.556,4.405-10.364,4.392-11.026v-37.292c0-1.238-1.002-2.24-2.24-2.24h-19.034c0.624-1.834,1.332-3.644,2.118-5.428h24.598
		l0.001,49.399C245.504,153.041,244.928,169.438,228.035,170.131z"/>
</g>
</svg>
